<?xml version="1.0" encoding="UTF-8" standalone="no"?>
<!-- Created with Inkscape (http://www.inkscape.org/) -->

<svg
   xmlns:dc="http://purl.org/dc/elements/1.1/"
   xmlns:cc="http://creativecommons.org/ns#"
   xmlns:rdf="http://www.w3.org/1999/02/22-rdf-syntax-ns#"
   xmlns:svg="http://www.w3.org/2000/svg"
   xmlns="http://www.w3.org/2000/svg"
   xmlns:sodipodi="http://sodipodi.sourceforge.net/DTD/sodipodi-0.dtd"
   xmlns:inkscape="http://www.inkscape.org/namespaces/inkscape"
   version="1.1"
   id="svg2"
   xml:space="preserve"
   width="1122.52"
   height="793.70135"
   viewBox="0 0 1122.52 793.70135"
   sodipodi:docname="logo-white.svg"
   inkscape:version="0.92.3 (2405546, 2018-03-11)"><metadata
     id="metadata8"><rdf:RDF><cc:Work
         rdf:about=""><dc:format>image/svg+xml</dc:format><dc:type
           rdf:resource="http://purl.org/dc/dcmitype/StillImage" /><dc:title></dc:title></cc:Work></rdf:RDF></metadata><defs
     id="defs6"><clipPath
       clipPathUnits="userSpaceOnUse"
       id="clipPath18"><path
         d="M 0,595.276 H 841.89 V 0 H 0 Z"
         id="path16"
         inkscape:connector-curvature="0" /></clipPath></defs><sodipodi:namedview
     pagecolor="#ffffff"
     bordercolor="#666666"
     borderopacity="1"
     objecttolerance="10"
     gridtolerance="10"
     guidetolerance="10"
     inkscape:pageopacity="0"
     inkscape:pageshadow="2"
     inkscape:window-width="2926"
     inkscape:window-height="1889"
     id="namedview4"
     showgrid="false"
     inkscape:zoom="1.682015"
     inkscape:cx="459.05689"
     inkscape:cy="468.45414"
     inkscape:window-x="74"
     inkscape:window-y="55"
     inkscape:window-maximized="1"
     inkscape:current-layer="g14" /><g
     id="g10"
     inkscape:groupmode="layer"
     inkscape:label="in-natura-nova-logo"
     transform="matrix(1.3333333,0,0,-1.3333333,0,793.70133)"><g
       id="g12"><g
         id="g14"
         clip-path="url(#clipPath18)"><g
           id="g20"
           transform="translate(373.5044,370.1369)"
           style="fill:#ffffff"><path
             d="M 0,0 C 53.15,-37.058 100.013,-4.772 110.051,8.083 100.229,-10.939 52.9,-46.716 -0.516,-14.862 -26.685,0.748 -39.183,25.166 -60.558,39.189 l -3.814,-0.272 c -20.434,11.58 -49.879,18.642 -104.208,16.199 -11.189,-0.499 -9.868,19.272 0.091,18.909 52.39,-1.927 83.428,-13.813 108.288,-29.423 l 1.106,-3.894 C -40.328,28.074 -19.804,13.807 0,0"
             style="fill:#ffffff;fill-opacity:1;fill-rule:nonzero;stroke:none"
             id="path22"
             inkscape:connector-curvature="0" /></g><g
           id="g24"
           transform="translate(363.4414,382.3205)"
           style="fill:#ffffff"><path
             d="M 0,0 C -94.702,57.077 37.987,147.8 116.235,86.574 132.542,73.821 150.238,54.238 146.729,22.128 135.722,152.397 -100.024,86.036 0,0"
             style="fill:#ffffff;fill-opacity:1;fill-rule:nonzero;stroke:none"
             id="path26"
             inkscape:connector-curvature="0" /></g><g
           id="g28"
           transform="translate(410.1284,337.7336)"
           style="fill:#ffffff"><path
             d="m 0,0 c 46.058,1.094 72.925,23.534 79.222,39.807 42.426,7.754 51.903,73.6 -43.837,114.551 C 213.85,104.927 75.391,-26.906 0,0"
             style="fill:#ffffff;fill-opacity:1;fill-rule:nonzero;stroke:none"
             id="path30"
             inkscape:connector-curvature="0" /></g><g
           id="g32"
           transform="translate(526.8555,460.4636)"
           style="fill:#ffffff"><path
             d="m 0,0 c 0,0 -0.363,6.995 6.121,9.687 5.175,22.876 57.016,-34.859 17.855,-54.096 0.913,-3.707 -3.231,-8.015 -6.348,-9.704 0.085,3.35 0.17,6.694 0.243,10.044 2.658,1.916 4.319,5.481 3.606,9.834 23.261,8.224 -4.433,45.486 -9.716,34.388 -1.717,1.837 -7.357,-1.44 -7.844,-5.781 z"
             style="fill:#ffffff;fill-opacity:1;fill-rule:nonzero;stroke:none"
             id="path34"
             inkscape:connector-curvature="0" /></g><g
           id="g36"
           transform="translate(98.5698,166.0949)"
           style="fill:#ffffff"><path
             d="m 0,0 c -2.534,-0.703 -4.138,-0.703 -5.821,-0.703 -0.935,0 -1.78,0.141 -2.528,0.419 -0.651,0.187 -1.213,0.516 -1.683,0.986 -0.471,0.471 -0.703,1.123 -0.703,1.962 0,1.031 0.351,2.153 1.054,3.366 0.703,1.219 1.525,2.903 2.46,5.051 1.587,3.56 2.987,7.878 4.206,12.98 1.213,5.095 2.363,10.638 3.434,16.625 1.078,5.979 2.177,12.203 3.299,18.659 1.123,6.45 2.336,12.854 3.651,19.219 1.309,6.361 2.783,12.465 4.415,18.309 1.638,5.844 3.577,11.104 5.821,15.779 -2.993,0.748 -5.492,2.08 -7.504,4.002 -2.013,1.916 -3.016,4.467 -3.016,7.647 0,0.374 0.023,0.748 0.074,1.122 0.045,0.368 0.113,0.794 0.21,1.264 2.244,-0.284 4.302,-0.425 6.172,-0.425 3.084,0 5.867,0.283 8.344,0.844 2.476,0.561 4.749,1.191 6.807,1.893 2.058,0.703 3.951,1.355 5.68,1.961 1.734,0.607 3.44,0.919 5.123,0.919 0.93,0 1.916,-0.215 2.942,-0.635 1.032,-0.419 1.547,-1.383 1.547,-2.88 0,-1.025 -0.351,-2.147 -1.054,-3.36 -0.702,-1.219 -1.519,-2.902 -2.454,-5.051 -1.593,-3.559 -2.948,-7.885 -4.07,-12.979 C 35.284,101.878 34.252,96.357 33.323,90.417 32.382,84.477 31.447,78.281 30.517,71.831 29.582,65.375 28.528,58.993 27.36,52.679 26.187,46.364 24.81,40.282 23.222,34.438 21.629,28.595 19.589,22.859 17.469,18.659 15.19,13.807 6.122,1.995 0,0"
             style="fill:#ffffff;fill-opacity:1;fill-rule:nonzero;stroke:none"
             id="path38"
             inkscape:connector-curvature="0" /></g><g
           id="g40"
           transform="translate(185.2266,163.509)"
           style="fill:#ffffff"><path
             d="m 0,0 c -4.586,0 -7.856,1.496 -9.817,4.489 -1.967,2.992 -2.948,6.734 -2.948,11.223 0,3.089 0.323,6.434 0.981,10.032 0.652,3.6 1.496,7.153 2.528,10.662 1.026,3.509 2.148,6.734 3.361,9.681 1.219,2.947 2.386,5.306 3.514,7.085 l -0.567,0.561 c -1.87,-1.309 -4.183,-3.65 -6.943,-7.017 -2.76,-3.366 -5.544,-7.294 -8.349,-11.783 -2.8,-4.49 -5.515,-9.308 -8.134,-14.449 -2.619,-5.146 -4.727,-10.1 -6.314,-14.873 -0.845,-0.651 -1.729,-1.213 -2.664,-1.683 -0.845,-0.465 -1.78,-0.862 -2.806,-1.191 -1.031,-0.328 -2.108,-0.493 -3.231,-0.493 -2.148,0 -3.973,0.539 -5.469,1.616 -1.496,1.077 -2.715,2.574 -3.65,4.489 -0.93,1.916 -1.633,4.137 -2.103,6.66 -0.465,2.528 -0.698,5.289 -0.698,8.281 0,3.458 0.301,7.244 0.908,11.364 0.611,4.116 1.45,8.208 2.527,12.272 1.077,4.07 2.387,7.998 3.928,11.784 1.548,3.792 3.271,7.159 5.192,10.106 1.916,2.948 3.974,5.283 6.173,7.011 2.199,1.735 4.512,2.597 6.943,2.597 2.715,0 4.586,-0.63 5.612,-1.894 1.026,-1.263 1.541,-2.969 1.541,-5.118 0,-1.87 -0.323,-4.098 -0.98,-6.666 -0.652,-2.573 -1.474,-5.31 -2.454,-8.207 -0.981,-2.902 -2.058,-5.917 -3.226,-9.052 -1.173,-3.129 -2.267,-6.127 -3.298,-8.978 -1.032,-2.851 -1.916,-5.492 -2.664,-7.924 -0.754,-2.432 -1.219,-4.489 -1.406,-6.173 h 1.264 c 0.561,1.213 1.661,3.481 3.299,6.802 1.632,3.321 3.644,7.085 6.031,11.297 2.386,4.205 5.05,8.581 7.997,13.116 2.942,4.534 6.031,8.7 9.256,12.486 3.231,3.786 6.501,6.921 9.823,9.398 3.322,2.477 6.524,3.718 9.607,3.718 2.715,0 4.631,-0.68 5.759,-2.035 1.117,-1.354 1.678,-3.202 1.678,-5.538 0,-2.062 -0.561,-5.1 -1.678,-9.119 C 17.395,60.513 16.16,56.165 14.799,51.489 13.444,46.813 12.203,42.137 11.086,37.46 9.958,32.784 9.403,28.851 9.403,25.677 c 0,-2.155 0.323,-3.861 0.981,-5.124 0.652,-1.265 1.774,-1.894 3.366,-1.894 1.4,0 2.965,0.539 4.699,1.615 1.729,1.072 3.486,2.426 5.26,4.065 1.78,1.638 3.532,3.463 5.26,5.475 1.735,2.006 3.322,3.973 4.773,5.889 1.445,1.916 2.709,3.673 3.786,5.266 1.077,1.587 1.848,2.805 2.318,3.644 0.93,1.496 2.149,2.245 3.645,2.245 2.057,0 3.089,-1.123 3.089,-3.367 0,-1.309 -0.38,-2.619 -1.122,-3.928 C 44.896,38.531 43.82,36.849 42.227,34.513 40.634,32.172 38.696,29.53 36.406,26.583 34.116,23.642 31.52,20.598 28.618,17.469 25.722,14.335 22.678,11.478 19.498,8.91 16.318,6.337 13.07,4.211 9.749,2.528 6.427,0.839 3.18,0 0,0"
             style="fill:#ffffff;fill-opacity:1;fill-rule:nonzero;stroke:none"
             id="path42"
             inkscape:connector-curvature="0" /></g><g
           id="g44"
           transform="translate(343.7393,227.2053)"
           style="fill:#ffffff"><path
             d="m 0,0 c -1.065,-6.328 -2.294,-12.457 -3.693,-18.404 -1.406,-5.936 -3.115,-11.492 -5.146,-16.66 -2.025,-5.169 -4.583,-9.706 -7.674,-13.616 -3.097,-3.916 -6.861,-6.977 -11.304,-9.202 -4.443,-2.224 -9.758,-3.337 -15.939,-3.337 -2.412,0 -4.49,0.463 -6.229,1.382 -1.738,0.919 -3.184,2.025 -4.349,3.331 -1.153,1.305 -2.002,2.728 -2.535,4.273 -0.527,1.545 -0.796,2.944 -0.796,4.203 0,1.253 0.269,2.271 0.796,3.044 0.533,0.772 1.382,1.159 2.535,1.159 3.383,0 6.568,1.323 9.565,3.98 2.991,2.658 5.795,6.205 8.406,10.654 2.605,4.437 5.069,9.512 7.387,15.208 2.318,5.702 4.537,11.643 6.662,17.825 2.125,6.181 4.179,12.34 6.158,18.474 1.984,6.128 3.939,11.807 5.871,17.023 -1.065,3.283 -1.838,6.304 -2.318,9.056 -0.486,2.751 -0.726,5.285 -0.726,7.603 0,3.191 0.387,5.918 1.159,8.19 0.773,2.271 1.809,4.127 3.114,5.578 1.306,1.452 2.775,2.535 4.42,3.261 1.645,0.726 3.331,1.088 5.069,1.088 1.838,0 3.624,-0.362 5.362,-1.088 1.739,-0.726 3.284,-1.762 4.637,-3.114 1.352,-1.358 2.441,-3.045 3.26,-5.07 0.82,-2.031 1.235,-4.349 1.235,-6.96 0,-2.125 -0.392,-4.589 -1.159,-7.387 2.025,-2.605 4.414,-6.158 7.171,-10.648 2.751,-4.49 5.403,-9.711 7.967,-15.647 2.558,-5.942 4.806,-12.416 6.738,-19.417 1.931,-7.007 3.09,-14.318 3.477,-21.951 h 0.872 c 0.866,5.988 1.832,12.292 2.897,18.907 1.06,6.615 2.318,13.089 3.764,19.417 1.452,6.322 3.161,12.363 5.146,18.112 1.978,5.742 4.273,10.764 6.878,15.067 2.611,4.297 5.602,7.727 8.985,10.291 3.384,2.558 7.247,3.834 11.597,3.834 0.96,0 1.902,-0.217 2.821,-0.649 0.919,-0.434 1.376,-1.376 1.376,-2.829 0,-1.065 -0.363,-2.224 -1.089,-3.476 C 81.647,60.246 80.799,58.514 79.833,56.289 78.095,52.426 76.649,47.742 75.49,42.234 74.331,36.726 73.242,30.761 72.229,24.339 71.216,17.918 70.198,11.203 69.185,4.202 68.172,-2.805 67.014,-9.659 65.708,-16.373 c -1.305,-6.715 -2.874,-13.112 -4.712,-19.2 -1.832,-6.082 -4.051,-11.497 -6.662,-16.227 -2.61,-4.73 -5.748,-8.57 -9.418,-11.514 -3.67,-2.945 -7.967,-4.613 -12.896,-4.999 -0.966,0 -1.832,0.14 -2.605,0.433 -0.679,0.193 -1.258,0.532 -1.738,1.013 -0.487,0.485 -0.726,1.212 -0.726,2.178 0.193,1.832 0.339,3.646 0.433,5.425 0.094,1.791 0.146,3.607 0.146,5.439 0,8.013 -0.919,15.816 -2.751,23.397 -1.838,7.586 -4.01,14.564 -6.521,20.939 -2.517,6.375 -5.093,12 -7.75,16.876 -2.658,4.882 -4.759,8.67 -6.305,11.38 H 3.477 C 2.219,12.579 1.065,6.327 0,0"
             style="fill:#ffffff;fill-opacity:1;fill-rule:nonzero;stroke:none"
             id="path46"
             inkscape:connector-curvature="0" /></g><g
           id="g48"
           transform="translate(458.9326,224.4855)"
           style="fill:#ffffff"><path
             d="m 0,0 c 0.374,0.652 0.566,1.355 0.566,2.104 0,1.031 -0.475,1.546 -1.405,1.546 -2.25,0 -4.54,-0.702 -6.875,-2.108 -2.336,-1.399 -4.586,-3.248 -6.734,-5.543 -2.159,-2.29 -4.183,-4.909 -6.099,-7.851 -1.927,-2.947 -3.588,-5.968 -4.988,-9.051 -1.4,-3.084 -2.522,-6.105 -3.366,-9.052 -0.839,-2.942 -1.259,-5.538 -1.259,-7.782 0,-2.155 0.442,-3.719 1.332,-4.7 0.885,-0.986 1.938,-1.473 3.157,-1.473 3.089,0 5.634,1.309 7.647,3.928 2.006,2.619 3.899,6.031 5.679,10.237 1.774,4.211 3.599,8.91 5.47,14.101 C -5.005,-10.451 -2.715,-5.237 0,0 m 14.642,12.763 c 2.625,0 4.45,-0.629 5.481,-1.893 1.031,-1.265 1.542,-3.066 1.542,-5.402 0,-2.897 -0.657,-6.337 -1.962,-10.31 -1.32,-3.979 -2.737,-8.049 -4.284,-12.204 -1.536,-4.166 -2.965,-8.139 -4.274,-11.926 -1.315,-3.791 -1.972,-6.948 -1.972,-9.47 0,-1.593 0.356,-2.857 1.054,-3.787 0.709,-0.941 1.473,-1.406 2.312,-1.406 0.941,0 2.25,0.42 3.934,1.265 1.677,0.839 3.616,2.147 5.821,3.928 2.193,1.774 4.58,4.087 7.153,6.943 2.579,2.851 5.169,6.337 7.793,10.452 0.55,0.935 1.202,1.587 1.956,1.967 0.745,0.364 1.479,0.551 2.224,0.555 1.537,0.008 2.824,-1.255 2.826,-2.792 10e-4,-0.756 -0.135,-1.575 -0.419,-2.462 -0.278,-0.896 -0.612,-1.666 -0.975,-2.319 -2.25,-3.559 -4.914,-7.414 -8.003,-11.574 -3.089,-4.16 -6.479,-8.065 -10.163,-11.716 -3.702,-3.65 -7.584,-6.688 -11.648,-9.12 -4.075,-2.431 -8.168,-3.644 -12.277,-3.644 -3.463,0 -6.246,1.473 -8.349,4.416 -2.103,2.947 -3.151,6.665 -3.151,11.154 v 1.615 c 0,0.516 0.045,1.004 0.13,1.474 0.102,0.465 0.187,0.935 0.289,1.4 h -0.708 c -0.091,0 -0.42,-0.538 -0.976,-1.615 -0.566,-1.071 -1.36,-2.381 -2.392,-3.923 -1.026,-1.547 -2.29,-3.253 -3.786,-5.124 -1.491,-1.87 -3.173,-3.576 -5.045,-5.118 -2.071,-1.713 -4.406,-3.128 -6.99,-4.267 -0.769,-0.339 -1.588,-0.62 -2.409,-0.803 -3.865,-0.864 -7.295,-0.539 -10.246,0.927 -1.87,0.941 -3.435,2.245 -4.699,3.934 -1.258,1.683 -2.244,3.667 -2.941,5.962 -0.703,2.29 -1.055,4.745 -1.055,7.363 0,5.237 0.822,10.402 2.455,15.502 1.638,5.096 3.808,9.937 6.524,14.522 2.709,4.58 5.82,8.792 9.329,12.623 3.503,3.837 7.176,7.181 11.002,10.032 3.843,2.851 7.674,5.073 11.518,6.666 3.831,1.587 7.38,2.387 10.661,2.387 1.871,0 3.089,-0.329 3.639,-0.982 0.567,-0.657 0.844,-1.496 0.844,-2.527 0,-0.748 -0.067,-1.525 -0.209,-2.313 C 4.06,10.354 3.98,9.628 3.98,8.977 c 0,-0.658 0.29,-1.173 0.845,-1.548 2.058,2.154 3.86,3.531 5.402,4.143 1.547,0.607 3.021,1.004 4.415,1.191"
             style="fill:#ffffff;fill-opacity:1;fill-rule:nonzero;stroke:none"
             id="path50"
             inkscape:connector-curvature="0" /></g><g
           id="g52"
           transform="translate(559.5244,248.8957)"
           style="fill:#ffffff"><path
             d="m 0,0 c -0.103,-1.122 -0.799,-2.222 -2.108,-3.299 -1.316,-1.071 -3.061,-2.102 -5.26,-3.083 -2.195,-0.98 -4.75,-1.916 -7.641,-2.806 -2.902,-0.889 -5.991,-1.661 -9.262,-2.312 -2.437,-5.617 -5.146,-11.087 -8.139,-16.415 -2.992,-5.334 -5.986,-9.965 -8.979,-13.893 -0.374,-0.838 -0.867,-1.989 -1.473,-3.434 -0.613,-1.451 -1.191,-3.067 -1.751,-4.841 -0.568,-1.779 -1.061,-3.576 -1.48,-5.401 -0.42,-1.826 -0.629,-3.532 -0.629,-5.119 0,-0.753 0.091,-1.615 0.284,-2.595 0.186,-0.987 0.578,-1.9 1.196,-2.739 0.6,-0.844 1.468,-1.57 2.59,-2.176 1.122,-0.612 2.573,-0.912 4.347,-0.912 1.406,0 2.97,0.538 4.699,1.615 1.734,1.071 3.492,2.431 5.265,4.07 1.775,1.632 3.527,3.457 5.261,5.469 1.728,2.013 3.321,3.974 4.772,5.895 1.446,1.911 2.709,3.667 3.781,5.26 1.077,1.587 1.853,2.806 2.318,3.645 0.936,1.496 2.153,2.244 3.645,2.244 2.063,0 3.088,-1.116 3.088,-3.366 0,-1.31 -0.374,-2.62 -1.122,-3.928 -0.561,-1.026 -1.637,-2.71 -3.225,-5.051 -1.593,-2.335 -3.531,-4.976 -5.826,-7.924 -2.29,-2.947 -4.886,-5.985 -7.783,-9.12 -2.902,-3.135 -5.94,-5.985 -9.12,-8.558 -3.179,-2.574 -6.433,-4.7 -9.749,-6.383 -3.321,-1.683 -6.569,-2.528 -9.755,-2.528 -2.425,0 -4.466,0.68 -6.098,2.036 -1.639,1.36 -2.993,3.088 -4.071,5.191 -1.071,2.103 -1.847,4.348 -2.312,6.733 -0.47,2.387 -0.702,4.655 -0.702,6.808 0,3.548 0.305,7.408 0.912,11.574 0.612,4.16 1.473,8.463 2.591,12.906 1.128,4.439 2.482,8.928 4.069,13.468 1.593,4.534 3.321,9 5.191,13.399 -1.308,-0.096 -2.573,-0.164 -3.786,-0.215 -1.218,-0.046 -2.341,-0.069 -3.366,-0.069 -2.715,0 -4.886,0.166 -6.524,0.494 -1.632,0.329 -2.454,0.861 -2.454,1.615 0,1.117 0.657,2.262 1.96,3.435 1.316,1.167 3.067,2.313 5.266,3.435 2.199,1.122 4.677,2.199 7.431,3.226 2.761,1.031 5.64,1.966 8.633,2.81 1.87,3.367 3.808,6.474 5.821,9.33 2.012,2.851 4.041,5.306 6.099,7.363 2.063,2.057 4.069,3.667 6.036,4.84 1.967,1.168 3.878,1.752 5.748,1.752 1.218,0 2.296,-0.561 3.23,-1.677 0.936,-1.128 1.406,-2.903 1.406,-5.334 0,-1.593 -0.165,-3.344 -0.493,-5.266 -0.329,-1.916 -0.771,-3.951 -1.332,-6.099 1.122,0.091 2.216,0.164 3.299,0.209 1.071,0.046 2.125,0.075 3.151,0.075 3.651,0 6.615,-0.334 8.916,-0.987 C -1.15,2.716 0,1.588 0,0"
             style="fill:#ffffff;fill-opacity:1;fill-rule:nonzero;stroke:none"
             id="path54"
             inkscape:connector-curvature="0" /></g><g
           id="g56"
           transform="translate(607.498,238.1965)"
           style="fill:#ffffff"><path
             d="m 0,0 c 2.618,0 4.443,-0.629 5.476,-1.894 1.025,-1.263 1.541,-2.969 1.541,-5.123 0,-2.993 -0.771,-6.592 -2.319,-10.803 -1.535,-4.206 -3.247,-8.553 -5.118,-13.042 -1.87,-4.495 -3.576,-8.866 -5.124,-13.122 -1.541,-4.257 -2.312,-7.924 -2.312,-11.013 0,-1.31 0.402,-2.432 1.19,-3.367 0.8,-0.936 2.177,-1.401 4.144,-1.401 1.405,0 2.963,0.534 4.699,1.611 1.728,1.077 3.479,2.431 5.26,4.069 1.774,1.639 3.531,3.458 5.259,5.47 1.735,2.012 3.322,3.979 4.773,5.894 1.451,1.916 2.715,3.668 3.786,5.261 1.071,1.587 1.848,2.806 2.312,3.649 0.936,1.492 2.155,2.246 3.651,2.246 2.057,0 3.089,-1.123 3.089,-3.373 0,-1.309 -0.379,-2.613 -1.128,-3.922 -1.87,-3.18 -4.296,-6.927 -7.295,-11.223 -2.992,-4.308 -6.309,-8.423 -9.958,-12.351 -3.645,-3.928 -7.556,-7.244 -11.716,-9.959 -4.161,-2.709 -8.39,-4.069 -12.691,-4.069 -3.651,0 -6.485,1.332 -8.491,4.001 -2.012,2.664 -3.344,6.145 -3.996,10.452 -3.741,-4.024 -7.72,-7.436 -11.931,-10.242 -4.206,-2.806 -8.508,-4.211 -12.901,-4.211 -2.341,0 -4.33,0.583 -5.969,1.757 -1.631,1.167 -2.992,2.755 -4.069,4.767 -1.071,2.012 -1.842,4.37 -2.312,7.084 -0.465,2.715 -0.698,5.612 -0.698,8.702 0,3.734 0.328,7.691 0.981,11.851 0.651,4.16 1.542,8.253 2.664,12.278 1.122,4.018 2.476,7.833 4.069,11.431 1.593,3.6 3.317,6.785 5.187,9.54 1.876,2.76 3.883,4.959 6.036,6.598 2.154,1.632 4.353,2.454 6.592,2.454 2.619,0 4.444,-0.629 5.475,-1.894 1.027,-1.263 1.542,-2.969 1.542,-5.123 0,-2.993 -0.77,-6.592 -2.318,-10.803 -1.536,-4.206 -3.248,-8.553 -5.118,-13.042 -1.87,-4.495 -3.576,-8.866 -5.124,-13.122 -1.542,-4.257 -2.313,-7.924 -2.313,-11.013 0,-1.31 0.403,-2.432 1.191,-3.367 0.798,-0.936 2.176,-1.401 4.143,-1.401 2.058,0 4.37,1.027 6.944,3.084 2.567,2.058 5.072,4.444 7.509,7.159 0.368,5.515 1.304,11.195 2.806,17.043 1.491,5.845 3.384,11.172 5.68,15.991 2.29,4.817 4.885,8.774 7.788,11.857 C -6.224,-1.542 -3.18,0 0,0"
             style="fill:#ffffff;fill-opacity:1;fill-rule:nonzero;stroke:none"
             id="path58"
             inkscape:connector-curvature="0" /></g><g
           id="g60"
           transform="translate(654.2207,159.7707)"
           style="fill:#ffffff"><path
             d="m 0,0 c -2.806,0 -5.169,0.42 -7.085,1.264 -1.916,0.844 -3.435,1.938 -4.562,3.298 -1.118,1.356 -1.916,2.897 -2.387,4.626 -0.465,1.729 -0.697,3.441 -0.697,5.124 0,3.645 0.584,7.13 1.757,10.452 1.167,3.316 2.471,6.615 3.922,9.89 1.451,3.271 2.761,6.593 3.934,9.959 1.168,3.367 1.752,6.921 1.752,10.662 0,0.748 -0.329,1.565 -0.987,2.46 -0.652,0.884 -1.4,1.327 -2.239,1.327 -0.754,-1.587 -1.734,-3.623 -2.947,-6.099 -1.213,-2.484 -2.528,-4.892 -3.928,-7.228 -1.406,-2.34 -2.783,-4.346 -4.137,-6.03 -1.361,-1.684 -2.551,-2.528 -3.578,-2.528 -0.934,0 -1.712,0.232 -2.318,0.703 -0.606,0.471 -0.912,1.213 -0.912,2.244 0,0.562 0.097,1.265 0.283,2.104 0.188,0.844 0.516,1.637 0.981,2.385 1.871,3.18 3.599,6.525 5.192,10.033 1.587,3.508 3.038,7.55 4.352,12.135 -0.283,0.748 -0.521,1.633 -0.702,2.664 -0.47,1.87 -0.703,3.928 -0.703,6.173 0,1.219 0.113,2.454 0.346,3.718 0.232,1.264 0.703,2.409 1.405,3.44 0.703,1.027 1.611,1.843 2.738,2.454 1.123,0.608 2.613,0.914 4.49,0.914 2.612,0 4.908,-1.106 6.869,-3.299 1.967,-2.199 2.947,-5.402 2.947,-9.614 0,-3.27 0.726,-5.917 2.177,-7.923 1.451,-2.012 3.016,-3.742 4.699,-5.193 1.684,-1.45 3.247,-2.805 4.698,-4.069 1.452,-1.258 2.177,-2.783 2.177,-4.557 0,-2.245 -0.487,-4.586 -1.474,-7.017 C 15.083,42.04 14.006,39.586 12.839,37.109 11.671,34.626 10.594,32.172 9.607,29.746 8.627,27.309 8.14,25.064 8.14,23.013 c 0,-2.903 1.774,-4.354 5.328,-4.354 2.522,0 5.191,1.146 7.997,3.435 2.806,2.296 5.493,4.915 8.066,7.862 2.573,2.941 4.84,5.838 6.807,8.694 1.962,2.852 3.316,4.841 4.07,5.963 1.026,1.587 2.194,2.387 3.503,2.387 0.935,0 1.706,-0.374 2.313,-1.122 0.611,-0.754 0.912,-1.684 0.912,-2.806 0,-1.309 -0.374,-2.477 -1.122,-3.509 C 45.361,38.628 44.217,36.99 42.579,34.654 40.946,32.313 38.951,29.673 36.616,26.725 34.28,23.777 31.656,20.739 28.76,17.605 25.858,14.471 22.819,11.597 19.64,8.979 16.46,6.365 13.189,4.212 9.817,2.528 6.456,0.839 3.18,0 0,0"
             style="fill:#ffffff;fill-opacity:1;fill-rule:nonzero;stroke:none"
             id="path62"
             inkscape:connector-curvature="0" /></g><g
           id="g64"
           transform="translate(739.9395,225.2883)"
           style="fill:#ffffff"><path
             d="m 0,0 c 0.368,0.652 0.561,1.355 0.561,2.104 0,1.031 -0.47,1.546 -1.4,1.546 -2.251,0 -4.54,-0.703 -6.876,-2.108 -2.341,-1.4 -4.585,-3.248 -6.739,-5.543 -2.153,-2.29 -4.183,-4.909 -6.099,-7.851 -1.922,-2.947 -3.582,-5.968 -4.982,-9.051 -1.405,-3.084 -2.523,-6.105 -3.372,-9.052 -0.839,-2.942 -1.259,-5.538 -1.259,-7.782 0,-2.155 0.442,-3.719 1.332,-4.7 0.89,-0.986 1.944,-1.473 3.157,-1.473 3.089,0 5.634,1.309 7.647,3.928 2.011,2.619 3.905,6.031 5.679,10.236 1.78,4.212 3.599,8.91 5.475,14.102 C -5.005,-10.451 -2.715,-5.237 0,0 m 15.601,11.96 c 2.618,0 4.443,-0.629 5.475,-1.893 1.031,-1.264 1.547,-3.066 1.547,-5.402 0,-2.896 -0.663,-6.337 -1.967,-10.31 -1.314,-3.979 -2.737,-8.048 -4.279,-12.204 -1.542,-4.166 -2.97,-8.138 -4.279,-11.925 -1.31,-3.791 -1.967,-6.949 -1.967,-9.471 0,-1.593 0.351,-2.857 1.054,-3.786 0.703,-0.942 1.473,-1.407 2.312,-1.407 0.936,0 2.251,0.42 3.935,1.265 1.677,0.839 3.616,2.148 5.82,3.928 2.194,1.774 4.574,4.087 7.153,6.943 2.574,2.851 5.169,6.337 7.788,10.452 0.556,0.935 1.207,1.587 1.961,1.967 0.759,0.373 1.517,0.561 2.276,0.555 1.52,-0.01 2.773,-1.271 2.775,-2.792 0.001,-0.756 -0.136,-1.574 -0.42,-2.462 -0.277,-0.896 -0.612,-1.666 -0.98,-2.318 -2.25,-3.56 -4.909,-7.414 -7.998,-11.575 -3.089,-4.16 -6.479,-8.065 -10.168,-11.715 -3.702,-3.651 -7.578,-6.689 -11.649,-9.121 -4.069,-2.431 -8.161,-3.644 -12.276,-3.644 -3.458,0 -6.241,1.474 -8.35,4.416 -2.102,2.947 -3.151,6.665 -3.151,11.154 v 1.615 c 0,0.516 0.046,1.004 0.136,1.474 l 0.284,1.4 h -0.703 c -0.097,0 -0.419,-0.538 -0.981,-1.615 -0.561,-1.071 -1.354,-2.381 -2.387,-3.923 -1.025,-1.546 -2.289,-3.253 -3.791,-5.124 -1.491,-1.87 -3.174,-3.576 -5.044,-5.118 -2.088,-1.726 -4.444,-3.149 -7.051,-4.293 -0.784,-0.344 -1.618,-0.626 -2.455,-0.805 -3.847,-0.828 -7.225,-0.495 -10.134,0.956 -1.877,0.94 -3.441,2.244 -4.699,3.933 -1.27,1.683 -2.25,3.667 -2.953,5.962 -0.698,2.29 -1.049,4.745 -1.049,7.363 0,5.238 0.816,10.402 2.454,15.502 1.639,5.096 3.809,9.937 6.524,14.522 2.709,4.58 5.822,8.792 9.33,12.623 3.502,3.837 7.175,7.182 11.007,10.032 3.837,2.852 7.675,5.073 11.512,6.666 3.832,1.587 7.386,2.387 10.662,2.387 1.87,0 3.089,-0.329 3.645,-0.982 0.56,-0.657 0.844,-1.496 0.844,-2.527 0,-0.748 -0.074,-1.524 -0.21,-2.312 -0.141,-0.8 -0.216,-1.526 -0.216,-2.177 0,-0.657 0.285,-1.173 0.845,-1.548 2.058,2.154 3.861,3.531 5.402,4.144 1.542,0.606 3.015,1.003 4.416,1.19"
             style="fill:#ffffff;fill-opacity:1;fill-rule:nonzero;stroke:none"
             id="path66"
             inkscape:connector-curvature="0" /></g><g
           id="g68"
           transform="translate(62.1943,122.5363)"
           style="fill:#ffffff"><path
             d="m 0,0 v -2.381 h -5.816 v -8.469 h 7.142 v -2.415 H -8.469 V 10.544 H 1.326 V 8.129 H -5.816 V 0 Z"
             style="fill:#ffffff;fill-opacity:1;fill-rule:nonzero;stroke:none"
             id="path70"
             inkscape:connector-curvature="0" /></g><g
           id="g72"
           transform="translate(86.5776,127.3664)"
           style="fill:#ffffff"><path
             d="m 0,0 v -0.646 h -2.517 v 0.782 c 0,2.142 -0.816,3.401 -2.721,3.401 -1.905,0 -2.72,-1.259 -2.72,-3.367 0,-5.34 7.992,-5.851 7.992,-12.551 0,-3.605 -1.735,-5.952 -5.374,-5.952 -3.639,0 -5.34,2.347 -5.34,5.952 v 1.36 h 2.483 v -1.496 c 0,-2.142 0.885,-3.401 2.789,-3.401 1.905,0 2.789,1.259 2.789,3.401 0,5.306 -7.959,5.816 -7.959,12.517 0,3.673 1.701,5.951 5.272,5.951 C -1.701,5.951 0,3.604 0,0"
             style="fill:#ffffff;fill-opacity:1;fill-rule:nonzero;stroke:none"
             id="path74"
             inkscape:connector-curvature="0" /></g><g
           id="g76"
           transform="translate(102.6631,109.2717)"
           style="fill:#ffffff"><path
             d="m 0,0 v 21.394 h -4.387 v 2.415 H 7.041 V 21.394 H 2.653 L 2.653,0 Z"
             style="fill:#ffffff;fill-opacity:1;fill-rule:nonzero;stroke:none"
             id="path78"
             inkscape:connector-curvature="0" /></g><g
           id="g80"
           transform="translate(130.5503,138.0119)"
           style="fill:#ffffff"><path
             d="M 0,0 -3.163,-3.504 H -5 L -2.619,0 Z m 1.837,-22.992 c 0,-3.606 -1.667,-6.021 -5.34,-6.021 -3.64,0 -5.306,2.415 -5.306,6.021 v 18.06 h 2.619 v -18.196 c 0,-2.143 0.85,-3.435 2.789,-3.435 1.904,0 2.755,1.292 2.755,3.435 v 18.196 h 2.483 z"
             style="fill:#ffffff;fill-opacity:1;fill-rule:nonzero;stroke:none"
             id="path82"
             inkscape:connector-curvature="0" /></g><g
           id="g84"
           transform="translate(150.8525,111.6867)"
           style="fill:#ffffff"><path
             d="m 0,0 c 1.905,0 2.823,1.19 2.823,3.367 v 12.244 c 0,2.177 -0.918,3.368 -2.857,3.368 H -2.891 L -2.891,0 Z m 0.034,21.394 c 3.707,0 5.408,-2.246 5.408,-5.918 V 3.469 c 0,-3.639 -1.701,-5.884 -5.408,-5.884 h -5.578 v 23.809 z"
             style="fill:#ffffff;fill-opacity:1;fill-rule:nonzero;stroke:none"
             id="path86"
             inkscape:connector-curvature="0" /></g><path
           d="m 171.733,109.272 h -2.653 v 23.809 h 2.653 z"
           style="fill:#ffffff;fill-opacity:1;fill-rule:nonzero;stroke:none"
           id="path88"
           inkscape:connector-curvature="0" /><g
           id="g90"
           transform="translate(187.1729,114.884)"
           style="fill:#ffffff"><path
             d="m 0,0 c 0,-2.177 0.918,-3.436 2.823,-3.436 1.939,0 2.823,1.259 2.823,3.436 v 12.584 c 0,2.143 -0.884,3.436 -2.823,3.436 C 0.918,16.02 0,14.727 0,12.584 Z m -2.619,12.448 c 0,3.639 1.803,5.986 5.442,5.986 3.673,0 5.476,-2.347 5.476,-5.986 V 0.136 c 0,-3.606 -1.803,-5.987 -5.476,-5.987 -3.639,0 -5.442,2.381 -5.442,5.987 z"
             style="fill:#ffffff;fill-opacity:1;fill-rule:nonzero;stroke:none"
             id="path92"
             inkscape:connector-curvature="0" /></g><g
           id="g94"
           transform="translate(250.3267,111.6867)"
           style="fill:#ffffff"><path
             d="m 0,0 c 1.905,0 2.823,1.19 2.823,3.367 v 12.244 c 0,2.177 -0.918,3.368 -2.857,3.368 H -2.891 L -2.891,0 Z m 0.034,21.394 c 3.707,0 5.408,-2.246 5.408,-5.918 V 3.469 c 0,-3.639 -1.701,-5.884 -5.408,-5.884 h -5.578 v 23.809 z"
             style="fill:#ffffff;fill-opacity:1;fill-rule:nonzero;stroke:none"
             id="path96"
             inkscape:connector-curvature="0" /></g><g
           id="g98"
           transform="translate(277.0234,122.5363)"
           style="fill:#ffffff"><path
             d="m 0,0 v -2.381 h -5.816 v -8.469 h 7.142 v -2.415 H -8.469 V 10.544 H 1.326 V 8.129 H -5.816 V 0 Z"
             style="fill:#ffffff;fill-opacity:1;fill-rule:nonzero;stroke:none"
             id="path100"
             inkscape:connector-curvature="0" /></g><g
           id="g102"
           transform="translate(329.9736,109.2717)"
           style="fill:#ffffff"><path
             d="m 0,0 h -2.381 v 23.809 h 3.367 l 5.51,-17.21 v 17.21 H 8.843 V 0 H 6.088 L 0,19.251 Z"
             style="fill:#ffffff;fill-opacity:1;fill-rule:nonzero;stroke:none"
             id="path104"
             inkscape:connector-curvature="0" /></g><g
           id="g106"
           transform="translate(354.3232,114.884)"
           style="fill:#ffffff"><path
             d="m 0,0 c 0,-2.144 0.85,-3.436 2.789,-3.436 1.904,0 2.755,1.292 2.755,3.436 V 18.196 H 8.027 V 0.136 c 0,-3.606 -1.667,-6.021 -5.34,-6.021 -3.64,0 -5.306,2.415 -5.306,6.021 v 18.06 H 0 Z"
             style="fill:#ffffff;fill-opacity:1;fill-rule:nonzero;stroke:none"
             id="path108"
             inkscape:connector-curvature="0" /></g><g
           id="g110"
           transform="translate(378.7412,109.2717)"
           style="fill:#ffffff"><path
             d="m 0,0 v 21.394 h -4.387 v 2.415 H 7.041 V 21.394 H 2.653 L 2.653,0 Z"
             style="fill:#ffffff;fill-opacity:1;fill-rule:nonzero;stroke:none"
             id="path112"
             inkscape:connector-curvature="0" /></g><g
           id="g114"
           transform="translate(402.5474,121.8557)"
           style="fill:#ffffff"><path
             d="M 0,0 C 2.108,0 3.367,0.681 3.367,3.266 V 5.544 C 3.367,7.687 2.584,8.81 0.612,8.81 H -1.973 V 0 Z m 0.68,11.225 c 3.741,0 5.306,-1.906 5.306,-5.443 V 3.844 C 5.986,1.225 5.067,-0.408 3.027,-1.054 5.204,-1.7 6.02,-3.469 6.02,-6.02 v -3.707 c 0,-1.054 0.034,-2.041 0.476,-2.857 H 3.809 c -0.306,0.681 -0.442,1.292 -0.442,2.891 v 3.741 c 0,2.687 -1.259,3.538 -3.469,3.538 h -1.871 v -10.17 h -2.653 v 23.809 z"
             style="fill:#ffffff;fill-opacity:1;fill-rule:nonzero;stroke:none"
             id="path116"
             inkscape:connector-curvature="0" /></g><path
           d="m 424.244,109.272 h -2.653 v 23.809 h 2.653 z"
           style="fill:#ffffff;fill-opacity:1;fill-rule:nonzero;stroke:none"
           id="path118"
           inkscape:connector-curvature="0" /><g
           id="g120"
           transform="translate(447.7793,127.3322)"
           style="fill:#ffffff"><path
             d="m 0,0 v -2.143 h -2.517 v 2.279 c 0,2.142 -0.85,3.435 -2.789,3.435 -1.905,0 -2.789,-1.293 -2.789,-3.435 v -12.584 c 0,-2.144 0.884,-3.436 2.789,-3.436 1.939,0 2.789,1.292 2.789,3.436 v 3.094 H 0 v -2.959 c 0,-3.401 -1.53,-5.748 -4.796,-5.952 v -1.054 c 1.599,0 2.518,-0.646 2.518,-1.735 0,-1.36 -1.191,-2.176 -3.232,-2.176 -1.972,0 -3.129,0.782 -3.129,2.108 v 0.272 h 1.735 v -0.238 c 0,-0.544 0.509,-0.918 1.394,-0.986 0.918,0 1.462,0.408 1.462,1.089 0,0.646 -0.611,1.02 -1.666,1.02 h -0.307 v 1.7 c -3.196,0.239 -4.693,2.585 -4.693,5.952 V 0 c 0,3.605 1.701,5.985 5.34,5.985 C -1.7,5.985 0,3.605 0,0"
             style="fill:#ffffff;fill-opacity:1;fill-rule:nonzero;stroke:none"
             id="path122"
             inkscape:connector-curvature="0" /></g><g
           id="g124"
           transform="translate(463.5234,116.3459)"
           style="fill:#ffffff"><path
             d="M 0,0 H 5.306 L 2.619,13.741 Z m 4.218,19.999 c 0.578,0.034 1.019,0.307 1.36,1.021 L 6.904,20.102 C 6.36,18.774 5.51,18.162 4.489,18.162 3.129,18.129 2.415,19.148 1.36,19.148 c -0.612,0 -1.054,-0.237 -1.428,-1.019 l -1.327,0.918 c 0.544,1.394 1.429,1.938 2.483,1.973 1.394,0 2.109,-1.021 3.13,-1.021 M -0.34,-2.278 -1.259,-7.074 H -3.707 L 0.851,16.734 H 4.693 L 9.251,-7.074 H 6.598 L 5.68,-2.278 Z"
             style="fill:#ffffff;fill-opacity:1;fill-rule:nonzero;stroke:none"
             id="path126"
             inkscape:connector-curvature="0" /></g><g
           id="g128"
           transform="translate(487.5674,114.884)"
           style="fill:#ffffff"><path
             d="m 0,0 c 0,-2.177 0.918,-3.436 2.823,-3.436 1.939,0 2.823,1.259 2.823,3.436 v 12.584 c 0,2.143 -0.884,3.436 -2.823,3.436 C 0.918,16.02 0,14.727 0,12.584 Z m -2.619,12.448 c 0,3.639 1.803,5.986 5.442,5.986 3.673,0 5.476,-2.347 5.476,-5.986 V 0.136 c 0,-3.606 -1.803,-5.987 -5.476,-5.987 -3.639,0 -5.442,2.381 -5.442,5.987 z"
             style="fill:#ffffff;fill-opacity:1;fill-rule:nonzero;stroke:none"
             id="path130"
             inkscape:connector-curvature="0" /></g><g
           id="g132"
           transform="translate(553.6455,122.5363)"
           style="fill:#ffffff"><path
             d="m 0,0 v -2.381 h -5.815 v -8.469 h 7.142 v -2.415 H -8.469 V 10.544 H 1.327 V 8.129 H -5.815 V 0 Z"
             style="fill:#ffffff;fill-opacity:1;fill-rule:nonzero;stroke:none"
             id="path134"
             inkscape:connector-curvature="0" /></g><g
           id="g136"
           transform="translate(614.7588,127.3322)"
           style="fill:#ffffff"><path
             d="m 0,0 v -2.143 h -2.517 v 2.279 c 0,2.142 -0.85,3.435 -2.789,3.435 -1.905,0 -2.789,-1.293 -2.789,-3.435 v -12.584 c 0,-2.144 0.884,-3.436 2.789,-3.436 1.939,0 2.789,1.292 2.789,3.436 v 3.094 H 0 v -2.959 c 0,-3.605 -1.7,-5.986 -5.374,-5.986 -3.639,0 -5.34,2.381 -5.34,5.986 V 0 c 0,3.605 1.701,5.985 5.34,5.985 C -1.7,5.985 0,3.605 0,0"
             style="fill:#ffffff;fill-opacity:1;fill-rule:nonzero;stroke:none"
             id="path138"
             inkscape:connector-curvature="0" /></g><g
           id="g140"
           transform="translate(629.9932,114.884)"
           style="fill:#ffffff"><path
             d="m 0,0 c 0,-2.144 0.851,-3.436 2.789,-3.436 1.905,0 2.755,1.292 2.755,3.436 V 18.196 H 8.027 V 0.136 c 0,-3.606 -1.667,-6.021 -5.339,-6.021 -3.64,0 -5.306,2.415 -5.306,6.021 v 18.06 H 0 Z"
             style="fill:#ffffff;fill-opacity:1;fill-rule:nonzero;stroke:none"
             id="path142"
             inkscape:connector-curvature="0" /></g><g
           id="g144"
           transform="translate(650.9082,109.2717)"
           style="fill:#ffffff"><path
             d="M 0,0 V 23.809 H 2.653 V 2.415 H 9.455 V 0 Z"
             style="fill:#ffffff;fill-opacity:1;fill-rule:nonzero;stroke:none"
             id="path146"
             inkscape:connector-curvature="0" /></g><path
           d="m 675.326,109.272 h -2.653 v 23.809 h 2.653 z"
           style="fill:#ffffff;fill-opacity:1;fill-rule:nonzero;stroke:none"
           id="path148"
           inkscape:connector-curvature="0" /><g
           id="g150"
           transform="translate(690.6973,109.2717)"
           style="fill:#ffffff"><path
             d="m 0,0 h -2.381 v 23.809 h 3.367 l 5.51,-17.21 v 17.21 H 8.844 L 8.844,0 H 6.089 L 0,19.251 Z"
             style="fill:#ffffff;fill-opacity:1;fill-rule:nonzero;stroke:none"
             id="path152"
             inkscape:connector-curvature="0" /></g><g
           id="g154"
           transform="translate(721.5439,137.842)"
           style="fill:#ffffff"><path
             d="M 0,0 -3.13,-3.504 H -5 L -2.619,0 Z m -5.986,-21.496 h 5.305 l -2.686,13.741 z m -0.34,-2.278 -0.919,-4.796 h -2.448 l 4.557,23.808 h 3.843 L 3.265,-28.57 H 0.611 l -0.918,4.796 z"
             style="fill:#ffffff;fill-opacity:1;fill-rule:nonzero;stroke:none"
             id="path156"
             inkscape:connector-curvature="0" /></g><g
           id="g158"
           transform="translate(741.7783,121.8557)"
           style="fill:#ffffff"><path
             d="M 0,0 C 2.108,0 3.367,0.681 3.367,3.266 V 5.544 C 3.367,7.687 2.585,8.81 0.612,8.81 H -1.973 V 0 Z m 0.68,11.225 c 3.741,0 5.306,-1.906 5.306,-5.443 V 3.844 C 5.986,1.225 5.067,-0.408 3.026,-1.054 5.203,-1.7 6.02,-3.469 6.02,-6.02 v -3.707 c 0,-1.054 0.034,-2.041 0.476,-2.857 H 3.809 c -0.306,0.681 -0.442,1.292 -0.442,2.891 v 3.741 c 0,2.687 -1.259,3.538 -3.47,3.538 h -1.87 v -10.17 h -2.653 v 23.809 z"
             style="fill:#ffffff;fill-opacity:1;fill-rule:nonzero;stroke:none"
             id="path160"
             inkscape:connector-curvature="0" /></g><path
           d="m 763.51,109.272 h -2.653 v 23.809 h 2.653 z"
           style="fill:#ffffff;fill-opacity:1;fill-rule:nonzero;stroke:none"
           id="path162"
           inkscape:connector-curvature="0" /><g
           id="g164"
           transform="translate(779.5615,116.3459)"
           style="fill:#ffffff"><path
             d="M 0,0 H 5.306 L 2.619,13.741 Z M -0.34,-2.278 -1.259,-7.074 H -3.707 L 0.851,16.734 H 4.693 L 9.251,-7.074 H 6.598 L 5.68,-2.278 Z"
             style="fill:#ffffff;fill-opacity:1;fill-rule:nonzero;stroke:none"
             id="path166"
             inkscape:connector-curvature="0" /></g><g
           id="g168"
           transform="translate(369.2783,393.3244)"
           style="fill:#ffffff"><path
             d="M 0,0 C -10.673,70.301 120.106,80.515 114.359,-1.275 110.709,54.544 15.225,71.389 0,0"
             style="fill:#ffffff;fill-opacity:1;fill-rule:nonzero;stroke:none"
             id="path170"
             inkscape:connector-curvature="0" /></g></g></g></g></svg>