<?xml version="1.0" standalone="no"?>
<!DOCTYPE svg PUBLIC "-//W3C//DTD SVG 20010904//EN"
 "http://www.w3.org/TR/2001/REC-SVG-20010904/DTD/svg10.dtd">
<svg version="1.0" xmlns="http://www.w3.org/2000/svg"
 width="661.000000pt" height="661.000000pt" viewBox="0 0 661.000000 661.000000"
 preserveAspectRatio="xMidYMid meet">
<metadata>
Created by potrace 1.14, written by Peter Selinger 2001-2017
</metadata>
<g transform="translate(0.000000,661.000000) scale(0.100000,-0.100000)"
fill="#000000" stroke="none">
<path d="M3266 6190 c-146 -132 -206 -180 -224 -180 -14 0 -119 57 -247 135
-207 126 -252 146 -281 127 -7 -4 -67 -104 -134 -222 -68 -118 -133 -226 -146
-239 l-23 -24 -258 61 c-142 34 -267 62 -279 62 -41 0 -53 -31 -106 -290 -29
-143 -59 -261 -68 -271 -13 -16 -50 -22 -280 -40 -186 -14 -272 -25 -288 -35
-28 -19 -28 -34 3 -304 31 -266 31 -276 3 -294 -13 -8 -124 -56 -248 -107
-124 -50 -233 -98 -242 -107 -10 -8 -18 -27 -18 -42 0 -15 47 -130 105 -256
58 -126 105 -240 105 -252 0 -27 5 -21 -240 -229 -147 -125 -175 -154 -178
-178 -2 -26 20 -54 178 -225 99 -107 183 -205 186 -217 5 -18 -26 -74 -132
-245 -76 -122 -139 -232 -142 -244 -2 -12 0 -30 5 -39 5 -9 115 -76 244 -149
217 -122 234 -134 237 -162 2 -16 -24 -142 -58 -279 -60 -248 -60 -250 -42
-275 17 -22 44 -30 263 -76 306 -63 296 -61 303 -79 3 -9 15 -134 26 -278 20
-254 22 -263 46 -284 17 -16 33 -21 52 -18 85 15 499 55 517 51 18 -5 41 -52
125 -253 56 -137 110 -254 118 -260 9 -7 26 -13 39 -13 13 0 129 47 257 105
227 102 259 113 282 97 6 -4 84 -92 173 -197 90 -104 171 -196 182 -204 10 -7
29 -11 41 -8 13 4 110 85 216 181 106 96 202 178 212 181 24 8 20 10 276 -146
116 -71 221 -129 232 -129 11 0 27 7 36 15 8 8 65 104 127 212 133 234 153
263 182 263 12 0 136 -27 275 -61 236 -56 255 -59 277 -45 29 19 24 1 85 296
37 184 55 249 69 260 14 12 78 20 272 34 140 10 264 22 276 27 43 16 44 32 12
314 -30 260 -30 268 -12 285 10 10 119 59 243 110 124 50 235 98 247 106 44
28 39 48 -78 304 -87 192 -109 250 -102 267 4 12 99 98 209 191 111 94 204
178 207 186 12 30 -11 60 -187 251 -130 141 -176 197 -176 215 0 15 53 112
134 242 73 119 136 223 139 232 15 38 -16 62 -245 191 -143 81 -234 138 -240
151 -8 17 4 82 51 273 33 139 61 260 61 270 0 39 -35 52 -300 106 -145 30
-268 59 -274 65 -6 6 -20 129 -32 282 -21 255 -23 273 -44 290 -27 22 -4 23
-305 -11 -137 -15 -259 -25 -270 -21 -15 6 -46 71 -119 246 -96 233 -124 284
-154 284 -8 0 -127 -50 -263 -111 -191 -86 -254 -110 -268 -103 -11 5 -95 97
-187 204 -92 107 -172 198 -178 202 -36 24 -63 6 -260 -172z"/>
</g>
</svg>
