<?xml version="1.0" encoding="utf-8"?>
<!-- Generator: Adobe Illustrator 23.0.2, SVG Export Plug-In . SVG Version: 6.00 Build 0)  -->
<svg version="1.1" id="Layer_1" xmlns="http://www.w3.org/2000/svg" xmlns:xlink="http://www.w3.org/1999/xlink" x="0px" y="0px"
	 viewBox="0 0 306.1 305" style="enable-background:new 0 0 306.1 305;" xml:space="preserve">
<style type="text/css">
	.st0{fill:#FFFFFF;}
	.st1{fill:#726D54;}
</style>
<g>
	<path class="st0" d="M153.5,120.9c-2.2,0.9-4.2,2-6.1,3.1c-1.2-1.1-2.8-1.7-4.5-1.7c-9.9,0-16.8,5.8-24.8,10.9
		c-1.9,1.2-3.8,2.4-5.7,3.6c5.5-5.2,11.2-10.2,15.8-15.1c3.2-3.5,1.8-8.1-1.4-10.1c1.6-2.1,3.2-4.2,4.8-6.3
		c5.7-7.6,14.5-15.7,16.6-25.2c1.2-5.7-4.9-11.4-10.3-8c-18.2,11.6-30.9,28.5-45.1,44.2c0.1-0.8,0.2-1.6,0.3-2.3
		c0.3-3.9-5.7-6.6-8.2-3.4c-11,14-18.8,30.1-27.1,45.9c-1.8,2.1-3.6,4.2-5.4,6.3c-8.3,9.7-18.2,19.9-23.9,31.5
		c-2.1,4.2,1.4,10.6,6.7,8.7c3.3-1.2,6.5-2.7,9.6-4.3c1.9,2.6,5.4,4.2,8.4,1.9c12.5-9.5,25.7-18.5,39.1-26.8c0.1,0,0.1-0.1,0.2-0.1
		c0,0,0,0,0,0c1.2-0.7,2.4-1.5,3.6-2.3c4.8-3.1,9.5-6.1,14.7-8.5c7.2-1.8,12.8-7.2,19.1-11.1c2.3,1.1,5.3,0.9,8-1.5
		c7.1-6.2,16.4-10.2,22.9-17C165.5,128.3,160.8,118,153.5,120.9z M80,154.2c-3.9,2-7.7,4-11.5,6.2c0.3-0.4,0.6-0.7,0.9-1.1
		c2.5-3.3,5.3-7,8-10.9C77.2,150.6,78.3,152.8,80,154.2z"/>
	<g>
		<g>
			<g>
				<path class="st1" d="M30.3,280.1c10.7-4.8,19.4-14.5,11.7-26.1c-3-4.6-7.9-7.3-13.4-7.7c-4.5-0.4-12.8,0-15.2,4.4
					c-0.6,1.1,0,2.4,1.2,2.8c3,1,5.7-0.8,8.7-1.4c4.8-1,9.9-0.6,13.5,3.1c8.7,8.9,0.1,17.6-8,22.4C27.3,278.6,28.7,280.9,30.3,280.1
					L30.3,280.1z"/>
			</g>
		</g>
		<g>
			<g>
				<path class="st1" d="M16.5,252.2c-2-4.7-4-9.2-6.2-13.8c-1.9-4-3.4-8.7-6.5-11.9c-0.9-1-3.1-0.3-2.9,1.2
					c0.6,4.3,3.1,8.2,5.1,12.1c2.4,4.8,5,9.4,7.8,13.9C15,255.4,17.3,253.9,16.5,252.2L16.5,252.2z"/>
			</g>
		</g>
		<g>
			<g>
				<path class="st1" d="M27.4,280.4c2.5,4.9,4.6,9.9,6.4,15c1.2,3.3,1.6,7.1,4.5,9.3c0.9,0.7,2.3,0.1,2.9-0.8
					c0.1-0.2,0.2-0.3,0.3-0.5c0.6-0.9,0-2-1-2.3c-1.1-0.4-2.1-5.7-2.5-6.8c-0.6-1.7-1.2-3.3-1.9-5c-1.6-3.7-3.7-7.2-5.8-10.6
					C29.2,276.8,26.4,278.5,27.4,280.4L27.4,280.4z"/>
			</g>
		</g>
		<g>
			<g>
				<path class="st1" d="M2.4,227.8c27.4-7.4,53.3-19.1,78.2-32.7c25.1-13.6,50.4-26.2,76.2-38.4c12.5-5.9,24.9-12.1,36.9-19
					c11.7-6.8,22.7-14.5,33.8-22.1c10.9-7.5,22-14.9,33.8-21.1c2.6-1.3,5.1-2.6,7.8-3.8c4.1-1.8,7.9-4,11.1,0.2
					c4,5.3,6.6,12.5,9,18.6c5.5,14.4,8.5,29.7,8.8,45.1c0.1,6.8-0.2,13.6-2,20.2c-1.7,6.3-5.1,11.6-8.8,16.9
					c-1.8,2.7,1.7,5.9,4.4,4.4c10.2-6.1,13.2-19.4,14.2-30.5c1.3-14-0.4-28.5-3.7-42.1c-1.7-6.9-3.9-13.7-6.7-20.3
					c-2.6-6.2-5.3-13.3-9.7-18.5c-9-10.4-23.9,0-33.1,5.1c-25.6,14.3-48.3,33.1-74.2,47c-26.7,14.2-55.1,25.2-81.2,40.5
					c-15.4,9-30.5,18.5-46.4,26.6c-15.9,8.1-32.3,15.1-48.9,21.5C0.4,226.1,0.9,228.2,2.4,227.8L2.4,227.8z"/>
			</g>
		</g>
		<g>
			<g>
				<path class="st1" d="M37.9,303.3c9.4,0.5,18.8-2.5,27.7-5c9.1-2.5,18.2-5.2,27.2-8.1c18.1-5.7,36-11.9,53.6-18.7
					c35-13.4,69.2-29,102.4-46.5c9.4-4.9,18.8-9.9,27.7-15.7c4-2.6,7.8-5.4,11.5-8.4c3.3-2.7,6.9-5.2,6.7-9.7
					c-0.1-3-5.1-4.1-5.6-0.8c-0.5,3.7-7.8,8.1-10.5,10.1c-3.6,2.7-7.4,5.1-11.2,7.4c-7.6,4.6-15.3,8.8-23.1,12.9
					c-15.6,8.4-31.5,16.2-47.5,23.7C164,259.7,130.3,272.9,96,284.1c-9.9,3.2-19.8,6.3-29.8,9.1c-9.5,2.7-19.7,4.4-28.7,8.5
					C36.7,302.1,37.2,303.3,37.9,303.3L37.9,303.3z"/>
			</g>
		</g>
		<g>
			<g>
				<path class="st1" d="M3.9,227.7c0.8-6.8,7.8-13.8,11.6-19.4c4-5.9,7.8-11.8,11.7-17.8c7.3-11.5,14.4-23.1,21.5-34.7
					c14.4-23.8,28.4-47.8,43.2-71.3c15-23.7,30.8-46.9,48.7-68.6c4.5-5.5,8.4-8.9,15.8-9.5c7.8-0.7,15.9,0,23.6,1.6
					c13.6,2.8,26.3,8.4,38,15.8c13.1,8.3,24.7,18.8,35.5,30c11.3,11.8,20.8,24.9,31.2,37.4c2,2.4,5.9-0.7,4.3-3.3
					c-7.6-12.7-18-24.3-28.1-35.1c-9.8-10.5-20.3-20.3-31.9-28.7C217,15.7,203.9,8.7,189.9,4.6c-12.4-3.6-28.9-6.8-41.5-2.5
					c-5.8,2-9.4,6.7-13.2,11.3c-4.4,5.4-8.8,11-13,16.6c-9,12-17.6,24.4-25.8,37c-16.3,25-31.3,50.8-46.5,76.5
					c-8.6,14.5-17.3,29-26.3,43.2c-4.6,7.2-9.2,14.4-14,21.5c-4,6-9.6,12-9.7,19.6C0,230.3,3.6,230.1,3.9,227.7L3.9,227.7z"/>
			</g>
		</g>
		<g>
			<g>
				<path class="st1" d="M217.3,138.9c-6.7,8.9-6.2,25.4,5.9,29.5c11.6,3.9,24.1-5.4,29.2-15.4c5.9-11.6-4.1-22.7-15.6-24.4
					c-5.4-0.8-10.9,0.5-15.3,3.7c-3.5,2.5-8.2,7.9-6.6,12.5c0.3,0.9,1.4,1.2,2.1,0.6c2.7-2.2,3.8-5.8,6.6-8.2c3.1-2.6,7-4,11.1-3.8
					c10,0.5,18.6,9.9,12.3,19.4c-4.4,6.6-12.7,13.6-21.2,11.5c-11-2.7-9.1-16.5-6.9-24.7C219,138.6,217.8,138.2,217.3,138.9
					L217.3,138.9z"/>
			</g>
		</g>
		<g>
			<g>
				<path class="st1" d="M84.2,222.1c1,9.4,12.4,10.4,19.1,6c7.1-4.6,7-15.5-1.4-18.5c-7.6-2.7-20.6,0.4-20,10.4
					c0.7,10.2,13.2,13.7,20.7,8.4c1.2-0.9,0.5-2.8-1-2.4c-5.4,1.3-13.3,2.6-15.5-4.3c-2.1-6.8,6.1-9.3,11.3-9.5
					c2.9-0.1,6,0.7,7.7,3.2c2.3,3.4,0.9,8.2-1.9,10.8c-4.8,4.5-19.7,6-18.9-4.1C84.6,221.9,84.2,221.9,84.2,222.1L84.2,222.1z"/>
			</g>
		</g>
		<g>
			<g>
				<path class="st1" d="M150.6,204.4c-0.4,6.2,2.7,11.3,9.5,8.4c6.6-2.8,9.1-10.8,7.2-17.3c-1.7-5.9-7.5-8.8-12.9-5.2
					c-5,3.4-7.1,12.9-3,17.6c0.5,0.6,1.5,0.2,1.7-0.4c1-2.9-0.4-6.1,0.2-9.2c1-4.9,7.2-9.2,10.3-3.2c2,3.9,1.5,9.1-1.2,12.5
					c-1.6,2-5.9,5.4-8.6,2.3c-1.1-1.2-0.8-3.8-0.7-5.3C153.2,202.8,150.7,202.8,150.6,204.4L150.6,204.4z"/>
			</g>
		</g>
		<g>
			<g>
				<path class="st1" d="M235.4,194.7c-1.9,3.7,2,6.6,5.5,6.2c3.9-0.5,8.2-3.8,7.7-8.1c-0.5-4-4.8-6-8.4-5c-4,1.1-6.9,6-5.8,10
					c0.3,0.9,1.7,1.2,2.1,0.3c1.3-3,2.9-8.8,7.6-6.4c2.3,1.2,1.3,4-0.3,5.4c-1,0.9-2.5,1.7-4,1.7c-2,0.1-3.8-1.5-3-3.5
					C237.1,194.5,235.8,194,235.4,194.7L235.4,194.7z"/>
			</g>
		</g>
		<g>
			<g>
				<path class="st1" d="M270.3,140.6c-1.3,1.6-1.1,3.8,0.3,5.2c1.6,1.6,4.3,1.4,6,0.1c4.1-3.1,2.2-11.6-3.4-11.7
					c-5.7-0.1-5.4,8.5-2.4,11.5c2.1,2.1,4.9,0.8,5.5-1.8c0.6-2.6,0.5-5.7-1.5-7.7c-0.9-0.9-2.2-0.6-2.8,0.4
					c-1.6,2.3-1.6,5.1-0.2,7.4c1.1,2,4.1,0.2,3-1.8c-0.7-1.3-0.6-2.6,0.3-3.8c-0.9,0.1-1.9,0.2-2.8,0.4c0.8,0.8,0.7,2.1,0.6,3.2
					c0,0.3-0.3,1.1-0.2,1.3c-0.2,0.4,0.1,0.4,0.7,0c-0.1-0.1-0.2-0.3-0.3-0.4c-0.1-1.1-1.6-3.8-0.1-4.6c0.9-0.5,1.9,0.7,2.3,1.4
					c0.6,1,0.8,2.4,0.4,3.5c-0.4,1.1-1.5,2.1-2.8,2c-1.7-0.1-2.5-2.1-1.6-3.5C271.8,140.7,270.8,140,270.3,140.6L270.3,140.6z"/>
			</g>
		</g>
		<g>
			<g>
				<path class="st1" d="M267,107.9c-1.3,1.7,1.5,3.5,3,2.7c1.1-0.5,1.4-1.9,1.2-3c-0.3-1.3-1.2-2.2-2.5-2.8
					c-0.9-0.4-1.9,0.6-1.9,1.4c0,2.2,1.1,5.3,3.9,4.8c2.5-0.5,2.9-3.2,2.2-5.3c-0.4-1.1-1-2.4-2.1-3c-1.3-0.8-2.8-0.6-3.9,0.4
					c-1,0.9-1.4,2.4-1.1,3.7c0.4,1.6,1.3,2.7,2.9,3c0.8,0.2,1.9-0.4,1.8-1.4c0-0.6,0-1.2-0.3-1.8c-0.1-0.2-0.3-0.5-0.5-0.7
					c-0.3-0.4,0.1,0-0.1-0.1c-1.3-0.4-0.6,0.4-0.4,1c0.1,0.3,0.1,0.6,0.2,0.8c0,0-0.2,0.2,0.1,0c0.1-0.1,0.3-0.2,0.4-0.3
					c0.1-0.1,0.3,0.1,0.3,0c0,0-0.3-0.5-0.3-0.5c-0.2-0.4-0.2-0.7-0.3-1.1c-0.6,0.6-1.2,1.2-1.8,1.8c0.4,0.1,1.2,0.5,0.9,1.1
					c-0.2,0.6-1.3,0-1.1-0.6C267.9,107.8,267.3,107.6,267,107.9L267,107.9z"/>
			</g>
		</g>
		<g>
			<g>
				<path class="st1" d="M61.4,283.9c0.4,1.7,3.5,1.7,4.9,1.5c2-0.3,4-1.4,5.1-3.1c1.2-1.9,0.9-4.6-1.6-5.2c-2-0.5-5,0.8-6.4,2.1
					c-1.9,1.7-2.1,4.8-0.2,6.5c2.2,2,5.2,0.5,6.8-1.4c1.4-1.6,2.7-4.1,1.6-6.3c-1.3-2.7-4.5-2-6.6-0.8c-2.5,1.3-4.4,4.8-2.1,7.2
					c1.8,1.9,5.9,1.1,5.9-1.9c-0.1-1.9-2.2-2.6-3.5-1.4c-0.3,0.2-0.3,0.2,0,0.1c0.3,0.2,0.7,0.3,1,0.5c0.2-0.1,0.7-0.6,0.9-0.7
					c0.3-0.2,0.6-0.3,0.9-0.4c-0.2-0.3-0.3-0.5-0.5-0.8c0,0-0.3,0.7-0.3,0.8c-0.2,0.4-1.5,1.5-1.4,1.7c0.2,0.6,0.2-0.3,0.3-0.4
					c0.4-0.4,0.7-0.6,1.2-0.9c0.6-0.3,2-1.2,1.2,0.1c-0.5,0.8-1.3,1.4-2.2,1.8c-0.9,0.4-1.9,0.6-2.9,0.4c-0.8-0.1-1.3-0.4-2-0.1
					C61.4,283.4,61.4,283.7,61.4,283.9L61.4,283.9z"/>
			</g>
		</g>
		<g>
			<g>
				<path class="st1" d="M95.4,255.2c0.4,0.4,0.7,0.8,1.1,1.1c0.6,0.5,1.4-0.2,1.4-0.8c0.1-1-0.5-1.9-1.4-2.4
					c-0.2,0.8-0.4,1.6-0.6,2.4c-0.2-0.1-0.5-0.3-0.7-0.4c0-0.1-0.1-0.3-0.1-0.4c0-0.1,0-0.1,0-0.2c1-0.9,1.6-1,2-0.3
					c0.3,0.5,0.1,0,0-0.1c-0.1-0.2-0.2-0.4-0.4-0.6c-0.8-0.7-1.9-0.6-2.5,0.3c0,0,0,0,0,0.1c-0.3,0.5-0.3,1.2,0,1.7
					c0.4,0.7,1.1,1.1,1.9,1.2c0.8,0,1.6-0.6,1.8-1.3c0.4-1.4-0.8-2.8-2.3-2.4c-0.5,0.1-0.9,0.7-0.9,1.2c0,0.5,0.4,1.1,0.9,1.2
					c0.3,0,0.4,0.1,0.5,0.4c0.4-0.4,0.8-0.8,1.2-1.2c-0.5-0.1-1,0-1.5,0C95.3,254.5,95.1,255,95.4,255.2L95.4,255.2z"/>
			</g>
		</g>
		<g>
			<g>
				<path class="st1" d="M80.5,274.7c1.1,1.2,2.5,2.2,3.9,2.9c1.1,0.5,2.4-0.3,2.1-1.6c-0.6-2.4-2.2-4.5-4.5-5.5
					c-1.4-0.7-2.8,0.4-2.6,2c0.5,2.7,2.6,4.9,5.3,5.5c1.3,0.3,2.4-0.6,2.5-1.9c0.2-3-1.8-5.7-4.7-6.6c-1.5-0.5-2.8,1.1-2.4,2.4
					c0.4,1.9,1.3,3.5,3.2,4.3c1.4,0.6,3.1-0.7,2.2-2.2c-0.6-1-1.2-2.1-1.5-3.2c-0.8,0.8-1.6,1.6-2.4,2.4c1.2,0.4,1.9,1.5,1.8,2.8
					c0.8-0.6,1.6-1.3,2.5-1.9c-1.4-0.3-2.6-1.3-2.9-2.7c-0.7,0.7-1.4,1.4-2.1,2.1c1.4,0.5,2.5,1.7,3,3.1c0.6-0.6,1.2-1.2,1.8-1.8
					c-1.5-0.3-2.8-0.7-4.1-1.5C80.7,273,80,274,80.5,274.7L80.5,274.7z"/>
			</g>
		</g>
		<g>
			<g>
				<path class="st1" d="M39.2,228.3c-1.1,0.5-1.5,1.8-1.3,2.9c0.2,1.2,1.2,2.1,2.3,2.4c1.4,0.3,2.8-0.2,3.7-1.2
					c1.1-1.1,1.5-2.7,1.5-4.2c0.1-1.1-0.9-1.8-1.9-1.9c-1.5-0.1-3,0.8-3.7,2.2c-0.4,0.7-0.4,1.8,0.3,2.4c0.2,0.2,0.5,0.4,0.8,0.5
					c0.3,0.1,0.5,0.1,0.7,0.1c0.1,0,0.7-0.1-0.1,0c1-0.1,1.6-0.6,1.9-1.5c-0.1,0.3,0,0,0,0c-0.3,0.1,0.3,0,0,0
					c-0.6-0.6-1.3-1.3-1.9-1.9c0,0.8,0,1.9-0.8,2.2c-0.1,0.1-0.5,0.1-0.5,0.1c-0.2-0.2-0.1-0.4,0-0.5
					C41.5,229.2,40.2,227.8,39.2,228.3L39.2,228.3z"/>
			</g>
		</g>
		<g>
			<g>
				<path class="st1" d="M152,206c1.1,1.2,2.2,2.4,3.3,3.6c0.9,0.9,2.2,2.2,3.4,2.4c0.4,0.1,0.9-0.3,0.7-0.7
					c-0.5-1.2-1.9-2.2-2.9-2.9c-1.4-0.9-2.9-1.8-4.4-2.6C152.1,205.6,151.9,205.8,152,206L152,206z"/>
			</g>
		</g>
		<g>
			<g>
				<path class="st1" d="M151.2,202.5c1.7,1.4,3.4,2.8,5,4.3c1.5,1.2,2.9,2.8,4.7,3.7c0.4,0.2,0.6-0.2,0.4-0.5
					c-1.2-1.6-3.2-2.8-4.8-4c-1.6-1.3-3.3-2.6-4.9-3.9C151.4,201.8,150.9,202.2,151.2,202.5L151.2,202.5z"/>
			</g>
		</g>
		<g>
			<g>
				<path class="st1" d="M151.2,199.4c2,1.7,4,3.4,6,5.1c1.7,1.5,3.5,3.4,5.5,4.4c0.4,0.2,1-0.2,0.7-0.7c-1.3-1.8-3.5-2.9-5.2-4.2
					c-2.2-1.6-4.4-3.3-6.7-4.9C151.3,198.9,151,199.3,151.2,199.4L151.2,199.4z"/>
			</g>
		</g>
		<g>
			<g>
				<path class="st1" d="M152.7,198.6c2,1.8,4.1,3.5,6.1,5.3c1.6,1.4,3.2,3.3,5.3,4c0.6,0.2,1.2-0.6,0.9-1.1c-1.1-1.8-3.4-3-5.1-4.2
					c-2.2-1.6-4.3-3.2-6.5-4.7C152.8,197.4,152.3,198.2,152.7,198.6L152.7,198.6z"/>
			</g>
		</g>
		<g>
			<g>
				<path class="st1" d="M154,197.1c2.1,1.7,4.1,3.3,6.2,5c1.6,1.3,3.3,3.1,5.3,3.8c0.5,0.2,0.9-0.4,0.7-0.9c-1.1-1.8-3.3-2.9-5-4.2
					c-2.1-1.6-4.3-3.1-6.4-4.7C154.2,195.8,153.5,196.7,154,197.1L154,197.1z"/>
			</g>
		</g>
		<g>
			<g>
				<path class="st1" d="M154.8,194.8c1.9,1.5,3.8,3,5.7,4.5c1.4,1.1,2.8,2.8,4.6,3c0.4,0,0.7-0.4,0.6-0.7c-0.7-1.7-2.7-2.6-4.1-3.6
					c-2-1.4-4-2.8-6-4.2C155,193.4,154.3,194.4,154.8,194.8L154.8,194.8z"/>
			</g>
		</g>
		<g>
			<g>
				<path class="st1" d="M157.7,193.6c2.6,2.1,5.1,4.4,8,6c0.7,0.4,1.3-0.5,0.8-1.1c-2.3-2.4-5.2-4.2-7.9-6.1
					C157.9,191.9,157,193.1,157.7,193.6L157.7,193.6z"/>
			</g>
		</g>
		<g>
			<g>
				<path class="st1" d="M216.7,156.4c1.9,1.9,3.7,3.8,5.8,5.5c1.7,1.3,3.4,3.1,5.4,3.9c0.4,0.1,0.8-0.4,0.6-0.7
					c-1.2-2-3.6-3.4-5.5-4.8c-1.9-1.5-4.1-2.7-6.1-4.1C216.7,156.1,216.6,156.3,216.7,156.4L216.7,156.4z"/>
			</g>
		</g>
		<g>
			<g>
				<path class="st1" d="M218.4,153.6c5.4,4.2,10.9,8.3,16.3,12.5c0.4,0.3,0.9-0.4,0.4-0.7c-5.5-4-11-8.1-16.5-12.1
					C218.4,153.2,218.3,153.5,218.4,153.6L218.4,153.6z"/>
			</g>
		</g>
		<g>
			<g>
				<path class="st1" d="M216.5,149.5c3.7,2.7,7.4,5.5,11,8.3c2.9,2.3,5.7,5.2,8.9,7c1.1,0.6,2.1-0.8,1.3-1.7
					c-2.6-2.9-6.4-5.1-9.6-7.3c-3.6-2.5-7.3-4.9-11.1-7.3C216.4,148.1,215.9,149,216.5,149.5L216.5,149.5z"/>
			</g>
		</g>
		<g>
			<g>
				<path class="st1" d="M218.2,146.4c3.6,2.7,7.1,5.4,10.7,8.2c3.5,2.6,6.9,6,10.9,7.9c0.8,0.4,1.7-0.6,1-1.3
					c-2.9-3-6.9-5.1-10.4-7.5c-3.9-2.7-7.8-5.3-11.8-8C218.2,145.4,217.8,146.1,218.2,146.4L218.2,146.4z"/>
			</g>
		</g>
		<g>
			<g>
				<path class="st1" d="M220.1,142.8c7.5,5.9,14.8,12.3,22.6,17.8c1.3,0.9,3-1.2,1.7-2.2c-7.6-5.9-15.8-11-23.6-16.5
					C220.3,141.5,219.6,142.4,220.1,142.8L220.1,142.8z"/>
			</g>
		</g>
		<g>
			<g>
				<path class="st1" d="M223.4,139.1c7.1,6.2,14.3,14.1,22.8,18.4c0.9,0.5,1.8-0.7,1.1-1.4c-6.3-7-15.8-12.2-23.5-17.5
					C223.5,138.3,223.1,138.8,223.4,139.1L223.4,139.1z"/>
			</g>
		</g>
		<g>
			<g>
				<path class="st1" d="M228.9,137.9c3.3,2.8,6.6,5.7,9.9,8.5c2.9,2.5,5.8,5.7,9.2,7.4c0.7,0.4,1.3-0.5,0.8-1.1
					c-2.4-3-6.1-5.2-9.2-7.5c-3.5-2.7-6.9-5.3-10.4-8C229,137.2,228.7,137.7,228.9,137.9L228.9,137.9z"/>
			</g>
		</g>
		<g>
			<g>
				<path class="st1" d="M231.6,135.5c3.2,2.5,6.3,5,9.3,7.8c2.6,2.4,5.1,5.7,8.3,7.3c0.7,0.4,1.6-0.4,1.1-1.1
					c-1.7-3-5.2-5.1-7.9-7.2c-3.4-2.6-6.8-5.1-10.4-7.4C231.8,134.6,231.3,135.2,231.6,135.5L231.6,135.5z"/>
			</g>
		</g>
		<g>
			<g>
				<path class="st1" d="M237.5,136.1c3.8,3.1,7.1,6.7,11.1,9.6c0.5,0.4,1.3-0.4,0.9-0.9c-2.9-4.1-6.9-7.2-10.9-10.2
					C237.8,134,236.7,135.4,237.5,136.1L237.5,136.1z"/>
			</g>
		</g>
		<g>
			<g>
				<path class="st1" d="M236.4,195.5c0.8,0.7,1.6,1.5,2.4,2.2c0.8,0.7,1.4,1.4,2.4,1.8c0.7,0.3,1.5-0.7,1-1.4
					c-0.6-0.9-1.5-1.3-2.3-1.9c-0.9-0.6-1.8-1.2-2.7-1.8C236.5,194,235.8,194.9,236.4,195.5L236.4,195.5z"/>
			</g>
		</g>
		<g>
			<g>
				<path class="st1" d="M237.5,194.2c1.7,1.6,3.6,3,5.7,4c1.2,0.6,2.3-1.2,1.1-1.9c-1.9-1-3.7-2.2-5.2-3.7
					C238,191.7,236.4,193.2,237.5,194.2L237.5,194.2z"/>
			</g>
		</g>
		<g>
			<g>
				<path class="st1" d="M239.2,191.6c1,0.9,1.9,1.7,2.9,2.6c0.9,0.8,1.7,1.8,2.8,2.3c0.5,0.3,1.3-0.3,0.9-0.9
					c-0.7-1-1.8-1.7-2.7-2.4c-1-0.8-2.1-1.6-3.1-2.4C239.4,190.3,238.6,191,239.2,191.6L239.2,191.6z"/>
			</g>
		</g>
		<g>
			<g>
				<path class="st1" d="M83,221.1c1.2,1.4,2.4,2.6,3.8,3.8c0.6,0.5,1.2,1.2,1.9,1.7c0.7,0.5,1.4,0.6,2.2,0.8c0.8,0.2,1.4-0.7,1-1.4
					c-0.4-0.7-0.6-1.4-1.2-1.9c-0.6-0.6-1.4-1.1-2.1-1.6c-1.4-1.1-2.8-2.1-4.4-3C83.1,219,82.2,220.3,83,221.1L83,221.1z"/>
			</g>
		</g>
		<g>
			<g>
				<path class="st1" d="M83.4,218.3c4,3.3,7.7,7,12.6,9.2c0.4,0.2,0.8-0.3,0.5-0.7c-3.3-4.1-7.8-6.8-12-9.8
					C83.6,216.4,82.6,217.7,83.4,218.3L83.4,218.3z"/>
			</g>
		</g>
		<g>
			<g>
				<path class="st1" d="M86.8,216.3c2.4,2.1,4.7,4.1,7.1,6.2c1.9,1.7,3.9,4,6.3,4.9c0.8,0.3,1.6-0.8,1.1-1.5
					c-1.4-2.2-4.1-3.6-6.2-5.1c-2.5-1.9-5-3.7-7.6-5.6C87,214.8,86.2,215.8,86.8,216.3L86.8,216.3z"/>
			</g>
		</g>
		<g>
			<g>
				<path class="st1" d="M93.3,217.6c3.7,2.9,7.4,5.7,11,8.6c0.8,0.6,1.6-0.5,0.8-1.1c-3.7-2.8-7.5-5.5-11.2-8.3
					C93.5,216.4,92.9,217.2,93.3,217.6L93.3,217.6z"/>
			</g>
		</g>
		<g>
			<g>
				<path class="st1" d="M94.3,214.4c3.3,2.6,6.6,5.5,10.2,7.7c0.7,0.4,1.5-0.6,0.9-1.2c-3.1-2.9-6.9-5.3-10.4-7.8
					C94.3,212.5,93.6,213.8,94.3,214.4L94.3,214.4z"/>
			</g>
		</g>
		<g>
			<g>
				<path class="st1" d="M99.1,214.8c1.3,1,2.6,2,3.9,3c1.3,1,2.5,2.2,4,2.8c0.8,0.3,1.5-0.5,0.9-1.2c-1-1.2-2.5-2.1-3.7-3
					c-1.4-1.1-2.8-2.1-4.2-3.2C99.1,212.5,98.2,214.1,99.1,214.8L99.1,214.8z"/>
			</g>
		</g>
		<g>
			<g>
				<path class="st1" d="M126.4,42.2c6.5-7.2,13.4-14.1,20.3-20.9c3.5-3.5,7-7.2,11.1-10c4.7-3.3,9.1-4,14.7-4.4
					c1-0.1,1.2-1.5,0.2-1.8c-8.9-3.1-17.9,5-23.7,10.7c-8.4,8.2-15.7,17-22.8,26.2C126,42.1,126.3,42.3,126.4,42.2L126.4,42.2z"/>
			</g>
		</g>
		<g>
			<g>
				<path class="st1" d="M119.9,64.1c11.5-10.5,22.7-21.2,34-32c10.4-10,20-19,34.2-23.1c1.7-0.5,1.4-3.3-0.4-3.1
					c-13.1,1.2-23.4,12.1-32.1,20.9c-12.1,12.2-24.2,24.4-36,36.9C119.4,64,119.7,64.3,119.9,64.1L119.9,64.1z"/>
			</g>
		</g>
		<g>
			<g>
				<path class="st1" d="M163.7,30.7c4.9-4.5,10.5-8.7,16.3-12.2c2.6-1.6,5.3-3,8-4.3c2.7-1.2,5.5-1.7,7.5-3.8
					c0.7-0.7,0.1-1.6-0.7-1.7c-5.6-0.7-13.4,5-17.8,8c-5.5,3.7-9.8,8.3-13.8,13.6C163,30.6,163.5,31,163.7,30.7L163.7,30.7z"/>
			</g>
		</g>
		<g>
			<g>
				<path class="st1" d="M90.8,97.2c4.3-4.3,9.3-8.5,12.9-13.4c0.2-0.3-0.3-0.6-0.5-0.4c-2.4,1.9-4.3,4.5-6.4,6.7
					c-2.1,2.3-4.2,4.6-6.2,6.9C90.4,97.1,90.7,97.3,90.8,97.2L90.8,97.2z"/>
			</g>
		</g>
		<g>
			<g>
				<path class="st1" d="M96.7,102.1c9.1-8.9,18.9-17.5,27.4-26.9c0.5-0.5-0.2-1.5-0.8-1.1c-10.1,7.8-18.8,18-26.7,27.9
					C96.5,102.1,96.6,102.2,96.7,102.1L96.7,102.1z"/>
			</g>
		</g>
		<g>
			<g>
				<path class="st1" d="M142.9,54.9c2-1.6,4.2-3,6.3-4.6c2-1.5,4.3-3,5.9-4.8c0.8-0.9-0.2-2.1-1.2-1.6c-4.6,2.2-8.2,6.8-11.3,10.8
					C142.5,54.9,142.7,55,142.9,54.9L142.9,54.9z"/>
			</g>
		</g>
		<g>
			<g>
				<path class="st1" d="M72,131.2c1.7-1.6,3.4-3.3,5.2-4.8c1.7-1.6,3.7-3,5.3-4.7c0.6-0.6-0.2-1.7-0.9-1.2
					c-3.7,2.8-6.9,6.8-10,10.2C71.2,131,71.7,131.5,72,131.2L72,131.2z"/>
			</g>
		</g>
		<g>
			<g>
				<path class="st1" d="M44.2,184.8c5.8-4.6,11.7-9,17.1-14.1c0.7-0.7-0.3-1.7-1.1-1.1c-5.7,4.6-10.9,9.9-16.2,15
					C44,184.7,44.1,184.8,44.2,184.8L44.2,184.8z"/>
			</g>
		</g>
		<g>
			<g>
				<path class="st1" d="M87.3,168.3c7.7-4.7,15.4-9.4,22.9-14.5c6.8-4.6,15-8.9,20.9-14.6c1-1-0.3-2.4-1.4-1.8
					c-7.6,3.5-14.7,9.9-21.6,14.8c-7.2,5-14,10.5-20.9,15.9C87,168.1,87.1,168.4,87.3,168.3L87.3,168.3z"/>
			</g>
		</g>
		<g>
			<g>
				<path class="st1" d="M145.4,73.9c11.9-8.4,22.7-18.5,33.8-28c5.6-4.8,10.9-9.9,16.5-14.7c3.2-2.7,6.6-5.4,10.6-6.8
					c2.6-0.9,5.3-0.6,7.8-1.8c0.8-0.4,0.7-1.6,0-2c-4.4-2.8-11.2,0.6-15.1,3.1c-6.4,4.1-11.9,9.8-17.5,14.8
					c-12.4,11.1-25.3,22.5-36.3,35C145,73.8,145.2,74,145.4,73.9L145.4,73.9z"/>
			</g>
		</g>
		<g>
			<g>
				<path class="st1" d="M174.9,122.8c15.4-9.1,29-21.1,43.8-31.2c7.1-4.8,14.3-9.6,21.9-13.4c4.1-2.1,8.5-3.8,13-4.7
					c5.4-1.2,10.2-0.3,15.5-0.6c1.9-0.1,3.1-3,1.1-3.9c-7.5-3.3-17.5-0.9-24.8,1.9c-9,3.4-17.2,8.8-25.1,14.3
					c-16,11-32.4,23.1-45.5,37.5C174.7,122.8,174.8,122.9,174.9,122.8L174.9,122.8z"/>
			</g>
		</g>
		<g>
			<g>
				<path class="st1" d="M222.9,96.5c2.4-1,4.6-2,6.9-3.2c2.1-1.2,4.3-2,6.2-3.5c0.8-0.7,0.2-2.4-0.9-2.3c-5.1,0.7-9.5,4.7-12.4,8.7
					C222.4,96.4,222.7,96.6,222.9,96.5L222.9,96.5z"/>
			</g>
		</g>
		<g>
			<g>
				<path class="st1" d="M149,119.6c17.9-10.5,34-24.2,51.1-36.1c8.4-5.9,17-11.6,25.7-17c4.1-2.6,8.3-5.3,12.6-7.5
					c2.8-1.4,5.7-2.5,8.8-2.8c2.9-0.3,5.3,0.7,8.1,1.2c1.8,0.4,3.5-1.9,2-3.4c-6.8-6.2-17.7-1.2-24.3,2.7c-10.2,6-20,12.7-29.6,19.5
					c-18.8,13.2-38.3,26.9-54.4,43.3C148.8,119.5,148.9,119.7,149,119.6L149,119.6z"/>
			</g>
		</g>
		<g>
			<g>
				<path class="st1" d="M216.4,79.2c5.5-2.7,10.8-5.6,16.3-8.3c2.8-1.4,5.6-2.7,8.5-3.9c2.5-1.1,4.7-1.5,6.6-3.5
					c0.8-0.8,0.2-2.1-0.9-2.1c-5.2-0.3-11.5,4.2-15.9,6.6c-5.5,3.1-10.4,6.4-15,10.6C215.7,79,216,79.4,216.4,79.2L216.4,79.2z"/>
			</g>
		</g>
		<g>
			<g>
				<path class="st1" d="M133.5,112.1c7.9-5.3,15.6-10.9,23.3-16.6c7.2-5.4,14.7-10.5,21.3-16.7c0.8-0.8-0.2-2.2-1.2-1.6
					c-7.7,4.7-14.5,10.7-21.6,16.3c-7.5,5.9-14.8,12-22,18.3C133.2,111.9,133.4,112.2,133.5,112.1L133.5,112.1z"/>
			</g>
		</g>
		<g>
			<g>
				<path class="st1" d="M193.5,68.6c8.9-5,17.5-10.4,26.4-15.3c4.2-2.3,8.4-4.6,12.7-6.8c3.8-2,8.7-3.3,11.4-6.8
					c0.7-0.9-0.3-2.1-1.2-2.1c-4.1-0.2-8.1,2.8-11.7,4.6c-4.8,2.4-9.5,5.1-14.1,7.9c-8.6,5.3-16.6,10.9-24.1,17.8
					C192.4,68.2,193,68.9,193.5,68.6L193.5,68.6z"/>
			</g>
		</g>
		<g>
			<g>
				<path class="st1" d="M177.2,63.4c8.7-5.4,16.7-11.7,25.3-17.3c4-2.6,8.1-5.2,12.3-7.6c4.9-2.9,10.3-6.7,16.3-6
					c2.1,0.2,2.7-3.4,0.5-3.8c-10.1-1.6-19.9,7.2-27.8,12.5c-9.5,6.6-19,13.3-26.8,22C176.8,63.3,177,63.5,177.2,63.4L177.2,63.4z"
					/>
			</g>
		</g>
		<g>
			<g>
				<path class="st1" d="M40.8,288.1c1.1,3.5,2.1,7.1,3.8,10.5c0.3,0.7,1.5,0.2,1.2-0.5c-1.2-3.5-3-6.8-4.7-10.1
					C41,287.8,40.7,287.9,40.8,288.1L40.8,288.1z"/>
			</g>
		</g>
		<g>
			<g>
				<path class="st1" d="M45.3,289.4c0.5,1.5,1.1,2.9,1.6,4.4c0.5,1.4,0.8,2.4,2,3.4c0.4,0.3,1,0.1,1-0.4c0-1.5-0.6-2.3-1.3-3.7
					c-0.8-1.4-1.6-2.7-2.4-4.1C46,288.5,45.1,288.8,45.3,289.4L45.3,289.4z"/>
			</g>
		</g>
		<g>
			<g>
				<path class="st1" d="M46.8,275.1c2.1,5.9,3.8,12.1,6.7,17.6c0.4,0.8,1.6,0.2,1.4-0.6c-1.6-6-4.6-11.8-7-17.5
					C47.6,274,46.5,274.5,46.8,275.1L46.8,275.1z"/>
			</g>
		</g>
		<g>
			<g>
				<path class="st1" d="M76.1,283.2c0.5,1.4,0.9,2.7,1.4,4.1c0.4,1.1,0.6,2.3,1.7,2.9c0.4,0.2,1,0,1.1-0.5c0.2-1.3-0.4-2.2-1.1-3.2
					c-0.7-1.2-1.5-2.5-2.2-3.7C76.7,282.4,75.9,282.7,76.1,283.2L76.1,283.2z"/>
			</g>
		</g>
		<g>
			<g>
				<path class="st1" d="M85.6,282.9c0.6,1.1,1.2,2.3,1.8,3.4c0.4,0.7,1.4,0.1,1-0.6c-0.6-1.1-1.2-2.3-1.8-3.4
					C86.2,281.6,85.2,282.2,85.6,282.9L85.6,282.9z"/>
			</g>
		</g>
		<g>
			<g>
				<path class="st1" d="M88.3,260.5c3.2,7.6,5.7,16.2,10,23.2c0.6,0.9,2.2,0.3,1.8-0.8c-2.8-7.8-7.8-15.2-11.7-22.5
					C88.4,260.3,88.3,260.4,88.3,260.5L88.3,260.5z"/>
			</g>
		</g>
		<g>
			<g>
				<path class="st1" d="M101,274c0.6,1.4,1.1,2.8,1.7,4.2c0.5,1.1,0.7,2.5,1.8,3.1c0.4,0.2,1.1,0.1,1.2-0.5
					c0.3-1.3-0.6-2.2-1.2-3.4c-0.8-1.3-1.5-2.6-2.3-3.9C101.8,272.8,100.7,273.2,101,274L101,274z"/>
			</g>
		</g>
		<g>
			<g>
				<path class="st1" d="M106.7,273.3c0.7,1.3,1.4,2.6,2.1,3.9c0.6,1.2,1.2,2.6,2.2,3.6c0.7,0.7,2,0,1.7-1c-0.4-1.3-1.4-2.5-2.1-3.6
					c-0.8-1.3-1.6-2.5-2.4-3.8C107.5,271.5,106.2,272.3,106.7,273.3L106.7,273.3z"/>
			</g>
		</g>
		<g>
			<g>
				<path class="st1" d="M108.7,248.7c3.4,8,6.1,17.3,10.8,24.7c0.6,0.9,2.2,0.4,1.8-0.8c-2.5-8.4-7.7-16.5-11.5-24.4
					C109.5,247.6,108.5,248,108.7,248.7L108.7,248.7z"/>
			</g>
		</g>
		<g>
			<g>
				<path class="st1" d="M126.5,265.4c0.5,1.4,1.1,2.8,1.6,4.2c0.5,1.2,0.7,2.6,1.7,3.4c0.5,0.4,1.3,0.1,1.3-0.5
					c0-1.3-0.8-2.4-1.4-3.6c-0.7-1.4-1.3-2.7-2-4.1C127.4,264.2,126.2,264.6,126.5,265.4L126.5,265.4z"/>
			</g>
		</g>
		<g>
			<g>
				<path class="st1" d="M131.3,264c0.6,1.3,1.2,2.5,1.7,3.8c0.6,1.2,1,2.6,1.8,3.7c0.4,0.6,1.5,0.3,1.2-0.5c-0.9-2.6-2.8-5-4.2-7.3
					C131.7,263.3,131.1,263.6,131.3,264L131.3,264z"/>
			</g>
		</g>
		<g>
			<g>
				<path class="st1" d="M131,243c2,4.9,4,9.8,6,14.7c1.6,3.8,2.7,8.3,5.4,11.4c0.4,0.5,1.4,0.1,1.3-0.5c-0.4-4.1-2.9-8-4.7-11.7
					c-2.2-4.8-4.5-9.6-6.7-14.4C132,241.6,130.6,242.2,131,243L131,243z"/>
			</g>
		</g>
		<g>
			<g>
				<path class="st1" d="M144.9,257.5c0.7,1.9,1.4,3.8,2.2,5.7c0.6,1.6,0.9,3.3,2.3,4.3c0.8,0.5,1.5-0.2,1.6-0.9
					c0.2-1.7-1.1-3.2-1.8-4.6c-0.9-1.7-1.8-3.4-2.8-5.1C145.9,256.1,144.5,256.6,144.9,257.5L144.9,257.5z"/>
			</g>
		</g>
		<g>
			<g>
				<path class="st1" d="M144.4,241.6c1.2,3,2.5,6.1,3.7,9.1c1.1,2.7,2,5.6,3.6,8.1c0.6,0.9,1.9,0.3,1.7-0.7
					c-1.5-5.8-5.3-11.6-7.9-16.9C145.2,240.6,144.2,241,144.4,241.6L144.4,241.6z"/>
			</g>
		</g>
		<g>
			<g>
				<path class="st1" d="M158.8,252.8c0.6,1.1,1.1,2.2,1.7,3.4c0.5,0.9,0.8,2.2,1.8,2.7c0.5,0.3,0.9-0.1,1-0.6c0.1-1-0.7-2.1-1.2-3
					c-0.6-1.1-1.1-2.2-1.7-3.4C159.8,250.8,158.2,251.7,158.8,252.8L158.8,252.8z"/>
			</g>
		</g>
		<g>
			<g>
				<path class="st1" d="M159.6,237.5c2.8,6.1,5.2,12.7,8.7,18.5c0.3,0.5,1.1,0.2,0.9-0.4c-2.2-6.4-5.8-12.5-8.7-18.6
					C160.2,236.4,159.3,236.9,159.6,237.5L159.6,237.5z"/>
			</g>
		</g>
		<g>
			<g>
				<path class="st1" d="M167.9,241.9c1.3,2.8,2.6,5.7,3.9,8.5c1.1,2.5,2,5.3,3.8,7.4c0.6,0.8,1.7-0.1,1.5-0.9
					c-0.6-2.7-2.3-5.1-3.5-7.5c-1.4-2.7-2.9-5.5-4.3-8.2C168.7,240.2,167.5,241,167.9,241.9L167.9,241.9z"/>
			</g>
		</g>
		<g>
			<g>
				<path class="st1" d="M171.6,234.1c1.6,3.6,3.2,7.3,4.8,10.9c1.4,3.1,2.3,7,4.8,9.3c0.5,0.5,1.7,0.2,1.6-0.7
					c-0.3-3.3-2.5-6.2-4.1-9.1c-2-3.7-4-7.4-6-11.1C172.3,232.8,171.3,233.4,171.6,234.1L171.6,234.1z"/>
			</g>
		</g>
		<g>
			<g>
				<path class="st1" d="M174.3,221.8c3.8,8.6,7.1,17.7,11.8,25.8c0.6,1,2.2,0.3,1.8-0.8c-3.2-9-7.9-17.4-12.1-26
					C175.3,219.8,173.8,220.7,174.3,221.8L174.3,221.8z"/>
			</g>
		</g>
		<g>
			<g>
				<path class="st1" d="M190.6,239.6c0.9,1.7,1.8,3.5,2.7,5.2c0.7,1.3,1,2.9,2.6,3.1c0.2,0,0.6-0.2,0.7-0.4
					c0.7-1.5-0.6-2.6-1.4-3.9c-1.1-1.6-2.1-3.3-3.2-4.9C191.4,237.8,190.1,238.6,190.6,239.6L190.6,239.6z"/>
			</g>
		</g>
		<g>
			<g>
				<path class="st1" d="M187.4,209.2c2.6,5.8,5.2,11.7,7.8,17.5c2.3,5.1,4.1,11.4,7.6,15.7c0.6,0.8,1.7-0.1,1.5-0.9
					c-1-5.5-4.6-11-7-16c-2.7-5.8-5.5-11.5-8.2-17.3C188.5,207,186.9,208,187.4,209.2L187.4,209.2z"/>
			</g>
		</g>
		<g>
			<g>
				<path class="st1" d="M205.1,231.7c0.6,1.7,1.2,3.3,1.8,5c0.5,1.5,0.8,3.1,1.9,4.3c0.8,0.8,2.3,0.2,2.3-0.9c-0.1-1.6-1-3-1.7-4.4
					c-0.8-1.6-1.6-3.2-2.4-4.7C206.4,230,204.7,230.7,205.1,231.7L205.1,231.7z"/>
			</g>
		</g>
		<g>
			<g>
				<path class="st1" d="M213,225.9c0.8,1.8,1.6,3.6,2.3,5.4c0.6,1.4,1,3.2,2.4,4c0.3,0.2,0.9,0,1-0.4c0.2-1.6-0.8-2.9-1.6-4.3
					c-1-1.8-2-3.6-3-5.4C213.8,224.4,212.7,225.1,213,225.9L213,225.9z"/>
			</g>
		</g>
		<g>
			<g>
				<path class="st1" d="M210.1,204.2c3.9,8.3,6.8,17.1,10.8,25.3c0.4,0.8,1.6,0.2,1.4-0.6c-2.5-8.9-6.8-17.2-11-25.4
					C210.9,202.7,209.8,203.4,210.1,204.2L210.1,204.2z"/>
			</g>
		</g>
		<g>
			<g>
				<path class="st1" d="M223.6,219.2c0.9,2.2,1.8,4.4,2.7,6.6c0.7,1.7,1.1,3.9,2.8,4.8c0.6,0.3,1.6,0.1,1.7-0.7
					c0.4-2-0.9-3.5-1.8-5.3c-1.1-2.1-2.3-4.2-3.4-6.3C225,217.3,223.1,218.1,223.6,219.2L223.6,219.2z"/>
			</g>
		</g>
		<g>
			<g>
				<path class="st1" d="M225,198.8c2.7,6.3,4.9,13.1,8.5,18.9c0.6,0.9,2.2,0.3,1.8-0.8c-2-6.6-5.7-12.8-8.7-19
					C226.1,196.8,224.6,197.8,225,198.8L225,198.8z"/>
			</g>
		</g>
		<g>
			<g>
				<path class="st1" d="M238.6,212.4c0.8,1.7,1.5,3.4,2.3,5c0.6,1.4,1.1,3.1,2.4,3.9c0.7,0.4,1.3-0.1,1.4-0.8c0.2-1.6-1-3-1.7-4.3
					c-0.9-1.6-1.7-3.3-2.6-4.9C239.8,210,238,211.1,238.6,212.4L238.6,212.4z"/>
			</g>
		</g>
		<g>
			<g>
				<path class="st1" d="M243.8,211.1c1.3,2.8,2.3,6.2,4.3,8.7c0.8,1,2.2-0.1,2-1.1c-0.6-3-2.6-6.1-3.9-8.9
					C245.4,208.2,243.1,209.6,243.8,211.1L243.8,211.1z"/>
			</g>
		</g>
		<g>
			<g>
				<path class="st1" d="M252.9,204.9c0.8,1.9,1.5,3.9,2.3,5.8c0.6,1.6,1.1,3.3,2.2,4.7c0.4,0.5,1.5,0.1,1.4-0.6
					c-0.2-1.7-1.1-3.3-1.8-4.9c-0.9-1.9-1.7-3.8-2.6-5.7C254,203.4,252.5,204,252.9,204.9L252.9,204.9z"/>
			</g>
		</g>
		<g>
			<g>
				<path class="st1" d="M254.8,175.9c2.4,6,4.7,12,7.1,18c2.1,5.3,3.6,11.6,6.9,16.4c0.7,1,2,0.4,1.8-0.8c-1-5.6-4.3-11.2-6.6-16.5
					c-2.5-5.9-5.1-11.9-7.6-17.8C256,174.4,254.5,175,254.8,175.9L254.8,175.9z"/>
			</g>
		</g>
		<g>
			<g>
				<path class="st1" d="M268.3,193.8c0.9,2.4,1.8,4.8,2.7,7.2c0.7,1.9,1.1,4.2,2.6,5.6c0.5,0.5,1.4,0.1,1.4-0.6
					c0.1-2.1-1.2-4-2-5.9c-1-2.3-2-4.7-3.1-7C269.5,192.2,267.9,192.8,268.3,193.8L268.3,193.8z"/>
			</g>
		</g>
		<g>
			<g>
				<path class="st1" d="M267.3,172.8c3.6,9.8,6.4,20.4,11.4,29.5c0.7,1.3,2.6,0.4,2.3-1c-2.4-10-7.3-19.7-11.1-29.3
					C269.3,170.5,266.7,171.2,267.3,172.8L267.3,172.8z"/>
			</g>
		</g>
		<g>
			<g>
				<path class="st1" d="M276.2,167.5c4.4,9.6,7.5,19.8,12.3,29.1c0.4,0.8,1.6,0.2,1.4-0.6c-2.2-10.3-7.4-20-12.3-29.4
					C277.2,165.7,275.8,166.6,276.2,167.5L276.2,167.5z"/>
			</g>
		</g>
		<g>
			<g>
				<path class="st1" d="M281.4,154.9c2.1,5.4,4.3,10.8,6.4,16.2c1.9,4.9,3.4,10.2,6.6,14.5c0.7,1,2.2,0.4,2-0.8
					c-0.9-5.2-3.7-10-5.9-14.7c-2.4-5.3-4.8-10.6-7.2-15.9C282.8,153.1,281,153.8,281.4,154.9L281.4,154.9z"/>
			</g>
		</g>
		<g>
			<g>
				<path class="st1" d="M287.8,139.5c2.4,7.1,4.2,14.8,7.5,21.5c0.5,1.1,2.1,0.3,1.8-0.8c-1.7-7.2-5.2-14.2-7.9-21.1
					C288.9,138.2,287.5,138.6,287.8,139.5L287.8,139.5z"/>
			</g>
		</g>
	</g>
</g>
</svg>
