<?xml version="1.0" encoding="utf-8"?>
<!-- Generator: Adobe Illustrator 23.0.2, SVG Export Plug-In . SVG Version: 6.00 Build 0)  -->
<svg version="1.1" id="Layer_1" xmlns="http://www.w3.org/2000/svg" xmlns:xlink="http://www.w3.org/1999/xlink" x="0px" y="0px"
	 viewBox="0 0 307.1 284.8" style="enable-background:new 0 0 307.1 284.8;" xml:space="preserve">
<style type="text/css">
	.st0{fill:#FFFFFF;}
	.st1{fill:#726D54;}
</style>
<g>
	<path class="st0" d="M245.2,59.9c-0.2-0.2-0.3-0.4-0.5-0.5c0.1-0.5,0.2-1,0.2-1.6c0-10-12.2-19.3-20.9-22.8
		c-10.2-4.1-26.2-1.7-35.7,4.2c-1.6-1-3.5-1.1-5,0.7c-0.4,0.5-0.7,1-0.9,1.5c0-0.1,0-0.2-0.1-0.3c-0.5-1.9-3-2.5-4.3-1.1
		c-2.8,2.9-4.3,6.4-6.5,9.7c-0.7,1.1,0.9,2.3,1.8,1.4c1.2-1.1,2.3-2.5,3.4-3.7c0.2,0.9,0.5,1.8,1.1,2.8c0.7,1.2,2.4,2.1,3.9,1.7
		c0.1,1.8,0.5,3.5,1.5,5.2c1.3,2.2,4.4,3.1,6.6,1.7c1.4-0.9,2.5-2,3.5-3.2c0,0.6,0.1,1.2,0.2,1.8c0.4,2.7,3.8,4.7,6.4,4.2
		c-0.5,1.1-0.9,2-1.1,2.5c-1.5,5.4-1.7,11-2.7,16.4c-2.2,12.3-5.9,23.3-10,35.1c-2.4,6.9,8.8,11.8,12,5.1c4.4-9.3,10.5-18,15.2-27.2
		c2.7-5.4,4.3-11.3,5.9-17.1c0.1-0.1,0.3-0.1,0.4-0.2c0.3-0.2,0.6-0.5,0.9-0.7c1.9,2.7,5.7,4,8.8,2.1c1-0.6,1.9-1.3,2.7-2
		c2,1.3,5,1.3,6.9,0.1c4.1-2.6,6.2-4.8,7.9-9.3C247.8,64.1,246.7,61.6,245.2,59.9z"/>
	<g>
		<g>
			<g>
				<path class="st1" d="M138.9,63.6c-1.2,9.4-1,20.4,5.3,28.1c4.8,5.9,13,9.2,20.5,7.9c3.6-0.6,7-2.4,9.5-5.1c1.3-1.4,3.2-6,6-4.3
					c4.1,2.5-1,9.4-2.6,11.9c-6.2,9.9-11.6,20.4-15.7,31.4c-3.6,9.8-6,20.9-1.2,30.7c3.8,7.8,11.3,12.9,19.1,16.2
					c8.6,3.7,18.1,6.3,27.4,7.5c9.5,1.1,18.7-1.1,24.1-9.6c6.7-10.5,8.5-25.3,9.8-37.4c0.8-7,0.3-14.1,1.1-21
					c0.4-3.6,3.1-11.8,8.5-9.9c2.6,0.9,2.9,4.6,1.4,6.5c-0.9,1.2,0.6,2.9,1.9,2.5c6.8-2.1,4.8-11.2-0.6-13.8
					c-9.5-4.4-16,6.9-16.8,14.6c-0.6,6-0.4,12.1-1,18.1c-0.7,7.4-2.1,14.7-3.9,21.9c-1.4,5.4-2.8,11.3-6.1,15.9
					c-4,5.6-10.5,6.7-17,6.1c-9.9-1-21-4.2-29.8-8.8c-11.4-6-16.6-16-13.6-28.9c2.7-12.1,8.8-23.9,15.1-34.4c4.2-7.1,13-19,2.6-25.5
					c-3.9-2.4-8.2-1.2-11,2.3c-3.6,4.6-6.7,7.6-13.1,7c-14.4-1.3-19.1-18-19.8-30C139.4,63.3,139,63.3,138.9,63.6L138.9,63.6z"/>
			</g>
		</g>
		<g>
			<g>
				<path class="st1" d="M154.5,92.9c-13.4-4-12.8-20.2-11.6-31.4c1.3-12.7,7.5-22,15.2-31.8c6.7-8.5,13.7-16.7,24.2-20.4
					c11.3-4,24.1-4.7,36-3.4c12.2,1.3,23.9,5.4,35.3,9.7c9.3,3.6,18.6,7.7,26.5,13.9c8.8,6.9,13.5,15.8,15.9,26.6
					c2.6,11.7,4.8,24.1,3.4,36.2c-1.3,10.8-6.4,21.9-15.9,27.9c-5.3,3.3-12.4,5-18.2,1.9c-4.7-2.6-7.3-7.7-10.7-11.6
					c-2.2-2.5-5.5,0.2-5,2.9c2.1,12.2,14.3,20.2,26.3,18.3c11-1.8,20-9.8,25.1-19.4c6.4-11.9,6.8-25.5,5.1-38.6
					c-1.7-13-3.9-27.7-11.8-38.6c-7.1-9.7-17.7-16-28.6-20.7c-12.5-5.4-25.8-10-39.1-12.5c-14-2.6-28.8-2.4-42.5,1.5
					c-12.4,3.5-20.9,11.7-28.7,21.6c-4.6,5.8-9.4,11.6-12.7,18.3c-3.2,6.4-4.6,13.3-5.1,20.3c-1,12.3,1.4,29.4,16.3,31.6
					C155.3,95.2,155.9,93.3,154.5,92.9L154.5,92.9z"/>
			</g>
		</g>
		<g>
			<g>
				<path class="st1" d="M167.7,90.1c-10.6-0.5-8.8-13.6-4.5-19.6c4.7-6.7,14.6-10.2,21.3-4c10.5,9.7,2.2,23.7-2,34
					c-0.4,1,1.1,1.5,1.7,0.7c4.9-7.6,9-17.9,6.4-27c-2-7.1-7.9-12.6-15.6-12c-7.5,0.6-13.5,6.8-15.6,13.8c-2.1,6.6,0.5,14.9,8.4,15
					C168.3,90.9,168.3,90.1,167.7,90.1L167.7,90.1z"/>
			</g>
		</g>
		<g>
			<g>
				<path class="st1" d="M259.7,116.5c6.3,4.3,8.9-6,9.8-10.1c1.5-6.9,1.4-15.4-4.4-20.3c-15.1-12.6-26.6,17.5-23.9,28.6
					c0.1,0.5,0.9,0.5,1,0c0.9-4.8,0.8-9.7,2.3-14.4c1.8-5.5,5.6-14.3,12.2-15.1c7.7-0.9,12,6.8,12.3,13.5c0.1,3.7-1.4,21.1-9.1,17.6
					C259.7,116.3,259.6,116.4,259.7,116.5L259.7,116.5z"/>
			</g>
		</g>
		<g>
			<g>
				<path class="st1" d="M159.7,80.7c0,0-0.1-0.1-0.1-0.1c-0.1-0.1-0.2,0-0.2,0.1c0.5,1.5,1.7,2.9,2.5,4.2c1,1.5,2.1,3,3.2,4.5
					c0.2,0.3,0.6,0,0.5-0.3c-1-1.6-1.9-3.1-3-4.6c-0.5-0.7-1-1.4-1.5-2.1c-0.4-0.6-0.7-1.4-1.4-1.5
					C159.7,80.8,159.7,80.7,159.7,80.7L159.7,80.7z"/>
			</g>
		</g>
		<g>
			<g>
				<path class="st1" d="M160,79.5c3.1,4.3,5.9,9.1,9.5,13c0.2,0.2,0.5-0.1,0.4-0.3c-2.7-4.5-6.5-8.7-9.7-12.9
					C160.1,79.4,159.9,79.4,160,79.5L160,79.5z"/>
			</g>
		</g>
		<g>
			<g>
				<path class="st1" d="M162.9,81.1c2.1,3.1,4,6.3,6.2,9.3c0.1,0.1,0.3,0,0.2-0.1c-1.9-3.2-4.1-6.2-6.2-9.3
					C163.1,80.7,162.8,80.9,162.9,81.1L162.9,81.1z"/>
			</g>
		</g>
		<g>
			<g>
				<path class="st1" d="M165.1,82.2c2.3,3.5,4.6,7,6.9,10.4c0.2,0.3,0.6,0,0.5-0.3c-2.3-3.5-4.6-7-6.9-10.4
					C165.4,81.6,164.9,81.9,165.1,82.2L165.1,82.2z"/>
			</g>
		</g>
		<g>
			<g>
				<path class="st1" d="M166.7,80.3c2.6,4.6,5.1,9.2,7.8,13.7c0.1,0.2,0.5,0,0.3-0.2c-2.5-4.6-5.3-9.1-7.9-13.6
					C166.9,80,166.6,80.2,166.7,80.3L166.7,80.3z"/>
			</g>
		</g>
		<g>
			<g>
				<path class="st1" d="M166.3,72.9c2.5,5.5,4.8,11.2,7.7,16.5c0.1,0.2,0.4,0,0.3-0.1c-2.3-5.7-5.1-11.1-7.8-16.6
					C166.5,72.6,166.2,72.7,166.3,72.9L166.3,72.9z"/>
			</g>
		</g>
		<g>
			<g>
				<path class="st1" d="M169.2,74.1c2.2,5.1,4,10.5,6.6,15.3c0.1,0.2,0.5,0.1,0.4-0.2c-1.8-5.3-4.4-10.3-6.6-15.4
					C169.5,73.5,169,73.8,169.2,74.1L169.2,74.1z"/>
			</g>
		</g>
		<g>
			<g>
				<path class="st1" d="M171.5,73.8c2,5.1,3.7,10.3,6,15.2c0.1,0.2,0.4,0,0.3-0.1c-1.6-5.2-3.8-10.2-5.8-15.3
					C171.9,73.4,171.4,73.5,171.5,73.8L171.5,73.8z"/>
			</g>
		</g>
		<g>
			<g>
				<path class="st1" d="M172.7,69.1c2.4,7.1,4.3,14.7,7.8,21.4c0.1,0.3,0.5,0.1,0.5-0.2c-1.6-7.3-5-14.4-7.6-21.4
					C173.3,68.4,172.6,68.6,172.7,69.1L172.7,69.1z"/>
			</g>
		</g>
		<g>
			<g>
				<path class="st1" d="M175.1,69.6c2.2,6.1,4.2,12.3,6.9,18.2c0.1,0.3,0.6,0.1,0.5-0.2c-1.9-6.2-4.5-12.2-6.8-18.2
					C175.6,69.1,175,69.2,175.1,69.6L175.1,69.6z"/>
			</g>
		</g>
		<g>
			<g>
				<path class="st1" d="M178.5,70.4c2,6.2,3.7,12.6,6.3,18.5c0.2,0.4,0.8,0.1,0.7-0.3c-1.6-6.3-4-12.4-6.2-18.5
					C179.1,69.7,178.3,69.9,178.5,70.4L178.5,70.4z"/>
			</g>
		</g>
		<g>
			<g>
				<path class="st1" d="M181.9,72.1c1.9,6.8,3.4,14,6,20.6c0.1,0.3,0.5,0.2,0.4-0.1c-1.2-7-3.7-13.8-5.7-20.7
					C182.6,71.3,181.7,71.5,181.9,72.1L181.9,72.1z"/>
			</g>
		</g>
		<g>
			<g>
				<path class="st1" d="M183.9,71.3c1.3,4.1,2.3,8.6,4,12.5c0.2,0.5,0.9,0.1,0.8-0.3c-0.9-4.2-2.7-8.3-4-12.4
					C184.5,70.6,183.7,70.8,183.9,71.3L183.9,71.3z"/>
			</g>
		</g>
		<g>
			<g>
				<path class="st1" d="M186.1,71.4c1,3.1,1.6,6.3,2.6,9.3c0.1,0.5,0.8,0.3,0.7-0.2c-0.4-3.1-1.7-6.3-2.7-9.3
					C186.5,71,186,71.1,186.1,71.4L186.1,71.4z"/>
			</g>
		</g>
		<g>
			<g>
				<path class="st1" d="M243.3,103.4c0.5,1.4,1,2.8,1.8,4.2c0.1,0.3,0.6,0.1,0.5-0.2c-0.5-1.5-1.2-2.7-2-4.1
					C243.5,103.1,243.2,103.2,243.3,103.4L243.3,103.4z"/>
			</g>
		</g>
		<g>
			<g>
				<path class="st1" d="M244,99.3c1.8,3.7,3.1,7.7,4.5,11.6c0.1,0.3,0.6,0.2,0.5-0.1c-1.1-4.1-2.8-7.8-4.9-11.5
					C244,99.1,243.9,99.2,244,99.3L244,99.3z"/>
			</g>
		</g>
		<g>
			<g>
				<path class="st1" d="M245.5,96.2c2,5.3,3.6,10.9,6.2,16c0.1,0.2,0.4,0.1,0.4-0.2c-1.5-5.5-4-10.7-6.1-15.9
					C245.9,95.8,245.4,95.9,245.5,96.2L245.5,96.2z"/>
			</g>
		</g>
		<g>
			<g>
				<path class="st1" d="M248.1,96.7c1.9,5.8,3.7,12.1,6.6,17.5c0.2,0.3,0.6,0.1,0.5-0.2c-1.8-5.9-4.5-11.6-6.4-17.5
					C248.7,96,247.9,96.2,248.1,96.7L248.1,96.7z"/>
			</g>
		</g>
		<g>
			<g>
				<path class="st1" d="M250.6,93c2.5,8.4,4.7,17,7.7,25.2c0.1,0.3,0.5,0.2,0.4-0.1c-2.1-8.5-5-16.9-7.6-25.3
					C251,92.5,250.5,92.7,250.6,93L250.6,93z"/>
			</g>
		</g>
		<g>
			<g>
				<path class="st1" d="M252.7,89.9c2.1,9.3,4.1,19,7.7,27.9c0.1,0.3,0.7,0.2,0.6-0.2c-2.1-9.4-5.3-18.6-7.7-27.9
					C253.2,89.4,252.6,89.5,252.7,89.9L252.7,89.9z"/>
			</g>
		</g>
		<g>
			<g>
				<path class="st1" d="M255.5,89.5c2.3,9.5,3.8,19.7,7.3,28.8c0.2,0.5,0.8,0.3,0.8-0.2c-1.4-9.6-5-19.3-7.6-28.7
					C255.9,89.1,255.5,89.3,255.5,89.5L255.5,89.5z"/>
			</g>
		</g>
		<g>
			<g>
				<path class="st1" d="M258.6,91.3c1.7,7.4,3,15,5.4,22.2c0.1,0.3,0.6,0.2,0.5-0.1c-1.1-7.5-3.4-14.9-5.3-22.2
					C259.1,90.8,258.5,91,258.6,91.3L258.6,91.3z"/>
			</g>
		</g>
		<g>
			<g>
				<path class="st1" d="M261.8,93.1c1.3,6.3,2.2,12.9,4.1,19.1c0.1,0.3,0.6,0.3,0.6-0.1c-0.8-6.4-2.6-12.8-4.1-19.1
					C262.3,92.5,261.7,92.7,261.8,93.1L261.8,93.1z"/>
			</g>
		</g>
		<g>
			<g>
				<path class="st1" d="M263.8,89.8c1.4,5.1,1.8,10.3,3,15.4c0.1,0.5,0.8,0.4,0.8-0.1c0.2-5.1-1.6-10.6-3.2-15.4
					C264.3,89.2,263.6,89.4,263.8,89.8L263.8,89.8z"/>
			</g>
		</g>
		<g>
			<g>
				<path class="st1" d="M190.9,95.9c-3.2,9.8-8.6,17.6-13.7,26.5c-0.1,0.3,0.2,0.5,0.4,0.3C184.4,115.6,188.4,105.2,190.9,95.9
					C191,95.9,190.9,95.9,190.9,95.9L190.9,95.9z"/>
			</g>
		</g>
		<g>
			<g>
				<path class="st1" d="M174.7,127.3c-5,9-9.2,18.1-8.5,28.7c0,0.4,0.6,0.4,0.6,0c0.5-10,2-20.3,8.1-28.5
					C175,127.3,174.8,127.1,174.7,127.3L174.7,127.3z"/>
			</g>
		</g>
		<g>
			<g>
				<path class="st1" d="M181.3,123.4c-4.4,5.9-7.5,12.4-8.9,19.6c0,0.2,0.3,0.3,0.3,0.1C174.4,136,177.1,129.4,181.3,123.4
					C181.3,123.4,181.3,123.4,181.3,123.4L181.3,123.4z"/>
			</g>
		</g>
		<g>
			<g>
				<path class="st1" d="M171.4,150.1c-1,3.7-1.8,8.2-0.4,11.9c0.1,0.3,0.6,0.3,0.6-0.1C171.4,157.9,170.7,154.3,171.4,150.1
					C171.5,150.1,171.4,150.1,171.4,150.1L171.4,150.1z"/>
			</g>
		</g>
		<g>
			<g>
				<path class="st1" d="M234.2,111.6c-3.3,6.8-4.4,14.2-5.4,21.6c-1.3,9.9-2.9,18.8-7.5,27.8c-0.2,0.3,0.3,0.6,0.5,0.3
					C232,147.3,227.9,127.2,234.2,111.6C234.3,111.6,234.3,111.6,234.2,111.6L234.2,111.6z"/>
			</g>
		</g>
		<g>
			<g>
				<path class="st1" d="M231,144.3c-1.2,11.6-6.1,20.5-12.7,29.7c-0.2,0.3,0.2,0.6,0.5,0.4c8.1-7.5,12-19.3,12.5-30.1
					C231.2,144.1,231,144.1,231,144.3L231,144.3z"/>
			</g>
		</g>
		<g>
			<g>
				<path class="st1" d="M175.4,156.3c-0.7,3.6-0.9,7.2-0.5,10.9c0,0.2,0.3,0.2,0.3,0C175.1,163.5,175.1,159.9,175.4,156.3
					C175.4,156.2,175.4,156.2,175.4,156.3L175.4,156.3z"/>
			</g>
		</g>
		<g>
			<g>
				<path class="st1" d="M179.8,151c-0.9,6.1-1.9,12.1-2.6,18.2c0,0.1,0.2,0.2,0.3,0C178.4,163.1,179.1,157,179.8,151
					C179.9,150.9,179.8,150.9,179.8,151L179.8,151z"/>
			</g>
		</g>
		<g>
			<g>
				<path class="st1" d="M180.3,164.4c-0.1,2-0.4,3.9-0.3,5.9c0,0.2,0.2,0.2,0.3,0c0.2-1.9,0.1-3.9,0.2-5.9
					C180.4,164.3,180.3,164.3,180.3,164.4L180.3,164.4z"/>
			</g>
		</g>
		<g>
			<g>
				<path class="st1" d="M183.1,165.6c-0.2,1.8-0.4,3.5-0.6,5.3c0,0.3,0.4,0.3,0.4,0c0.2-1.8,0.3-3.5,0.5-5.3
					C183.4,165.4,183.1,165.4,183.1,165.6L183.1,165.6z"/>
			</g>
		</g>
		<g>
			<g>
				<path class="st1" d="M190.8,152.5c-1.7,7-3.4,13.9-4.8,20.9c0,0.2,0.3,0.4,0.4,0.1c1.7-6.9,3.1-14,4.6-21
					C191,152.4,190.8,152.4,190.8,152.5L190.8,152.5z"/>
			</g>
		</g>
		<g>
			<g>
				<path class="st1" d="M191.3,167.3c-0.5,1.9-1.1,3.8-1.3,5.8c0,0.2,0.2,0.2,0.3,0c0.7-1.8,1-3.8,1.4-5.7
					C191.7,167.1,191.3,167,191.3,167.3L191.3,167.3z"/>
			</g>
		</g>
		<g>
			<g>
				<path class="st1" d="M194.2,168.4c-0.5,2.3-1.2,4.6-1.5,6.9c0,0.3,0.4,0.3,0.5,0.1c0.8-2.2,1.1-4.6,1.6-6.8
					C194.9,168.2,194.3,168.1,194.2,168.4L194.2,168.4z"/>
			</g>
		</g>
		<g>
			<g>
				<path class="st1" d="M203.6,151.6c-2.4,7.9-5.6,16-7,24.1c-0.1,0.4,0.4,0.5,0.6,0.2c3.1-7.7,4.8-16.2,7-24.1
					C204.2,151.4,203.7,151.3,203.6,151.6L203.6,151.6z"/>
			</g>
		</g>
		<g>
			<g>
				<path class="st1" d="M202.3,166.9c-0.5,1.8-1,3.6-1.5,5.3c-0.4,1.5-1.1,3.1-1.1,4.7c0,0.4,0.6,0.6,0.7,0.2
					c1.5-3,1.8-6.9,2.5-10.1C203,166.7,202.4,166.5,202.3,166.9L202.3,166.9z"/>
			</g>
		</g>
		<g>
			<g>
				<path class="st1" d="M207.1,164.7c-1.2,4.1-2.9,8.4-3.3,12.6c0,0.4,0.6,0.6,0.7,0.2c1.7-3.9,2.3-8.5,3.3-12.6
					C207.9,164.5,207.3,164.3,207.1,164.7L207.1,164.7z"/>
			</g>
		</g>
		<g>
			<g>
				<path class="st1" d="M215.3,153.8c-2.3,7.4-5,14.8-6.5,22.4c-0.1,0.5,0.5,0.6,0.7,0.2c2.7-7.2,4.4-15,6.4-22.4
					C216,153.6,215.4,153.5,215.3,153.8L215.3,153.8z"/>
			</g>
		</g>
		<g>
			<g>
				<path class="st1" d="M214.8,168.3c-1.1,2.8-2.5,5.6-3.2,8.5c-0.1,0.3,0.4,0.6,0.6,0.3c1.3-2.7,2.1-5.8,3.1-8.6
					C215.4,168.1,214.9,168,214.8,168.3L214.8,168.3z"/>
			</g>
		</g>
		<g>
			<g>
				<path class="st1" d="M193.9,156.4c-0.8,2.5-1.6,5-2.4,7.5c-0.1,0.3,0.4,0.4,0.4,0.1c0.8-2.5,1.6-5,2.4-7.5
					C194.4,156.2,194,156.1,193.9,156.4L193.9,156.4z"/>
			</g>
		</g>
		<g>
			<g>
				<path class="st1" d="M197.3,156.8c-0.8,2.7-1.6,5.4-2.4,8.1c-0.1,0.2,0.3,0.3,0.3,0.1c0.8-2.7,1.7-5.4,2.5-8.1
					C197.7,156.7,197.4,156.6,197.3,156.8L197.3,156.8z"/>
			</g>
		</g>
		<g>
			<g>
				<path class="st1" d="M185.9,152c-0.8,3.5-1.7,6.9-2.5,10.4c-0.1,0.2,0.3,0.4,0.4,0.1c0.9-3.4,1.8-6.9,2.7-10.3
					C186.5,151.8,186,151.6,185.9,152L185.9,152z"/>
			</g>
		</g>
		<g>
			<g>
				<path class="st1" d="M148.6,60c2.6-9.3,6.9-18.1,13.2-25.5c6.1-7.3,13.5-12.1,21.8-16.5c0.4-0.2,0.1-1-0.3-0.8
					c-17.6,6.6-31.4,24.6-34.8,42.8C148.4,60.1,148.6,60.2,148.6,60L148.6,60z"/>
			</g>
		</g>
		<g>
			<g>
				<path class="st1" d="M194.8,14.1c10.8-2,21.1-1.2,31.6,1.5c0.3,0.1,0.4-0.4,0.1-0.4C216.3,11.8,205.3,11.7,194.8,14.1
					C194.8,14.1,194.8,14.1,194.8,14.1L194.8,14.1z"/>
			</g>
		</g>
		<g>
			<g>
				<path class="st1" d="M182.8,22.9c8.8-2.8,17.4-3.2,26.6-3.2c0.3,0,0.3-0.4,0.1-0.5c-8.9-1.4-18.3,0.4-26.7,3.4
					C182.6,22.8,182.7,23,182.8,22.9L182.8,22.9z"/>
			</g>
		</g>
		<g>
			<g>
				<path class="st1" d="M210.4,16.1c6.1-0.4,12.3,1,18.4,1.7c0.3,0,0.3-0.4,0.1-0.5c-6.1-1.3-12.3-0.9-18.5-1.5
					C210.2,15.8,210.2,16.1,210.4,16.1L210.4,16.1z"/>
			</g>
		</g>
		<g>
			<g>
				<path class="st1" d="M237.2,15.8c10.3,2.8,18.9,7.9,27.4,14.3c0.3,0.2,0.6-0.2,0.4-0.5c-7.6-7.3-17.5-11.7-27.7-13.9
					C237.1,15.7,237.1,15.8,237.2,15.8L237.2,15.8z"/>
			</g>
		</g>
		<g>
			<g>
				<path class="st1" d="M257.9,30.8c2,1.5,3.9,3,5.6,4.8c1.6,1.6,2.9,3.4,4.4,5.1c0.2,0.2,0.6-0.1,0.5-0.4
					c-2.4-3.9-6.5-7.2-10.3-9.8C257.9,30.4,257.8,30.6,257.9,30.8L257.9,30.8z"/>
			</g>
		</g>
		<g>
			<g>
				<path class="st1" d="M268.3,32.7c3.5,5.4,6,11.2,8.2,17.2c0.1,0.3,0.6,0.2,0.5-0.1c-1.8-6.2-4.8-11.9-8.4-17.2
					C268.5,32.3,268.1,32.5,268.3,32.7L268.3,32.7z"/>
			</g>
		</g>
		<g>
			<g>
				<path class="st1" d="M276,37.4c3.2,4.7,5.3,9.7,7.5,14.9c0.1,0.3,0.6,0.1,0.5-0.2c-1.6-5.3-4.6-10.3-7.7-14.8
					C276.2,37,275.9,37.2,276,37.4L276,37.4z"/>
			</g>
		</g>
		<g>
			<g>
				<path class="st1" d="M284.8,47.3c3.4,6.1,4.7,12.4,5.4,19.3c0,0.4,0.6,0.4,0.6,0c0.2-6.9-2.2-13.6-5.6-19.5
					C285,46.9,284.7,47.1,284.8,47.3L284.8,47.3z"/>
			</g>
		</g>
		<g>
			<g>
				<path class="st1" d="M288.3,75.9c1.1,6.7,0.7,13.8-1.4,20.3c-2,6.3-5.8,11-9.7,16.2c-0.2,0.2,0.2,0.6,0.4,0.4
					c10.7-8.1,14.1-24.6,10.9-36.9C288.5,75.8,288.3,75.8,288.3,75.9L288.3,75.9z"/>
			</g>
		</g>
		<g>
			<g>
				<path class="st1" d="M294.4,86.5c-1,6.4-3.3,12.1-5.7,18.1c-0.1,0.4,0.4,0.6,0.6,0.3c3.5-5.4,4.8-11.9,5.2-18.3
					C294.5,86.4,294.4,86.4,294.4,86.5L294.4,86.5z"/>
			</g>
		</g>
		<g>
			<g>
				<path class="st1" d="M157.8,48.6c-4.9,6.8-7.8,15.3-6.9,23.8c0,0.3,0.5,0.3,0.5,0c0.2-8.7,1.8-16.3,6.5-23.8
					C157.9,48.6,157.8,48.5,157.8,48.6L157.8,48.6z"/>
			</g>
		</g>
		<g>
			<g>
				<path class="st1" d="M145.4,68c0.4,2.9,0.7,5.9,1.1,8.8c0,0.3,0.6,0.3,0.5,0c-0.4-2.9-0.7-5.9-1.1-8.8
					C145.9,67.7,145.3,67.7,145.4,68L145.4,68z"/>
			</g>
		</g>
	</g>
</g>
<g>
	<path class="st0" d="M84.2,237.9c-0.1-2.2-1.7-4.2-3.6-5.1c0-0.5,0-1.1-0.1-2.1c-0.1-1.4-1.1-2.7-1.8-3.9c-1.1-1.6-2.5-2.6-4.1-2.9
		c0-1.3-0.1-2.7-0.6-4.1c-0.8-2.4-2.6-3.9-4.9-4.4c0.6-2.7,1.2-5.4,0.9-8.4c-0.4-3.3-2.4-5.7-5.4-6.1c1.3-3,1.7-6.9,1.6-9.4
		c-0.1-3-2.3-5.4-5-6c0.1-0.6,0.2-1.2,0.3-1.8c0.2-3.1-2.9-4.5-5.4-4.1c-9.8,1.5-32,19-24.6,30.4c0.4,0.6,1.2,1.2,1.9,1.1
		c0.5-0.1,0.9-0.1,1.4-0.2c2.1-0.3,2.9-3.2,0.5-3.9c-0.8-0.2,2-4,4.5-7c-0.4,0.7-0.8,1.5-1.2,2.2c-2.6,5.3,2.6,10.2,7.8,7.8
		c0.3-0.1,0.6-0.3,0.9-0.5c0.1,1.6,0.8,3.2,2.3,4.8c2.2,2.2,4.4,2.5,6.7,2c-0.4,1.8-0.6,3.7-0.5,5.6c0.2,3.4,2.5,5.9,5.8,6.2
		c-0.2,1.4-0.4,2.9-0.3,3.9c0.3,3.5,2.7,6.3,6.4,6.4c0.8,0,1.5-0.1,2.2-0.3c1,3.2,1.7,5.8,6.4,7.8c3.8,1.6,8.4-2.4,8.1-6.2
		L84.2,237.9z"/>
	<g>
		<g>
			<g>
				<path class="st1" d="M44.2,240.6c3.3,3.5,3.2,8.7,0.7,12.6c-2.9,4.6-8.9,5.1-13.8,4.1c-9.5-2-15.6-11.8-19.6-19.9
					c-9.1-18.4-1.9-39.5,8.9-55.6c9.5-14.2,23.5-25.7,39.8-31.1c19.1-6.2,41.8-2.4,56.7,11.8c7.3,6.9,11.8,18.4,7.1,28
					c-3.9,8.1-15.7,11.8-22.8,5.5c-3.3-3-8.1,1.7-4.9,4.9c7.3,7.2,18.6,7.2,26.9,1.5c9-6.2,11.6-18,9-28.2
					c-6.3-25.2-40-36.9-63-33.2c-22.7,3.6-42.5,18.2-55.1,37.1c-6.9,10.3-12,22.4-13.7,34.7c-1.9,13.6,2.5,26.5,10.4,37.5
					c7,9.8,19.4,18.7,31.7,12.4c8.7-4.5,11.9-17.6,2.7-23.4C44.4,238.9,43.6,240,44.2,240.6L44.2,240.6z"/>
			</g>
		</g>
		<g>
			<g>
				<path class="st1" d="M47.9,243.2c-1.8-2.7-0.6-4.2,3.4-4.5c1.8,0.7,3.1,1.9,4.1,3.6c1.3,1.9,2.4,3.9,3.6,5.9
					c2.3,3.8,4.6,7.7,6.9,11.5c3.7,6.2,7.3,12.9,12.6,17.9c11.1,10.6,26.2,8.3,38.4,0.9c11.5-6.9,22.3-20.5,13.9-34
					c-4.3-6.9-11.3-12.6-17-18.4c-2.8-2.9-5.8-5.7-8.4-8.8c-1.6-1.9-3.2-4-4.4-6.2c-0.7-1.2-1.3-2.5-1.8-3.9
					c-0.7-1.4-0.5-2.7,0.6-4.1c1.4,2,5.5,0.9,4.4-1.8c-1.6-3.9-6.4-4.8-9.3-1.5c-3.7,4.3-0.1,11.4,2.4,15.3
					c4.1,6.6,10,11.9,15.4,17.4c5.1,5.3,13.4,11.3,15.2,18.8c2.4,9.6-5.8,17.4-13.1,21.9c-7.2,4.4-16.3,8.3-24.8,5.6
					c-7.4-2.3-12.3-9-16.3-15.2c-4.6-7.1-8.8-14.5-13.5-21.7c-2.7-4.2-7.5-9.2-13-6.6c-3.8,1.8-4.5,7.3-0.5,9.2
					C47.7,245.1,48.7,244,47.9,243.2L47.9,243.2z"/>
			</g>
		</g>
		<g>
			<g>
				<path class="st1" d="M54.2,237.8c-0.1-5.6-2-12.3-7.2-15.2c-4.5-2.5-9.6-1.4-12.6,2.8c-3.2,4.4-3.6,10.9-0.9,15.6
					c2.5,4.3,8.3,7.8,13.2,5.7c1-0.4,0.9-1.8-0.3-1.9c-4.2-0.4-8.2-1.3-10.4-5.3c-2.2-3.9-1.8-9.7,1.3-13.1c4-4.3,9.4-1.3,12.1,2.7
					c1.8,2.7,2.5,6,3.7,8.9C53.5,238.5,54.2,238.3,54.2,237.8L54.2,237.8z"/>
			</g>
		</g>
		<g>
			<g>
				<path class="st1" d="M95.6,205.3c-1.9-2.8-4.4-5.2-5.4-8.6c-1.3-4.3-0.2-9.4,4.4-11.1c3.9-1.4,8.2,0.5,10.3,4
					c2.3,3.7,0.7,7.3,0.6,11.2c0,0.6,0.8,0.9,1.2,0.5c7-7.6-2.8-20.6-12.1-17.9c-11.2,3.2-7.3,17.8,0.6,22.4
					C95.5,205.9,95.8,205.6,95.6,205.3L95.6,205.3z"/>
			</g>
		</g>
		<g>
			<g>
				<path class="st1" d="M35.5,230.2c-0.8,1.7,0.4,5.3,0.7,7c0.6,2.8,1.1,5.7,2.1,8.4c0.2,0.5,0.9,0.3,0.8-0.2
					c-0.8-5.3-2.3-10.5-3.4-15.7c-0.1-0.4-0.7-0.2-0.6,0.2c0.1,0.1,0.1,0.3,0.2,0.4C35.4,230.3,35.5,230.3,35.5,230.2L35.5,230.2z"
					/>
			</g>
		</g>
		<g>
			<g>
				<path class="st1" d="M37.2,229.6c1,5.6,1.6,11.4,3.1,16.8c0.1,0.3,0.7,0.3,0.6-0.1c-0.7-5.6-2.2-11.3-3.4-16.8
					C37.4,229.3,37.1,229.4,37.2,229.6L37.2,229.6z"/>
			</g>
		</g>
		<g>
			<g>
				<path class="st1" d="M37.9,225.7c1,6.6,1.7,13.6,3.6,20c0.1,0.4,0.9,0.4,0.8-0.1c-0.6-6.7-2.6-13.5-4.1-20
					C38.2,225.4,37.9,225.5,37.9,225.7L37.9,225.7z"/>
			</g>
		</g>
		<g>
			<g>
				<path class="st1" d="M40.2,227.3c0.8,5.9,1.5,12,3.2,17.7c0.2,0.6,1.1,0.4,1-0.3c-1-5.9-2.5-11.6-3.4-17.5
					C40.8,226.8,40.1,226.9,40.2,227.3L40.2,227.3z"/>
			</g>
		</g>
		<g>
			<g>
				<path class="st1" d="M42.4,226.9c1.1,5,1.2,10.2,2.5,15.1c0.1,0.5,0.8,0.4,0.8-0.1c0.1-5-1.5-10.3-2.8-15.1
					C42.8,226.4,42.3,226.5,42.4,226.9L42.4,226.9z"/>
			</g>
		</g>
		<g>
			<g>
				<path class="st1" d="M44.5,226c0.3,2,0.6,3.9,0.9,5.9c0.3,1.9,0.4,4.1,1.1,5.9c0.2,0.5,0.9,0.4,0.9-0.1c0.1-1.9-0.5-3.8-0.9-5.6
					c-0.4-2.1-0.8-4.2-1.3-6.3C45.2,225.2,44.4,225.5,44.5,226L44.5,226z"/>
			</g>
		</g>
		<g>
			<g>
				<path class="st1" d="M46.2,227.8c0.3,1.7,0.6,3.4,0.9,5.1c0.3,1.5,0.4,3.1,1.2,4.4c0.2,0.3,0.7,0.2,0.7-0.2
					c0.1-1.5-0.5-3-0.9-4.5c-0.4-1.7-0.8-3.4-1.1-5C46.9,227,46.1,227.2,46.2,227.8L46.2,227.8z"/>
			</g>
		</g>
		<g>
			<g>
				<path class="st1" d="M48.2,229.7c0.5,1.4,0.9,2.8,1.2,4.3c0.3,1.3,0.2,2.7,0.9,3.9c0.2,0.4,0.8,0.3,0.9-0.1
					c0.3-1.3-0.2-2.6-0.5-3.8c-0.4-1.5-0.9-3-1.5-4.5C49,228.8,48,229,48.2,229.7L48.2,229.7z"/>
			</g>
		</g>
		<g>
			<g>
				<path class="st1" d="M90.1,188.7c0.1,5.1,0.6,10.9,2.9,15.6c0.2,0.4,0.7,0.1,0.7-0.3c-0.9-5.1-2.5-10.1-3.2-15.3
					C90.4,188.4,90.1,188.5,90.1,188.7L90.1,188.7z"/>
			</g>
		</g>
		<g>
			<g>
				<path class="st1" d="M92,187.3c0.8,5.8,1.4,11.6,2.4,17.3c0.1,0.8,1.3,0.4,1.2-0.3c-0.8-5.7-2.1-11.4-3.2-17.1
					C92.4,186.9,92,187,92,187.3L92,187.3z"/>
			</g>
		</g>
		<g>
			<g>
				<path class="st1" d="M94.5,187.5c0.5,5.4,0.2,11.6,1.9,16.8c0.2,0.5,0.9,0.4,0.9-0.1c0.4-5.4-1.3-11.4-2.1-16.8
					C95.1,187.1,94.4,187.1,94.5,187.5L94.5,187.5z"/>
			</g>
		</g>
		<g>
			<g>
				<path class="st1" d="M96.9,185.6c0.1,2.3,0.3,4.7,0.4,7c0.1,2,0,4.2,0.6,6.1c0.1,0.3,0.6,0.4,0.7,0c0.4-2-0.1-4.1-0.3-6.1
					c-0.2-2.3-0.5-4.7-0.7-7C97.5,185.2,96.9,185.2,96.9,185.6L96.9,185.6z"/>
			</g>
		</g>
		<g>
			<g>
				<path class="st1" d="M99.8,187c0,3.8-0.6,8.4,0.5,12.1c0.1,0.3,0.6,0.3,0.6,0c0.7-3.8-0.3-8.3-0.6-12.1
					C100.3,186.7,99.8,186.7,99.8,187L99.8,187z"/>
			</g>
		</g>
		<g>
			<g>
				<path class="st1" d="M101.8,189.4c0.2,3.3-0.2,7.2,0.7,10.3c0.1,0.4,0.7,0.4,0.8,0c0.5-3.3-0.3-7-0.5-10.3
					C102.8,188.8,101.8,188.8,101.8,189.4L101.8,189.4z"/>
			</g>
		</g>
		<g>
			<g>
				<path class="st1" d="M104.8,190.6c0.1,3.3-0.3,6.7,0,10c0,0.4,0.7,0.6,0.8,0.1c0.7-3.2,0.4-6.8,0.1-10.1
					C105.6,190,104.8,190,104.8,190.6L104.8,190.6z"/>
			</g>
		</g>
		<g>
			<g>
				<path class="st1" d="M93.2,212.6c3.7,11.9,14,18.9,22,28c0.4,0.4,1.1-0.1,0.8-0.6c-5.9-10.2-20.5-14.8-22.5-27.4
					C93.4,212.4,93.1,212.5,93.2,212.6L93.2,212.6z"/>
			</g>
		</g>
		<g>
			<g>
				<path class="st1" d="M118.8,244.3c2.9,2.9,3.8,6.2,4.9,10c0.1,0.3,0.5,0.2,0.5-0.1c0.2-3.9-2.4-7.7-5.2-10.1
					C118.9,244,118.7,244.2,118.8,244.3L118.8,244.3z"/>
			</g>
		</g>
		<g>
			<g>
				<path class="st1" d="M104.7,234.5c2.3,2.2,4.4,4.6,6.3,7.3c0.1,0.2,0.4,0,0.3-0.2C109.4,239,107.2,236.6,104.7,234.5
					C104.8,234.4,104.7,234.5,104.7,234.5L104.7,234.5z"/>
			</g>
		</g>
		<g>
			<g>
				<path class="st1" d="M56.6,233.6c4.9,5.5,8.3,11.5,11.5,18.1c0.1,0.2,0.4,0.1,0.4-0.2c-2.5-6.7-6.9-12.8-11.7-18.1
					C56.7,233.3,56.5,233.5,56.6,233.6L56.6,233.6z"/>
			</g>
		</g>
		<g>
			<g>
				<path class="st1" d="M72.8,258.5c3.1,6.4,8.3,12.6,15.1,15.5c0.3,0.1,0.5-0.4,0.2-0.5C82,269.2,76.8,264.9,72.8,258.5
					C72.9,258.4,72.8,258.5,72.8,258.5L72.8,258.5z"/>
			</g>
		</g>
		<g>
			<g>
				<path class="st1" d="M70.7,250.4c2.8,4.8,6.3,9.8,10.6,13.5c0.2,0.2,0.5-0.1,0.3-0.3C77.7,259.3,73.9,255.3,70.7,250.4
					C70.8,250.3,70.7,250.3,70.7,250.4L70.7,250.4z"/>
			</g>
		</g>
		<g>
			<g>
				<path class="st1" d="M91.8,275.2c2.5,1.2,5.6,1.9,8.4,1.1c0.4-0.1,0.3-0.8-0.1-0.8c-2.8-0.1-5.4,0.1-8.1-0.6
					C91.7,274.9,91.6,275.2,91.8,275.2L91.8,275.2z"/>
			</g>
		</g>
		<g>
			<g>
				<path class="st1" d="M91.6,271.9c1.6,1.1,3.6,1.9,5.5,1.8c0.3,0,0.3-0.4,0-0.4c-2-0.2-3.7-0.5-5.4-1.6
					C91.6,271.6,91.5,271.8,91.6,271.9L91.6,271.9z"/>
			</g>
		</g>
		<g>
			<g>
				<path class="st1" d="M91.9,264.4c3.2,3,6.6,5.8,10.5,7.7c0.2,0.1,0.4-0.2,0.2-0.3c-3.7-2.3-7.3-4.6-10.6-7.5
					C91.9,264.1,91.8,264.3,91.9,264.4L91.9,264.4z"/>
			</g>
		</g>
		<g>
			<g>
				<path class="st1" d="M100.8,268.2c1.2,1.6,2.6,2.9,4.3,3.9c0.2,0.1,0.4-0.2,0.2-0.3C103.5,270.9,102,269.7,100.8,268.2
					C100.8,268.1,100.7,268.2,100.8,268.2L100.8,268.2z"/>
			</g>
		</g>
		<g>
			<g>
				<path class="st1" d="M100.9,265.6c1.9,1.6,3.8,3.2,5.7,4.8c0.1,0.1,0.2-0.1,0.1-0.1C104.8,268.6,102.9,267.1,100.9,265.6
					C101,265.5,100.9,265.5,100.9,265.6L100.9,265.6z"/>
			</g>
		</g>
		<g>
			<g>
				<path class="st1" d="M99.2,259.4c3.2,2.6,6.1,5.5,8.5,8.9c0.1,0.2,0.4,0,0.3-0.2c-2.5-3.3-5.3-6.3-8.6-8.9
					C99.2,259.1,99,259.3,99.2,259.4L99.2,259.4z"/>
			</g>
		</g>
		<g>
			<g>
				<path class="st1" d="M109.6,267.9c0.9,1.2,1.7,2.3,2.6,3.5c0.2,0.2,0.5,0,0.3-0.2c-0.9-1.1-1.8-2.2-2.7-3.3
					C109.7,267.6,109.5,267.8,109.6,267.9L109.6,267.9z"/>
			</g>
		</g>
		<g>
			<g>
				<path class="st1" d="M110,265.8c1.2,1.3,2.4,2.8,3.7,4c0.2,0.2,0.5-0.1,0.3-0.3c-1.1-1.4-2.6-2.6-3.8-3.9
					C110,265.5,109.8,265.7,110,265.8L110,265.8z"/>
			</g>
		</g>
		<g>
			<g>
				<path class="st1" d="M105.2,257.4c3.1,2.7,5.5,5.8,7.9,9c0.2,0.3,0.7,0,0.5-0.3c-2.1-3.4-5.1-6.5-8.1-9.1
					C105.3,256.9,104.9,257.2,105.2,257.4L105.2,257.4z"/>
			</g>
		</g>
		<g>
			<g>
				<path class="st1" d="M114.3,262.8c0.5,0.7,1.1,1.3,1.6,2c0.5,0.6,0.9,1.3,1.6,1.7c0.2,0.1,0.4-0.1,0.3-0.3
					c-0.3-0.7-1-1.2-1.5-1.8c-0.6-0.6-1.2-1.2-1.8-1.8C114.4,262.4,114.1,262.6,114.3,262.8L114.3,262.8z"/>
			</g>
		</g>
		<g>
			<g>
				<path class="st1" d="M109.6,253.7c2.8,2.6,4.9,5.6,7.3,8.6c0.2,0.3,0.6-0.1,0.5-0.4c-1.7-3.4-4.6-6.1-7.6-8.5
					C109.6,253.4,109.4,253.6,109.6,253.7L109.6,253.7z"/>
			</g>
		</g>
		<g>
			<g>
				<path class="st1" d="M117.3,257.1c0.9,1.2,1.8,2.4,2.7,3.6c0.7,0.9,1.3,2.1,2.3,2.8c0.2,0.2,0.4-0.2,0.4-0.4
					c-0.5-1.1-1.5-2.1-2.3-3c-0.9-1.1-1.8-2.2-2.7-3.2C117.5,256.7,117.2,256.9,117.3,257.1L117.3,257.1z"/>
			</g>
		</g>
		<g>
			<g>
				<path class="st1" d="M112.5,247.4c1.9,1.6,3.6,3.3,5,5.3c1.3,1.8,2.2,3.9,3.4,5.8c0.3,0.4,1,0.2,0.8-0.4
					c-1.3-4.5-5.4-8.4-9.1-11C112.5,247.1,112.3,247.3,112.5,247.4L112.5,247.4z"/>
			</g>
		</g>
		<g>
			<g>
				<path class="st1" d="M32.2,253c-12.5-6-18.3-15.9-18.9-29.6c0-0.4-0.6-0.5-0.7-0.1c-2.3,13,6.8,26.7,19.3,30.4
					C32.3,253.8,32.6,253.2,32.2,253L32.2,253z"/>
			</g>
		</g>
		<g>
			<g>
				<path class="st1" d="M13.1,210.3c1.7-8.6,4.9-16.4,9.5-23.8c0.1-0.1-0.1-0.2-0.2-0.1C17.6,193.5,14.5,201.6,13.1,210.3
					C13.1,210.3,13.1,210.3,13.1,210.3L13.1,210.3z"/>
			</g>
		</g>
		<g>
			<g>
				<path class="st1" d="M29.3,177.4c2.9-3.3,6.2-6,9.7-8.6c0.2-0.2,0-0.6-0.2-0.4c-3.6,2.4-6.8,5.5-9.6,8.9
					C29.1,177.3,29.2,177.5,29.3,177.4L29.3,177.4z"/>
			</g>
		</g>
		<g>
			<g>
				<path class="st1" d="M42.5,166c0.9-0.6,1.8-1.2,2.7-1.8c0.2-0.1,0-0.4-0.2-0.3c-0.9,0.6-1.7,1.3-2.6,1.9
					C42.3,165.9,42.4,166.1,42.5,166L42.5,166z"/>
			</g>
		</g>
		<g>
			<g>
				<path class="st1" d="M52.8,160.4c9.3-5.8,18.4-6.8,29-6.7c0.3,0,0.4-0.4,0.1-0.5C72.1,150.6,60.7,154.4,52.8,160.4
					C52.8,160.4,52.8,160.4,52.8,160.4L52.8,160.4z"/>
			</g>
		</g>
		<g>
			<g>
				<path class="st1" d="M96.9,156.3c4.9,0.9,9.6,4,13.2,7.2c3.7,3.3,5.6,7.2,8.2,11.2c0.2,0.4,0.8,0.1,0.7-0.3
					C116.7,164.1,106,158.8,97,156C96.8,155.9,96.7,156.2,96.9,156.3L96.9,156.3z"/>
			</g>
		</g>
		<g>
			<g>
				<path class="st1" d="M113.2,174.6c4.9,4.9,5.4,11.2,2.8,17.3c-0.1,0.3,0.3,0.4,0.5,0.2C120.3,186.2,118.5,178.8,113.2,174.6
					C113.2,174.4,113.1,174.5,113.2,174.6L113.2,174.6z"/>
			</g>
		</g>
		<g>
			<g>
				<path class="st1" d="M17.9,230.7c-1.6-8-1.4-15.8,0.4-23.8c0.1-0.3-0.4-0.5-0.5-0.1c-2.1,7.9-1.9,16,0,24
					C17.8,230.8,17.9,230.8,17.9,230.7L17.9,230.7z"/>
			</g>
		</g>
		<g>
			<g>
				<path class="st1" d="M66.3,162.7c8.1-3.8,16.7-5.2,25.5-3.7c0.3,0,0.4-0.4,0.1-0.4c-9-1.6-17.7-0.3-25.7,4
					C66.2,162.6,66.2,162.7,66.3,162.7L66.3,162.7z"/>
			</g>
		</g>
		<g>
			<g>
				<path class="st1" d="M97.7,162c1.4,0.8,2.9,1.7,4.4,2.3c0.4,0.2,0.8-0.4,0.4-0.6c-1.5-0.7-3.1-1.3-4.7-1.8
					C97.7,161.9,97.7,162,97.7,162L97.7,162z"/>
			</g>
		</g>
		<g>
			<g>
				<path class="st1" d="M39.3,175.9c3.1-2.2,6.6-4,10.2-5.3c0.4-0.2,0.2-0.9-0.2-0.7c-3.8,1.3-7.1,3.3-10.2,5.8
					C39.1,175.8,39.2,176,39.3,175.9L39.3,175.9z"/>
			</g>
		</g>
	</g>
</g>
</svg>
