<?xml version="1.0" encoding="utf-8"?>
<!-- Generator: Adobe Illustrator 23.0.2, SVG Export Plug-In . SVG Version: 6.00 Build 0)  -->
<svg version="1.1" id="Layer_1" xmlns="http://www.w3.org/2000/svg" xmlns:xlink="http://www.w3.org/1999/xlink" x="0px" y="0px"
	 viewBox="0 0 304.6 374.3" style="enable-background:new 0 0 304.6 374.3;" xml:space="preserve">
<style type="text/css">
	.st0{fill:#FFFFFF;}
	.st1{fill:#726D54;}
</style>
<g>
	<g>
		<path class="st0" d="M235,163.7c-6.5-7.9-9.4-12.8-21.3-10.9c-9.6,1.5-14.8,7.8-16.2,17.2c-0.6,3.8-0.8,8.6,0.3,12.4
			c0.3,0.4,3.7,8.7,3.8,6.5c-0.1,1.8-0.3-1.2-2.8,1.6c-2.9,3.2-6.6,4.2-8.3,8.7c-1.3,3.3-0.9,6.2-0.2,9.1c-2.2,0.5-4.4,1.3-5.9,2.8
			c-3.8,3.8-4.3,9-4.3,14.3c-6.2,0.3-11.5,0.9-15.5,8c-4.3,7.6-1.7,14.2,1,21c-5.5,2.1-10.7,5-15.2,8.8c-5.3,4.5-5.5,8.9-8.5,14.1
			c-2.8,4.9-9.3,7.4-12.5,13c-0.2,2.1-0.7,4.2-1.3,6.3c-1.4,0.6-2.8,1.2-4.2,2c-3.1,3.4-8.1,8-11.8,10.7c-2.5,1.7-1.4,5,1.5,5.4
			c9.8,1.2,20.4-8.7,25.2-16c8.4-12.8,23.9-26.1,39.7-27.5c5.1-0.4,10.5-4.3,10-10c-0.2-3.5-3.4-10.3-3-13.3
			c-3.2-2.6-2.7-3.4,1.6-2.5c2-0.2,4-0.6,6-1c4.4-0.9,7.4-5.5,7.4-9.8c0.2-2.9,0.1-5.7-0.3-8.5c1.9-0.6,4.3-0.5,6.1-1.9
			c2.6-1.9,5.2-4.8,4.8-8.4c-0.1-0.7-1.3-6.1-1.8-8c0.6,0.2,2.1-0.6,3.1-1.7c3.9-4.3,7.5-4.1,8.5-10.8c1-7.1-5.7-10.8-6.3-17
			c-1.3-13.9,8.2-9.9,16.5-8.1C235.2,170.9,237.4,166.6,235,163.7z"/>
		<path class="st0" d="M197.9,182.8c0-0.1,0-0.2-0.1-0.4C197.8,182.3,197.8,182.4,197.9,182.8z"/>
	</g>
	<g>
		<g>
			<g>
				<path class="st1" d="M2.3,361.7c5.4-11.7,20.7-13.6,31.6-17.3c11-3.7,21.5-8.5,31.6-14.1c21-11.6,40.1-26.5,56.5-44
					c16.1-17.1,29.6-36.7,39.6-57.9c5.7-12.1,9.9-24.6,14-37.3c4.3-13.2,8.9-26.5,17-37.9c8.3-11.6,20.4-20.9,35.1-21.3
					c7.2-0.2,14.5,1.7,20.1,6.3c6.6,5.5,9.1,13.3,9.8,21.6c0.3,3.3,4.6,3.1,5,0c1.7-12.5-6.4-25.2-17.6-30.5
					c-10.7-5.1-23.5-4.6-34.2,0.1c-26.8,11.8-35.4,42.6-43.4,68c-16.3,51.9-50.5,96.6-97,125.2c-12.7,7.8-26.2,14.4-40.2,19.7
					c-10.3,3.9-25.3,6.8-28.1,19.4C2.1,361.8,2.2,361.8,2.3,361.7L2.3,361.7z"/>
			</g>
		</g>
		<g>
			<g>
				<path class="st1" d="M258.5,147.9c6,3.2,11.8,3.1,18.4,3.3c8.6,0.3,15.5,3.5,19.7,11.3c7.4,13.7,1.5,31.9-3.8,45.4
					c-10.6,26.5-29.8,48.6-50.1,68.2c-44.8,43-97.7,79.9-160.3,89.9c-18.1,2.9-36.3,3.1-54.5,1.4c-4.7-0.4-9.3-1.1-13.9-1.9
					c-2-0.4-4.2-0.7-6.1-1.5c-2.9-1.2-4.1-4.4-1.7-6.8c6.2-6.3,16.5-8.8,24.5-12.1c0.7-0.3,0.7-1.5-0.2-1.4
					c-7.7,0.8-15,3.7-21.9,7.3c-4.4,2.3-10.3,6.4-8,12.3c2.3,5.9,10.5,6.8,15.8,7.8c8.7,1.7,17.5,2.8,26.3,3.2
					c36.1,1.4,71.9-7.3,104.5-22.5c32.5-15.2,61-36.7,87.4-60.8c23.7-21.6,46.8-45.7,60.1-75.3c6.7-15,13.9-35.2,7.6-51.4
					c-2.6-6.7-7.4-12.5-14.2-15.1c-9.4-3.6-19.6,0.2-29.2-1.9C258.3,147,258,147.6,258.5,147.9L258.5,147.9z"/>
			</g>
		</g>
		<g>
			<g>
				<path class="st1" d="M233.9,129.3c2.6-8.4,13.1-7.7,20.2-7.9c3.2-0.1,6.4-0.3,9.6-0.3c4.5,0,6.5,2.2,9.3,5.1
					c4.2,4.3,9.6,7.1,13.6,11.5c4.9,5.5,5.3,11.4,6.4,18.2c0.4,2.4,4.3,2.3,4.8,0c1.6-7.4-2.2-15.8-7.1-21.1c-2.7-3-6.1-5.2-9.3-7.5
					c-3.6-2.6-6.4-6.6-10.1-8.9c-3-1.8-6.8-1.4-10.1-1.3c-4.7,0.3-9.5,0.4-14.3,0.8c-6.7,0.7-13.6,3.5-15.2,10.7
					C231.3,130.1,233.4,130.7,233.9,129.3L233.9,129.3z"/>
			</g>
		</g>
		<g>
			<g>
				<path class="st1" d="M287.5,3.4c7.7,18.5,7.5,37.7,3.5,57.1c-4,19.6-9.9,39.5-20.7,56.5c-3.8,6,5.6,11.4,9.5,5.5
					c12.4-18.7,17.3-40.2,20.7-62c3-19.5,4.9-42.6-7.7-59.3C291.1-1.1,286.1,0.1,287.5,3.4L287.5,3.4z"/>
			</g>
		</g>
		<g>
			<g>
				<path class="st1" d="M39,358.9c0.2,1.6,0.2,3.2-0.1,4.8c-0.3,1.3-0.7,2.2-0.6,3.5c0.1,0.5,0.7,0.6,1,0.3c2.1-2,1.1-6.3,0.3-8.7
					C39.5,358.5,39,358.5,39,358.9L39,358.9z"/>
			</g>
		</g>
		<g>
			<g>
				<path class="st1" d="M43.5,359.3c0.8,3.3,0.2,5.8-0.4,9c-0.1,0.8,1.1,1.6,1.5,0.6c1.4-3,0.9-6.9-0.1-10
					C44.3,358.4,43.3,358.7,43.5,359.3L43.5,359.3z"/>
			</g>
		</g>
		<g>
			<g>
				<path class="st1" d="M49.3,356.9c1.4,3.9,1.2,7.3,0.9,11.3c-0.1,1.1,1.6,1.3,1.8,0.2c1-3.9-0.1-8.4-1.8-12
					C50,356,49.1,356.3,49.3,356.9L49.3,356.9z"/>
			</g>
		</g>
		<g>
			<g>
				<path class="st1" d="M55.7,346.5c1.2,4.4,2,8.9,2.3,13.4c0.2,3.6-0.4,7.3,0.3,10.8c0.2,1.4,2.3,1.2,2.6,0
					c2.1-7.5-1.2-17.6-3.8-24.6C56.8,345.3,55.5,345.6,55.7,346.5L55.7,346.5z"/>
			</g>
		</g>
		<g>
			<g>
				<path class="st1" d="M64.4,357.4c0.1,4.1-0.4,8.9,0.6,12.8c0.3,1.2,1.9,0.8,2-0.3c0.2-2-0.4-4.1-0.7-6c-0.3-2.2-0.6-4.4-1-6.7
					C65.3,356.6,64.4,356.8,64.4,357.4L64.4,357.4z"/>
			</g>
		</g>
		<g>
			<g>
				<path class="st1" d="M70.3,359.3c0,1.9,0,3.9,0,5.8c0,1.7-0.2,3.3,0.5,4.9c0.5,1.1,1.9,0.6,2.3-0.3c0.6-1.5,0.2-3.4,0-5
					c-0.1-1.8-0.3-3.6-0.4-5.4C72.7,357.7,70.3,357.6,70.3,359.3L70.3,359.3z"/>
			</g>
		</g>
		<g>
			<g>
				<path class="st1" d="M76,356.3c-0.1,2.5-0.1,5-0.2,7.4c-0.1,2.1-0.4,4.2,0.5,6.1c0.4,0.9,1.9,0.9,2.3,0c0.9-1.9,0.6-4,0.6-6.1
					c0-2.5,0-5-0.1-7.4C79.1,354.3,76.1,354.3,76,356.3L76,356.3z"/>
			</g>
		</g>
		<g>
			<g>
				<path class="st1" d="M79.1,338.7c2.4,7.2,3.1,14.4,3.8,21.9c0.2,1.8,2.9,1.9,2.9,0c0.2-7.8-2.3-15.3-5.5-22.4
					C80,337.6,78.9,338,79.1,338.7L79.1,338.7z"/>
			</g>
		</g>
		<g>
			<g>
				<path class="st1" d="M87.3,357.1c-0.1,1.8-0.2,3.6-0.3,5.4c-0.1,1.6-0.4,3.3,0,4.8c0.2,0.8,1.4,0.8,1.6,0
					c0.4-1.5,0.2-3.2,0.1-4.8c-0.1-1.8-0.1-3.6-0.2-5.4C88.6,356.3,87.4,356.3,87.3,357.1L87.3,357.1z"/>
			</g>
		</g>
		<g>
			<g>
				<path class="st1" d="M92.2,349c-0.2,3.1-0.4,6.2-0.2,9.3c0.1,1.6,2.7,2.2,3.1,0.4c0.7-3.2,0.8-6.4,1.1-9.7
					C96.3,346.4,92.3,346.4,92.2,349L92.2,349z"/>
			</g>
		</g>
		<g>
			<g>
				<path class="st1" d="M27.6,360.6c-0.2,1.6-0.5,3.3-0.7,4.9c-0.2,1.5-0.1,2.8,0.1,4.3c0.1,1,1.5,0.7,1.8,0
					c1.2-2.9,1.3-5.8,1.6-8.9C30.6,359.3,27.8,358.9,27.6,360.6L27.6,360.6z"/>
			</g>
		</g>
		<g>
			<g>
				<path class="st1" d="M94.3,335.1c4.4,8.1,4.8,15.7,5.8,24.6c0.1,1.1,1.8,1.5,2,0.3c1.5-8.7-2.5-18.1-7.4-25.1
					C94.5,334.6,94.2,334.8,94.3,335.1L94.3,335.1z"/>
			</g>
		</g>
		<g>
			<g>
				<path class="st1" d="M104.6,340.7c1.2,4.9,1.8,10.7,3.9,15.3c0.5,1,2.3,0.5,2.1-0.6c-0.6-5.1-3-10.3-4.6-15.1
					C105.7,339.4,104.4,339.8,104.6,340.7L104.6,340.7z"/>
			</g>
		</g>
		<g>
			<g>
				<path class="st1" d="M103.5,324.5c1.8,1.5,3.4,3.3,4.7,5.3c1.2,1.8,1.8,3.9,2.9,5.8c0.3,0.5,1.1,0.2,0.9-0.4
					c-0.9-4.3-4.9-8.4-8.3-11C103.6,324,103.3,324.3,103.5,324.5L103.5,324.5z"/>
			</g>
		</g>
		<g>
			<g>
				<path class="st1" d="M115.4,341.5c1.5,3.5,2.2,7.1,2.2,10.9c0,0.8,1.3,0.8,1.2,0c-0.2-3.9-1.1-7.7-2.9-11.2
					C115.7,340.9,115.2,341.2,115.4,341.5L115.4,341.5z"/>
			</g>
		</g>
		<g>
			<g>
				<path class="st1" d="M117.4,316.6c1.7,1.7,3.2,3.5,4.4,5.5c1.1,1.8,1.7,4.1,2.9,5.7c0.6,0.8,1.7,0.3,1.5-0.6c-0.3-2-2-4-3.2-5.6
					c-1.5-2-3.3-3.7-5.3-5.3C117.5,316.2,117.2,316.4,117.4,316.6L117.4,316.6z"/>
			</g>
		</g>
		<g>
			<g>
				<path class="st1" d="M127.8,335.6c1.8,5.6,1.8,11.4,3.4,17c0.4,1.3,2.1,0.9,2.2-0.3c0.6-5.9-2.4-11.9-5.3-16.9
					C128.1,335.2,127.8,335.3,127.8,335.6L127.8,335.6z"/>
			</g>
		</g>
		<g>
			<g>
				<path class="st1" d="M136.3,323c1.7,3.5,3.1,7.1,4,10.8c0.8,3.3,0.7,6.9,1.8,10.1c0.2,0.7,1.4,0.9,1.6,0
					c1.5-6.9-2.8-15.8-6.2-21.7C137.1,321.4,135.9,322.2,136.3,323L136.3,323z"/>
			</g>
		</g>
		<g>
			<g>
				<path class="st1" d="M136.8,302.7c5,5.1,9.1,10.9,12,17.4c2.4,5.6,2.7,12.6,6,17.6c0.4,0.7,1.5,0.6,1.7-0.2
					c1.9-6.1-1.9-13.6-4.8-18.9c-3.5-6.5-8.3-12.1-14-16.9C137.1,301.3,136.3,302.1,136.8,302.7L136.8,302.7z"/>
			</g>
		</g>
		<g>
			<g>
				<path class="st1" d="M157.4,317.6c1.5,2.9,2.7,5.8,3.7,8.9c0.8,2.5,1,5.4,2.3,7.8c0.9,1.5,2.9,0.7,3.1-0.8c0.4-3-1.3-6.3-2.4-9
					c-1.2-2.9-2.6-5.6-4.2-8.3C158.9,314.5,156.5,315.9,157.4,317.6L157.4,317.6z"/>
			</g>
		</g>
		<g>
			<g>
				<path class="st1" d="M162.4,302.4c4.1,8.2,6.4,16.4,8.4,25.3c0.5,2,3.9,1.6,3.7-0.5c-1.1-9.3-4.6-18.4-8.9-26.7
					C164.5,298.3,161.3,300.2,162.4,302.4L162.4,302.4z"/>
			</g>
		</g>
		<g>
			<g>
				<path class="st1" d="M165.3,280c4.9,5.9,9.2,12.2,12.8,18.9c3.3,6.2,5,13.6,9,19.3c0.5,0.8,2,0.6,1.9-0.5
					c-0.4-7-5.2-14.3-8.7-20.1c-4-6.7-8.8-12.9-14-18.6C165.7,278.3,164.8,279.3,165.3,280L165.3,280z"/>
			</g>
		</g>
		<g>
			<g>
				<path class="st1" d="M188.4,295.2c1.5,3.3,3,6.5,4.6,9.8c1.3,2.8,2.3,6.3,4.6,8.5c0.7,0.6,2.1,0.2,1.9-0.8
					c-0.3-3.1-2.2-5.8-3.6-8.6c-1.7-3.4-3.5-6.9-5.2-10.3C190,292.3,187.7,293.7,188.4,295.2L188.4,295.2z"/>
			</g>
		</g>
		<g>
			<g>
				<path class="st1" d="M199.1,294.4c1.5,2.1,2.6,4.4,3.4,6.8c0.6,2,0.4,4.4,1.6,6.2c0.3,0.5,1.3,0.7,1.6,0c0.9-2.1,0-4.8-0.7-6.9
					c-0.9-2.6-2.2-5.1-3.9-7.3C200.2,292.1,198.3,293.2,199.1,294.4L199.1,294.4z"/>
			</g>
		</g>
		<g>
			<g>
				<path class="st1" d="M189.2,263.9c4.6,4.5,8.8,9.3,12.7,14.5c3.6,4.8,6.4,10,10,14.8c0.9,1.2,2.5,0.2,2-1.2
					c-4.8-11.2-14.8-21.1-23.7-29C189.5,262.5,188.6,263.4,189.2,263.9L189.2,263.9z"/>
			</g>
		</g>
		<g>
			<g>
				<path class="st1" d="M214.8,275.5c2.6,6.1,4.7,13,8.2,18.6c0.7,1.2,2.7,0.4,2.3-1c-1.9-6.4-5.8-12.7-8.7-18.7
					C216,273.2,214.3,274.3,214.8,275.5L214.8,275.5z"/>
			</g>
		</g>
		<g>
			<g>
				<path class="st1" d="M210.4,254.1c4,3.9,7.4,8.2,10.1,13c2.5,4.5,3.8,9.3,5.9,14c0.4,0.9,2,0.5,1.9-0.5
					c-1.1-10.5-9.3-20.6-17.1-27.4C210.7,252.7,209.8,253.6,210.4,254.1L210.4,254.1z"/>
			</g>
		</g>
		<g>
			<g>
				<path class="st1" d="M199.5,233.8c4.4,0.8,8.5,2.2,12.3,4.5c3.9,2.4,6.6,5.6,9.8,8.6c0.8,0.7,2.1-0.2,1.5-1.1
					c-4.8-7.6-15.1-11.6-23.6-12.5C199.3,233.4,199.3,233.8,199.5,233.8L199.5,233.8z"/>
			</g>
		</g>
		<g>
			<g>
				<path class="st1" d="M230.2,250.4c0.9,1.4,1.8,2.8,2.7,4.2c0.8,1.3,1.5,2.7,2.6,3.8c0.7,0.7,1.8-0.2,1.3-1
					c-0.7-1.3-1.9-2.4-2.9-3.6c-1.1-1.3-2.1-2.5-3.2-3.8C230.4,249.8,230,250.1,230.2,250.4L230.2,250.4z"/>
			</g>
		</g>
		<g>
			<g>
				<path class="st1" d="M240.8,265c0.7,2.3,1.3,4.6,2,7c0.6,2,0.9,4.1,2.2,5.8c0.8,1,2.5,0.1,2.5-1c0-2.1-1.2-4-2-5.9
					c-0.9-2.1-1.7-4.2-2.6-6.3C242.3,263.3,240.4,263.7,240.8,265L240.8,265z"/>
			</g>
		</g>
		<g>
			<g>
				<path class="st1" d="M213,212.7c12.2,3,20.6,9.8,30.4,17c0.8,0.6,2-0.6,1.4-1.4c-7.2-9.6-20.3-14.2-31.8-15.8
					C213,212.5,212.9,212.7,213,212.7L213,212.7z"/>
			</g>
		</g>
		<g>
			<g>
				<path class="st1" d="M246,239.2c2.1,2.8,4,5.7,5.7,8.7c1.7,3,2.8,6.5,4.7,9.3c0.8,1.3,2.9,0.5,2.5-1c-1.8-6.6-7.2-13-11.6-18
					C246.7,237.5,245.4,238.5,246,239.2L246,239.2z"/>
			</g>
		</g>
		<g>
			<g>
				<path class="st1" d="M237.8,246.2c1.7,2.8,3.4,5.6,5.1,8.4c1.5,2.5,2.8,5.2,4.8,7.4c0.8,0.9,2.1-0.3,1.6-1.3
					c-1.2-2.8-3.3-5.2-5-7.7c-1.7-2.5-3.5-5.1-5.2-7.6C238.5,244.7,237.3,245.4,237.8,246.2L237.8,246.2z"/>
			</g>
		</g>
		<g>
			<g>
				<path class="st1" d="M235.3,205.1c6.6,5,12.7,10.7,18,17.1c2.7,3.2,5.1,6.6,7.4,10.2c1.9,3,3.3,6.7,6,9c0.7,0.5,2.1,0.3,1.9-0.8
					c-0.8-7-8.3-14.5-12.9-19.6c-5.8-6.5-12.5-12.2-19.7-17.1C235.3,203.3,234.6,204.6,235.3,205.1L235.3,205.1z"/>
			</g>
		</g>
		<g>
			<g>
				<path class="st1" d="M262.5,227.9c2.5,2.5,4.7,5.3,6.5,8.3c1.5,2.5,2.5,6,4.6,8c0.9,0.9,2.7,0.3,2.7-1.1
					c-0.2-3.1-2.7-5.9-4.6-8.3c-2.3-3-5-5.7-7.9-8.2C262.9,225.8,261.6,227,262.5,227.9L262.5,227.9z"/>
			</g>
		</g>
		<g>
			<g>
				<path class="st1" d="M259.2,205c3.2,2.5,6.3,5.2,9,8.2c2.8,3,4.8,6.6,7.6,9.6c0.9,0.9,2.1-0.2,1.6-1.3
					c-3.2-7.2-10.8-13.5-17-18.2C259.5,202.7,258.3,204.3,259.2,205L259.2,205z"/>
			</g>
		</g>
		<g>
			<g>
				<path class="st1" d="M256.1,187.7c6,2.1,11.7,4.7,17.1,8c4.9,3,9.1,7.4,14.1,10.1c0.5,0.3,1.2-0.3,0.9-0.9
					c-3.3-4.7-9.2-8-14.1-10.7c-5.6-3.2-11.5-5.6-17.7-7.5C255.7,186.5,255.5,187.4,256.1,187.7L256.1,187.7z"/>
			</g>
		</g>
		<g>
			<g>
				<path class="st1" d="M250.8,173.6c6.8,0.4,13.4,2.2,19.5,5.4c5.7,3,10.1,7.4,14.9,11.5c0.7,0.6,1.8-0.2,1.3-1
					c-7.1-11.4-22.9-16.7-35.7-16.9C250.1,172.5,250.1,173.5,250.8,173.6L250.8,173.6z"/>
			</g>
		</g>
		<g>
			<g>
				<path class="st1" d="M275.2,174c3.3,2.3,6.5,4.5,9.8,6.8c2.8,1.9,5.7,4.9,9.2,5.3c0.7,0.1,1.6-0.6,1.1-1.4
					c-1.9-2.8-5.5-4.1-8.4-5.6c-3.7-2-7.4-4-11.1-6C275.1,172.8,274.6,173.6,275.2,174L275.2,174z"/>
			</g>
		</g>
		<g>
			<g>
				<path class="st1" d="M275.7,159.5c2.5,0.9,5,2.2,7.3,3.5c2,1.2,3.7,3.1,5.9,3.8c1.3,0.5,2.4-1.2,1.8-2.3
					c-1.4-2.2-4.4-3.4-6.7-4.3c-2.7-1.1-5.2-1.5-8.1-1.5C275.3,158.6,275.3,159.3,275.7,159.5L275.7,159.5z"/>
			</g>
		</g>
		<g>
			<g>
				<path class="st1" d="M238.7,123c-0.2,1.8-0.4,3.5-0.6,5.3c-0.1,0.9,1.5,0.9,1.5,0c-0.1-1.8-0.2-3.5-0.3-5.3
					C239.3,122.6,238.8,122.6,238.7,123L238.7,123z"/>
			</g>
		</g>
		<g>
			<g>
				<path class="st1" d="M239.7,122.8c0.5,2.3,0.9,4.6,1.4,6.8c0.3,1.4,2.4,0.8,2.2-0.6c-0.4-2.3-0.8-4.6-1.2-6.9
					C241.8,120.6,239.4,121.2,239.7,122.8L239.7,122.8z"/>
			</g>
		</g>
		<g>
			<g>
				<path class="st1" d="M243.5,122.4c0.4,1.5,0.7,3.1,0.7,4.7c0,1.4-0.2,2.8,0.1,4.2c0.2,1,1.8,1.2,2.3,0.3c1.4-2.8,0.6-7,0-10
					C246,119.6,243,120.4,243.5,122.4L243.5,122.4z"/>
			</g>
		</g>
		<g>
			<g>
				<path class="st1" d="M246.7,122.6c0.3,2.3,0.5,4.6,0.4,6.9c-0.1,2.1-0.6,4.1-0.3,6.2c0.2,1.2,2,1.3,2.5,0.3
					c2-3.7,1.3-9.5,0.8-13.4C249.8,120.5,246.4,120.5,246.7,122.6L246.7,122.6z"/>
			</g>
		</g>
		<g>
			<g>
				<path class="st1" d="M252.1,122.2c0.7,3,1,6,0.9,9.1c-0.1,2.8-0.8,5.4-0.8,8.2c0,1.2,1.8,1.8,2.3,0.6c2.6-5.5,1.6-12.9,0.1-18.6
					C254.3,119.8,251.7,120.5,252.1,122.2L252.1,122.2z"/>
			</g>
		</g>
		<g>
			<g>
				<path class="st1" d="M259.2,120.4c0.3,4.7,0.3,9.4-0.6,14.1c-0.6,3.7-2,7.3-2.3,11c-0.1,1.3,1.7,1.6,2.3,0.6
					c4.4-7.1,3.3-18.1,1.9-26C260.4,119.4,259.1,119.6,259.2,120.4L259.2,120.4z"/>
			</g>
		</g>
		<g>
			<g>
				<path class="st1" d="M264.9,122.6c0.5,5,0.3,9.9-0.8,14.8c-0.9,3.9-3.7,7.7-3.6,11.7c0,0.9,1.1,1.6,1.9,1.1
					c3.7-2.6,4.6-8.4,5.3-12.7c0.9-5.1,0.8-10.2,0-15.3C267.5,120.6,264.7,121,264.9,122.6L264.9,122.6z"/>
			</g>
		</g>
		<g>
			<g>
				<path class="st1" d="M269.4,128.3c0.1,4-0.2,8-1.1,11.9c-0.8,3.2-2.6,6.2-2.8,9.5c-0.1,1.4,1.9,2.2,2.8,1.2
					c4.9-5.2,4.2-16.4,3.3-22.9C271.5,126.7,269.4,127,269.4,128.3L269.4,128.3z"/>
			</g>
		</g>
		<g>
			<g>
				<path class="st1" d="M273,131.7c-0.3,3.2-0.9,6.3-1.6,9.4c-0.6,2.5-1.6,4.5-0.6,6.9c0.5,1.1,2,1,2.8,0.4
					c2.1-1.7,1.9-4.8,2.2-7.3c0.3-3.1,0.3-6.3,0.2-9.4C275.8,129.8,273.1,129.8,273,131.7L273,131.7z"/>
			</g>
		</g>
		<g>
			<g>
				<path class="st1" d="M276.9,132.9c0,3.3-0.3,6.5-1.1,9.7c-0.6,2.5-1.9,4.4,0,6.6c0.4,0.4,1.1,0.6,1.6,0.4
					c0.2-0.1,0.4-0.1,0.5-0.2c0.8-0.3,1.6-0.9,1.8-1.8c0.9-4.9,1.1-9.8,0.5-14.8C280,130.8,276.9,130.7,276.9,132.9L276.9,132.9z"/>
			</g>
		</g>
		<g>
			<g>
				<path class="st1" d="M281,135.9c-0.4,2.5-0.7,4.9-1.1,7.4c-0.3,2-1.1,4.1,0.1,5.9c0.5,0.8,1.6,1,2.3,0.3
					c1.6-1.5,1.3-3.6,1.5-5.7c0.2-2.5,0.5-4.9,0.7-7.4C284.7,134.4,281.3,133.9,281,135.9L281,135.9z"/>
			</g>
		</g>
		<g>
			<g>
				<path class="st1" d="M284.4,140.6c-0.2,1.6-0.3,3.2-0.5,4.8c-0.2,1.6-0.5,2.9,0.2,4.3c0.5,1.2,2.3,0.9,2.9,0
					c0.8-1.3,0.7-2.9,0.8-4.3c0.1-1.6,0.2-3.2,0.4-4.8C288.4,138.2,284.7,138.2,284.4,140.6L284.4,140.6z"/>
			</g>
		</g>
		<g>
			<g>
				<path class="st1" d="M286.9,144.6c-0.1,1.3-0.1,2.5-0.2,3.8c-0.1,1.3-0.2,2.3,0.6,3.4c0.5,0.6,1.6,0.5,2.1,0
					c0.9-1,0.8-2.1,0.9-3.4c0.1-1.3,0.1-2.5,0.2-3.8C290.5,142.3,287,142.3,286.9,144.6L286.9,144.6z"/>
			</g>
		</g>
		<g>
			<g>
				<path class="st1" d="M260.9,150.1c1.9,0.1,3.8,0.1,5.6,0.2c1.6,0.1,3.3,0.4,4.8-0.5c0.7-0.5,0.9-1.7,0-2.1
					c-1.5-0.8-3.1-0.3-4.8-0.1c-1.9,0.2-3.8,0.5-5.6,0.7C259.8,148.4,259.7,150.1,260.9,150.1L260.9,150.1z"/>
			</g>
		</g>
		<g>
			<g>
				<path class="st1" d="M263.4,149.9c3.3,0,6.5-0.1,9.8-0.6c1.3-0.2,0.8-2.2-0.6-2c-3.2,0.5-6.2,1.2-9.3,2.2
					C263.1,149.6,263.1,149.9,263.4,149.9L263.4,149.9z"/>
			</g>
		</g>
		<g>
			<g>
				<path class="st1" d="M265.7,149.3c8.9-1.5,18.3-0.8,26.7,2.7c2.4,1,3.7-2,2.9-3.8c-0.8-1.8-1.5-3.6-2.4-5.4
					c-1-2.1-4.5-1.5-4.9,0.6c-0.1,0.7,0.1,5.9,0.4,5.7c-0.1,0.1-4.5-1.5-4.8-1.6c-1.6-0.4-3.3-0.7-5-0.9c-6.2-0.8-12.3-0.2-18.2,1.6
					c-3.3,1-1.9,6.2,1.4,5.2c4.7-1.4,9.4-2.1,14.3-1.7c4.3,0.3,8.1,2.5,12.2,3c2,0.3,4-0.2,5.1-2.1c1.7-2.8-0.9-5.1-0.3-7.8
					c-1.6,0.2-3.3,0.4-4.9,0.6c0.8,1.8,1.7,3.5,2.6,5.3c1-1.3,1.9-2.5,2.9-3.8c-9.7-3.4-19.2-3.4-28.7,0.8
					C264.1,148.2,264.8,149.5,265.7,149.3L265.7,149.3z"/>
			</g>
		</g>
		<g>
			<g>
				<path class="st1" d="M245.8,252.6c-16.8,18.8-35.7,34.7-54.9,51c-0.4,0.4,0.1,1.1,0.6,0.8c20.7-13.8,38.7-32.5,54.5-51.5
					C246.3,252.7,246,252.4,245.8,252.6L245.8,252.6z"/>
			</g>
		</g>
		<g>
			<g>
				<path class="st1" d="M175.2,305.6c-15,7.5-29.8,15.7-43.3,25.5c-0.8,0.5-0.1,1.7,0.7,1.3c15.1-7.3,29.3-16.5,43-26.1
					C176.1,306,175.7,305.4,175.2,305.6L175.2,305.6z"/>
			</g>
		</g>
		<g>
			<g>
				<path class="st1" d="M164.5,317.5c-7.7,4.1-15.4,8.1-22.7,13c-1.1,0.7-0.1,2.4,1,1.8c7.8-4.1,15-8.9,22.3-13.7
					C165.8,318.1,165.3,317.1,164.5,317.5L164.5,317.5z"/>
			</g>
		</g>
		<g>
			<g>
				<path class="st1" d="M70.5,356.4c13.2-3.2,26.9-6.8,39.2-12.8c0.6-0.3,0.2-1.4-0.5-1.1c-13,4.5-25.6,9.8-38.8,13.6
					C70.2,356.1,70.3,356.5,70.5,356.4L70.5,356.4z"/>
			</g>
		</g>
		<g>
			<g>
				<path class="st1" d="M86.9,356.5c8.4-1.6,18-3.8,25.3-8.5c0.9-0.6,0.3-2.4-0.8-1.9c-8.3,3.3-15.9,7.5-24.6,9.9
					C86.5,356.2,86.6,356.6,86.9,356.5L86.9,356.5z"/>
			</g>
		</g>
		<g>
			<g>
				<path class="st1" d="M117.8,346.1c3.1-1.1,6.2-2.1,9.4-3.2c2.5-0.8,5.3-1.3,7.2-3.2c0.4-0.4,0.1-1.3-0.5-1.2
					c-2.7,0.1-5,1.8-7.3,2.9c-2.9,1.5-5.9,3-8.8,4.5C117.6,345.9,117.6,346.1,117.8,346.1L117.8,346.1z"/>
			</g>
		</g>
		<g>
			<g>
				<path class="st1" d="M31.9,349.5c9.4-3.4,18.9-6.6,28.2-10.4c0.7-0.3,0.4-1.5-0.3-1.2c-9.4,3.5-18.6,7.5-27.9,11.4
					C31.7,349.3,31.8,349.5,31.9,349.5L31.9,349.5z"/>
			</g>
		</g>
		<g>
			<g>
				<path class="st1" d="M78.5,330.8c7.9-4.9,16.3-9.5,23.9-14.8c0.6-0.5,0.1-1.5-0.6-1.1c-8.1,4.7-15.7,10.5-23.4,15.7
					C78.3,330.7,78.3,330.9,78.5,330.8L78.5,330.8z"/>
			</g>
		</g>
		<g>
			<g>
				<path class="st1" d="M222.4,138.6c-12,3.5-21.4,12.6-24.1,24.8c-0.2,0.9,1.1,1.3,1.4,0.4c3.6-11.3,11.6-20.7,22.8-24.8
					C222.7,138.9,222.7,138.5,222.4,138.6L222.4,138.6z"/>
			</g>
		</g>
		<g>
			<g>
				<path class="st1" d="M173.4,210.9c-7.6,15.1-15.8,30-22.1,45.7c-0.4,1,1.2,1.6,1.7,0.7c8.9-14.2,16-29.6,23.6-44.5
					C177.7,210.6,174.5,208.7,173.4,210.9L173.4,210.9z"/>
			</g>
		</g>
		<g>
			<g>
				<path class="st1" d="M260.4,191.9c-4,6.6-8.9,12.5-13.7,18.5c-0.9,1.1,0.6,2.7,1.6,1.6c5.4-5.8,9.3-12.6,12.7-19.8
					C261.1,191.8,260.6,191.5,260.4,191.9L260.4,191.9z"/>
			</g>
		</g>
		<g>
			<g>
				<path class="st1" d="M263.2,196.5c-3.8,5.8-8.3,11.5-11.2,17.8c-0.3,0.7,0.6,1.6,1.1,0.9c4.4-5.5,7.6-12,11.1-18
					C264.7,196.4,263.7,195.8,263.2,196.5L263.2,196.5z"/>
			</g>
		</g>
		<g>
			<g>
				<path class="st1" d="M280.4,179.3c-4.5,11.1-9.9,21.5-15.6,32c-5.5,10-12.1,19.2-18.1,28.9c-0.7,1.2,1,2.6,2,1.5
					c15.7-17.2,25.8-40,33-62C281.9,178.9,280.7,178.6,280.4,179.3L280.4,179.3z"/>
			</g>
		</g>
		<g>
			<g>
				<path class="st1" d="M283.4,199.7c-4.8,8.4-10.6,16.8-14.3,25.7c-0.4,1,1.1,1.5,1.7,0.7c5.6-7.7,9.8-17,14.4-25.4
					C285.8,199.5,284.1,198.5,283.4,199.7L283.4,199.7z"/>
			</g>
		</g>
		<g>
			<g>
				<path class="st1" d="M269.4,176.8c0.1,0,0.1-0.2,0-0.2C269.3,176.6,269.3,176.8,269.4,176.8L269.4,176.8z"/>
			</g>
		</g>
		<g>
			<g>
				<path class="st1" d="M223.2,245.1c-9.1,12.4-19.6,23.6-28.8,35.9c-0.8,1.1,0.9,2.3,1.8,1.4c10.9-10.7,19.7-24,28.1-36.7
					C224.8,245.1,223.7,244.5,223.2,245.1L223.2,245.1z"/>
			</g>
		</g>
		<g>
			<g>
				<path class="st1" d="M230.1,252.6c-4.2,5.9-9,11.2-13.9,16.5c-1.2,1.3,0.6,3,1.9,1.9c5.7-4.8,10.5-10.7,14.9-16.7
					C234.2,252.5,231.4,250.8,230.1,252.6L230.1,252.6z"/>
			</g>
		</g>
	</g>
</g>
</svg>
