<?xml version="1.0" encoding="utf-8"?>
<!-- Generator: Adobe Illustrator 23.0.2, SVG Export Plug-In . SVG Version: 6.00 Build 0)  -->
<svg version="1.1" id="Layer_1" xmlns="http://www.w3.org/2000/svg" xmlns:xlink="http://www.w3.org/1999/xlink" x="0px" y="0px"
	 viewBox="0 0 301.9 362.7" style="enable-background:new 0 0 301.9 362.7;" xml:space="preserve">
<style type="text/css">
	.st0{fill:#FFFFFF;}
	.st1{fill:#726D54;}
</style>
<g>
	<path class="st0" d="M161.7,205.8c-17.1,14.1-27.2,33.2-39.7,51c-11.5,16.3-24.9,31.1-31.1,50.6c-0.8,2.7,2.9,4.9,4.8,2.8
		c7.2-8.1,10.4-17.2,16-26.1c4.9-7.9,11.5-15.1,17.1-22.6c6-8.1,11.2-17.2,16.1-26c5.4-9.6,12.4-19.1,19-28
		C164.7,206.1,162.8,204.9,161.7,205.8z"/>
	<path class="st0" d="M242.6,107.7c-2-0.9-3.3-0.9-5.5-1.1c-3.5-0.3-6.8-1.6-10-3.1c-2.8-1.3-5.7-2.8-8-4.9
		c-1.7-1.6-4.6-3.5-6.1-5.3c-1.4-1.7-3.6,0.2-3.3,1.9c0.9,5.7,6.5,10.4,10.9,13.5c3.1,2.2,6.1,3.9,9.7,5.2c3,1.1,5.9,0.7,8.9,1.3
		C243.8,116.3,247.1,109.8,242.6,107.7z"/>
	<path class="st0" d="M239.1,35.6c-6.1,6.2-11,14.5-15.2,22c-3.3,5.8-8.6,14.1-8.4,21c0,1.3,1.8,1.8,2.4,0.7
		c7.8-14.1,12.8-29.8,21.4-43.5C239.3,35.6,239.2,35.5,239.1,35.6z"/>
	<g>
		<g>
			<g>
				<path class="st1" d="M249.1,8.5C237.7,29,225.6,49,213.6,69.1c-5.7,9.5-11.9,19.3-15,30c-3.3,11.2-2.7,23-2.2,34.5
					c0.1,2.3,3.7,2.3,3.6,0c-0.7-11.8-1.4-24,2.3-35.4c3.6-11.1,10.3-21.5,16.2-31.6c11.1-18.8,24-37.2,30.8-58.1
					C249.4,8.5,249.2,8.4,249.1,8.5L249.1,8.5z"/>
			</g>
		</g>
		<g>
			<g>
				<path class="st1" d="M301.4,38.1c-14.3,18.8-25.1,40.5-37.8,60.5c-12.1,18.9-26.4,36.1-47.8,44.3c-2,0.8-1.2,4.1,0.9,3.3
					c20.3-7,35-24.4,46.4-41.8c6.6-10.1,12.6-20.7,18.8-31.1c6.9-11.5,14.3-22.8,20-35C302,38.1,301.6,37.9,301.4,38.1L301.4,38.1z"
					/>
			</g>
		</g>
		<g>
			<g>
				<path class="st1" d="M247.1,13.7c1.7-1.2,2.5-4.3,4.5-4.9c0.9-0.3,2.7,0,3.3,0.8c0.6,0.8,0.2,2.2,0,3c-0.4,1.6-1.4,3-1.8,4.6
					c-0.1,0.4,0.4,0.9,0.8,0.6c1.9-1.2,2.6-4,2.8-6.1c0.3-2-0.2-3.4-2.2-4.2c-1.7-0.7-3.9-0.7-5.2,0.8C248,9.8,248.2,12,247.1,13.7
					C247,13.6,247,13.7,247.1,13.7L247.1,13.7z"/>
			</g>
		</g>
		<g>
			<g>
				<path class="st1" d="M262.6,21.4c2.2-0.7,5-5.3,7.4-2.7c2.4,2.6-0.7,5.5-1.2,8c-0.1,0.5,0.5,1.1,1,0.7c3.1-2.1,4.4-7.8,1.2-10.5
					c-1.3-1.1-3.1-1.1-4.6-0.4c-1.7,0.8-3.9,2.7-3.9,4.6C262.5,21.4,262.5,21.5,262.6,21.4L262.6,21.4z"/>
			</g>
		</g>
		<g>
			<g>
				<path class="st1" d="M277.5,29.9c0.8-0.9,1.7-1.6,2.6-2.4c0.5-0.4,1-0.9,1.6-1.2c1.2-0.6,3.2-0.2,3.5,1.3
					c0.6,2.8-2.3,4.8-2.8,7.3c-0.1,0.6,0.5,1.2,1,0.8c1.7-1.1,2.6-3.6,3.1-5.5c0.4-1.6,0.4-3.4-0.8-4.6
					C282.4,22.4,278.6,27.1,277.5,29.9C277.4,29.9,277.5,29.9,277.5,29.9L277.5,29.9z"/>
			</g>
		</g>
		<g>
			<g>
				<path class="st1" d="M291.8,40c0.8-1,1.7-2.2,2.7-3.1c1.2-1,4.4-2.4,5.5-0.3c0.7,1.4-1,3.8-1.7,5c-0.7,1.2-1.2,2.2-1.6,3.5
					c-0.2,0.6,0.5,0.9,0.9,0.5c2.4-2.2,6.8-9.1,2.3-11.3c-4-1.9-7.7,1.9-8.7,5.4C291.1,40.1,291.6,40.2,291.8,40L291.8,40z"/>
			</g>
		</g>
		<g>
			<g>
				<path class="st1" d="M256.1,12.7c-4.1,5-6.8,10.9-9.8,16.6c-3.2,6.1-6.5,12.2-9.7,18.3c-3.3,6.2-6.6,12.4-9.9,18.6
					c-3.1,5.6-7,11.2-9.3,17.2c-0.4,0.9,1.1,1.8,1.7,1c4.1-5,6.8-11.3,9.9-16.9c3.3-6.2,6.6-12.4,9.9-18.6
					c3.2-6.1,6.5-12.2,9.7-18.4c3-5.8,6.2-11.4,7.7-17.8C256.3,12.7,256.1,12.6,256.1,12.7L256.1,12.7z"/>
			</g>
		</g>
		<g>
			<g>
				<path class="st1" d="M264.2,19.2c-4.3,3.8-6.7,8.9-9.3,13.9c-2.7,5.3-5.6,10.5-8.7,15.7c-7.2,12-14.4,23.8-21.4,35.9
					c-0.9,1.5,1.5,2.9,2.4,1.4c13.1-21.7,26.8-43.6,37.2-66.7C264.6,19.2,264.4,19.1,264.2,19.2L264.2,19.2z"/>
			</g>
		</g>
		<g>
			<g>
				<path class="st1" d="M270.3,24.4c-3.7,5-6.4,10.7-9.4,16.1c-3.2,5.6-6.8,11-10.3,16.5c-3.4,5.3-6.6,10.7-9.7,16.2
					c-2.9,5.1-6.6,10.5-8.1,16.2c-0.3,1,1,1.4,1.6,0.7c3.7-4.9,6.1-11.1,9.1-16.5c3.2-5.7,6.7-11.4,10.2-16.9
					c6.4-9.9,14-20.5,16.9-32.1C270.6,24.4,270.4,24.3,270.3,24.4L270.3,24.4z"/>
			</g>
		</g>
		<g>
			<g>
				<path class="st1" d="M278.8,27.1c-4.7,3.7-7.5,10.2-10.6,15.3c-3.3,5.5-6.9,10.7-10.6,16c-7.4,10.6-13.9,21.9-20.4,33.1
					c-0.9,1.5,1.4,2.8,2.3,1.3c6.4-11.3,12.9-22.5,20.3-33.2c3.5-5,6.9-10,10-15.2c3.2-5.2,8-11,9.1-17.2
					C279.1,27.1,278.9,27,278.8,27.1L278.8,27.1z"/>
			</g>
		</g>
		<g>
			<g>
				<path class="st1" d="M284.7,30.5c-6.2,10.3-12.1,20.8-18.5,31c-6.9,11-13.8,22-20.7,33c-0.9,1.5,1.4,2.9,2.4,1.4
					c7-11.3,14-22.7,21-34c6-9.7,13.7-19.9,16.1-31.2C285.1,30.4,284.8,30.3,284.7,30.5L284.7,30.5z"/>
			</g>
		</g>
		<g>
			<g>
				<path class="st1" d="M294,37c-4.4,3.7-7.3,9.1-10.5,13.8c-3.8,5.5-7.5,11.1-11.3,16.6c-7.4,10.8-14.6,21.8-21.9,32.7
					c-1,1.5,1.4,2.9,2.4,1.4c7.3-10.9,14.6-21.8,21.8-32.7c3.5-5.3,7-10.6,10.5-16C288.2,47.8,292.3,42.8,294,37
					C294.1,37,294,37,294,37L294,37z"/>
			</g>
		</g>
		<g>
			<g>
				<path class="st1" d="M218.4,82.5c-3.2,0.8-1.8,6.8,0.9,7.3c1.8,0.4,3.7-1,5-2c1.2-1,3.4-2.7,2.9-4.5c-0.1-0.5-0.6-0.6-1-0.6
					c-1.1,0.2-1.5,1.2-2.2,1.9c-0.8,0.8-1.7,1.6-2.7,2.1c-0.6,0.3-1.1,0.7-1.6,0.2c-0.2-0.2-0.5-1-0.6-1.3c-0.3-1-0.1-1.8-0.1-2.7
					C219,82.7,218.7,82.5,218.4,82.5L218.4,82.5z"/>
			</g>
		</g>
		<g>
			<g>
				<path class="st1" d="M233.8,87.4c-0.5,0.9-1.3,1.5-1.7,2.4c-0.4,0.7-0.7,1.4-0.8,2.2c-0.2,1.5,0.4,2.9,1.7,3.6
					c1.3,0.7,2.5,0.2,3.5-0.7c1.2-0.9,3.3-2.5,3.2-4.1c0-0.5-0.4-0.8-1-0.7c-1.5,0.2-3.3,3.9-4.7,3.4c-1.2-0.5-0.6-2.4-0.3-3.2
					c0.3-1,0.3-1.7,0.4-2.8C234.1,87.4,233.9,87.3,233.8,87.4L233.8,87.4z"/>
			</g>
		</g>
		<g>
			<g>
				<path class="st1" d="M234.7,84.6c-1.6,1.3-2.3,4-2.7,5.9c-0.3,1.4-0.6,3.2,0.5,4.4c2.4,2.5,6.6-0.9,6.9-3.5
					c0.1-0.6-0.6-0.8-1.1-0.6c-1,0.4-1.4,1.3-2.2,1.9c-0.5,0.4-1.1,0.9-1.8,0.6c-0.7-0.4-0.4-1.1-0.3-1.8c0.3-2.2,1.3-4.6,0.9-6.8
					C235,84.6,234.8,84.5,234.7,84.6L234.7,84.6z"/>
			</g>
		</g>
		<g>
			<g>
				<path class="st1" d="M246.7,93.6c-1.1,1.4-2,2.7-2.2,4.5c-0.2,1.5,0,3.2,1.1,4.4c2.3,2.3,6.7-0.3,8.1-2.6c0.6-1-0.6-2.4-1.7-1.7
					c-1,0.7-3.6,3.3-4.7,1.8c-0.5-0.8-0.3-2-0.1-2.9c0.2-1,0.4-1.9,0.6-2.9C247.9,93.6,247.1,93,246.7,93.6L246.7,93.6z"/>
			</g>
		</g>
		<g>
			<g>
				<path class="st1" d="M218.2,82.2c0.3-0.1,0.6-0.2,0.8-0.3c-0.3-0.5-0.6-1-0.8-1.4c-1.9,2.3-2.4,8.1,1.3,9.1
					c3.2,0.9,8.1-2.6,8.3-5.9c0-0.5-0.6-1-1.1-0.8c-2,0.7-3,3-5,3.8c-1.8,0.8-2.1-0.5-2.2-2c-0.1-1.2-0.2-2.3,0.2-3.4
					c0.4-1.2-1.9-1.5-1.6,0C218,81.6,218.1,81.9,218.2,82.2C218.1,82.2,218.1,82.2,218.2,82.2L218.2,82.2z"/>
			</g>
		</g>
		<g>
			<g>
				<path class="st1" d="M266.7,17.8c0-0.1,0-0.1,0-0.2c0-0.3-0.5-0.5-0.8-0.4c-1.6,0.4-2.7,2.2-3.6,3.4c-1.1,1.5-2.7,3.5-2.4,5.5
					c0.1,0.7,0.8,1.1,1.4,0.6c1.5-1.3,2.1-3.8,3-5.6c0.2-0.4,0.5-0.9,0.7-1.3c0.4-0.7,0.8-0.9,1.3-1.5
					C266.6,18.1,266.8,18,266.7,17.8L266.7,17.8z"/>
			</g>
		</g>
		<g>
			<g>
				<path class="st1" d="M271.7,22.1c-1.1,2.1-2.3,4.1-3.4,6.2c-1,1.9-2.5,3.7-3,5.8c-0.2,0.7,0.7,1.6,1.3,1c3.6-2.8,5-8.6,5.7-12.8
					C272.4,22,271.9,21.7,271.7,22.1L271.7,22.1z"/>
			</g>
		</g>
		<g>
			<g>
				<path class="st1" d="M280.7,25.8c-0.1-0.1-0.2-0.1-0.4-0.2c-0.3-0.2-0.6-0.2-0.9,0c-1.5,0.9-2.7,2.8-3.5,4.3
					c-0.9,1.7-2,3.4-2.2,5.3c-0.1,0.7,1,1.2,1.5,0.6c1.1-1.3,1.7-3,2.6-4.5c0.7-1.3,1.5-3.7,2.9-4.4C281.2,26.7,281.1,26,280.7,25.8
					L280.7,25.8z"/>
			</g>
		</g>
		<g>
			<g>
				<path class="st1" d="M285.1,30.9c-1.2,1.8-2.1,3.7-3.1,5.6c-0.9,1.8-1.9,3.4-2.5,5.3c-0.2,0.7,0.8,1.3,1.3,0.7
					c2.6-3,4.2-7.6,4.6-11.6C285.4,30.8,285.2,30.8,285.1,30.9L285.1,30.9z"/>
			</g>
		</g>
		<g>
			<g>
				<path class="st1" d="M198.4,131.8c0.1,2-0.3,4-1.1,5.8c0.4,0.2,0.8,0.4,1.3,0.5c0.7-2.8,0.9-5.6,0.3-8.5c-0.2-1.1-2.1-0.9-2,0.3
					c0.1,1.5,0.2,2.9,0.4,4.4c0.1,1.2,0.1,2.4,0.6,3.6c0.3,0.7,1.5,0.5,1.7-0.2c0.3-1.2,0-2.4-0.1-3.7c-0.1-1.3-0.3-2.7-0.4-4
					c-0.7,0.1-1.4,0.2-2,0.3c0.6,2.5,0.8,5,0.4,7.6c-0.1,0.9,1,1.2,1.3,0.4c0.7-2.2,0.7-4.2-0.1-6.3
					C198.5,131.8,198.4,131.8,198.4,131.8L198.4,131.8z"/>
			</g>
		</g>
		<g>
			<g>
				<path class="st1" d="M197.6,132.3c-0.1,9.4-7.3,17.6-12.3,25c-5.2,7.7-10.5,15.4-15.9,23c-10.7,15.3-21.5,30.4-32.2,45.7
					c-10.7,15.2-21.3,30.6-31.5,46.2c-5.1,7.8-10.1,15.7-14.9,23.6c-4.5,7.3-10,14.9-13,23c-0.4,1.2,1.4,2.3,2.2,1.3
					c5.8-7.2,9.8-16.3,14.7-24.1c4.9-7.9,9.9-15.8,15-23.6C120.5,256,131.7,240,143,224c11.1-15.7,22.3-31.4,33.4-47.2
					c5.5-7.9,11-15.8,16.4-23.8c4.2-6.3,8.5-13,6.5-20.9C198.9,131.3,197.7,131.5,197.6,132.3L197.6,132.3z"/>
			</g>
		</g>
		<g>
			<g>
				<path class="st1" d="M218,144.8c-5.9-2-9.3,7.3-11.6,11.2c-5,8.4-9.8,17-14.6,25.5c-9.7,17.1-19.3,34.2-28.8,51.3
					c-19,34.3-37.6,68.9-55.8,103.6c-1.1,2,2,3.8,3.1,1.8c16.9-32.5,34.1-64.8,51.7-97c8.8-16.1,17.6-32.1,26.5-48.1
					c4.5-8,8.9-16,13.4-24c2.1-3.7,4.2-7.4,6.3-11.1c2.3-4.1,4.7-11.6,9.9-12.5C218.5,145.6,218.4,145,218,144.8L218,144.8z"/>
			</g>
		</g>
		<g>
			<g>
				<path class="st1" d="M88.8,302.9c-3.5,2.7-6,7.1-8.4,10.9c-2.9,4.6-5.8,9.2-8.2,14c-4,7.9-1.8,13.8,5.1,19.1
					c5.1,3.8,14.2,9,20.8,6.7c3.5-1.3,5.8-4.5,7.8-7.5c2.4-3.6,5.3-7.6,5.8-11.9c0.1-0.9-1.1-1.2-1.7-0.7
					c-4.5,4.6-5.7,13.1-11.7,16.5c-6.2,3.5-17.4-3.6-21.7-7.9c-4.3-4.3-3.6-8.3-1.2-13.3c1.5-3,3.1-5.9,4.7-8.8
					c3-5.4,7.3-10.9,9-16.9C89,302.9,88.8,302.8,88.8,302.9L88.8,302.9z"/>
			</g>
		</g>
		<g>
			<g>
				<path class="st1" d="M241.7,111.1c0.3,0,0.3-0.5,0-0.5C241.4,110.6,241.4,111.1,241.7,111.1L241.7,111.1z"/>
			</g>
		</g>
		<g>
			<g>
				<path class="st1" d="M214.3,89.4c0.4,2.4,2.5,4.4,5,4.5c0.6,0,0.6-0.9,0-0.9C217.1,92.7,215.2,91.5,214.3,89.4
					C214.4,89.3,214.3,89.3,214.3,89.4L214.3,89.4z"/>
			</g>
		</g>
		<g>
			<g>
				<path class="st1" d="M227.9,94.5c0.6,4.8,5.6,7,10,7c0.5,0,0.6-0.7,0.1-0.9c-3.7-1.4-8.5-1.7-9.9-6.1
					C228,94.4,227.9,94.4,227.9,94.5L227.9,94.5z"/>
			</g>
		</g>
		<g>
			<g>
				<path class="st1" d="M239.3,101.8c1.3,2.5,3.9,4.4,6.8,4.3c0.3,0,0.4-0.5,0.1-0.5c-2.7-0.4-5-1.7-6.4-4.1
					C239.6,101.3,239.2,101.5,239.3,101.8L239.3,101.8z"/>
			</g>
		</g>
		<g>
			<g>
				<path class="st1" d="M204.7,99.9c-1.5,2.2-3.3,4.7-3.6,7.4c0,0.3,0.4,0.4,0.6,0.2c1.4-2.3,2.1-5,3.4-7.3
					C205.3,99.8,204.9,99.6,204.7,99.9L204.7,99.9z"/>
			</g>
		</g>
		<g>
			<g>
				<path class="st1" d="M205.9,101.8c-1.6,3.2-3.3,6.5-4.7,9.8c0,0.1,0.1,0.2,0.2,0.1c1.8-3.1,3.1-6.5,4.7-9.8
					C206.2,101.8,206,101.7,205.9,101.8L205.9,101.8z"/>
			</g>
		</g>
		<g>
			<g>
				<path class="st1" d="M210,100.4c-3,6.5-6.1,12.9-8.9,19.5c-0.2,0.4,0.4,0.8,0.6,0.4c3-6.5,5.8-13.2,8.6-19.8
					C210.3,100.4,210,100.3,210,100.4L210,100.4z"/>
			</g>
		</g>
		<g>
			<g>
				<path class="st1" d="M207.8,113.1c-1.9,3.4-4.3,6.8-5.6,10.5c-0.1,0.3,0.4,0.5,0.6,0.2c2.2-3.2,3.6-7.1,5.2-10.6
					C208,113.1,207.8,113,207.8,113.1L207.8,113.1z"/>
			</g>
		</g>
		<g>
			<g>
				<path class="st1" d="M208.8,116.7c-2.4,4.3-5.2,8.6-7,13.2c-0.1,0.4,0.4,0.6,0.7,0.3c2.7-4.1,4.5-8.9,6.5-13.4
					C209,116.7,208.9,116.6,208.8,116.7L208.8,116.7z"/>
			</g>
		</g>
		<g>
			<g>
				<path class="st1" d="M218.1,106.7c-5.6,9.9-11.9,20.3-16,31c-0.2,0.5,0.6,0.8,0.8,0.4C209.2,128.5,213.6,117.2,218.1,106.7
					C218.2,106.7,218.2,106.7,218.1,106.7L218.1,106.7z"/>
			</g>
		</g>
		<g>
			<g>
				<path class="st1" d="M213.5,121.8c-1.4,2.6-2.8,5.1-4.2,7.7c-1.2,2.2-2.7,4.6-3.2,7c-0.1,0.4,0.4,0.7,0.7,0.4
					c1.6-1.8,2.5-4.2,3.4-6.4c1.2-2.9,2.4-5.7,3.6-8.6C213.7,121.8,213.5,121.7,213.5,121.8L213.5,121.8z"/>
			</g>
		</g>
		<g>
			<g>
				<path class="st1" d="M215.3,125.8c-2.4,4.4-5.3,8.7-7,13.5c-0.1,0.3,0.4,0.5,0.6,0.2c2.8-4.1,4.7-9,6.8-13.5
					C215.8,125.8,215.4,125.6,215.3,125.8L215.3,125.8z"/>
			</g>
		</g>
		<g>
			<g>
				<path class="st1" d="M225.9,113.4c-4.9,8.7-10.3,17.4-14.3,26.6c-0.3,0.6,0.5,1.1,0.9,0.5c5.3-8.5,9.4-17.8,13.9-26.8
					C226.5,113.4,226.1,113.2,225.9,113.4L225.9,113.4z"/>
			</g>
		</g>
		<g>
			<g>
				<path class="st1" d="M224.9,123.7c-2.4,4.3-5.8,8.9-7.3,13.6c-0.2,0.5,0.5,0.7,0.8,0.4c3-3.9,4.9-9.2,7.1-13.6
					C225.7,123.6,225.1,123.3,224.9,123.7L224.9,123.7z"/>
			</g>
		</g>
		<g>
			<g>
				<path class="st1" d="M228,125.2c-1.1,2.1-2.2,4.1-3.2,6.2c-0.9,1.8-2.3,3.6-2.6,5.6c-0.1,0.4,0.4,0.7,0.7,0.4
					c1.4-1.4,2.2-3.6,3.1-5.4c1.1-2.1,2.2-4.1,3.2-6.2C229.5,125.1,228.4,124.5,228,125.2L228,125.2z"/>
			</g>
		</g>
		<g>
			<g>
				<path class="st1" d="M240.5,114.3c-4.3,6.6-8.7,13.1-12.2,20.2c-0.2,0.5,0.4,0.8,0.7,0.4c4.6-6.4,8.2-13.5,12-20.3
					C241.1,114.2,240.7,114,240.5,114.3L240.5,114.3z"/>
			</g>
		</g>
		<g>
			<g>
				<path class="st1" d="M242.9,117.4c-2,3.1-4.1,6.1-5.9,9.3c-0.3,0.5,0.4,0.8,0.7,0.4c2.1-3,3.9-6.3,5.8-9.4
					C243.8,117.4,243.1,117.1,242.9,117.4L242.9,117.4z"/>
			</g>
		</g>
		<g>
			<g>
				<path class="st1" d="M205.2,146.7c-3.8,6.4-7.6,12.8-11.2,19.3c-0.1,0.1,0.1,0.2,0.2,0.1c3.8-6.4,7.5-12.8,11.2-19.3
					C205.5,146.7,205.3,146.6,205.2,146.7L205.2,146.7z"/>
			</g>
		</g>
		<g>
			<g>
				<path class="st1" d="M201.5,157.6c-5.1,9.2-10.7,18.2-14.8,27.9c-0.2,0.5,0.6,0.9,0.9,0.4c5.5-8.9,9.6-18.7,14.1-28.1
					C201.8,157.6,201.6,157.5,201.5,157.6L201.5,157.6z"/>
			</g>
		</g>
		<g>
			<g>
				<path class="st1" d="M182.8,185.1c-1.3,2.2-3.1,4.4-4,6.8c-0.2,0.4,0.4,0.6,0.7,0.3c1.5-2,2.5-4.6,3.7-6.9
					C183.3,185.1,183,184.9,182.8,185.1L182.8,185.1z"/>
			</g>
		</g>
		<g>
			<g>
				<path class="st1" d="M182.1,191.1c-8.7,14.6-17.1,29.4-25.5,44.1c-0.3,0.5,0.4,0.9,0.7,0.4c8.5-14.7,16.9-29.5,25.1-44.4
					C182.4,191.1,182.2,190.9,182.1,191.1L182.1,191.1z"/>
			</g>
		</g>
		<g>
			<g>
				<path class="st1" d="M154,232.2c-2.6,3.4-4.4,7.7-6.4,11.5c-2,3.9-4.2,7.8-6.1,11.7c-0.3,0.7,0.6,1.2,1,0.6
					c4.6-6.8,10.1-15.6,11.9-23.7C154.4,232.1,154.1,232.1,154,232.2L154,232.2z"/>
			</g>
		</g>
		<g>
			<g>
				<path class="st1" d="M153,246c-3.9,6.6-7.7,13.1-11.3,19.9c-0.3,0.5,0.5,1,0.8,0.5c3.8-6.6,7.3-13.3,10.8-20.2
					C153.4,246,153.1,245.8,153,246L153,246z"/>
			</g>
		</g>
		<g>
			<g>
				<path class="st1" d="M135,267.1c-7.3,11.9-14.8,23.9-21.1,36.3c-0.2,0.5,0.4,0.9,0.7,0.4c7.5-11.7,14.1-24.3,20.6-36.5
					C135.4,267.1,135.1,267,135,267.1L135,267.1z"/>
			</g>
		</g>
		<g>
			<g>
				<path class="st1" d="M133.1,278.5c-3.9,6.1-8.3,12.2-11.1,18.9c-0.2,0.4,0.4,0.6,0.7,0.3c4.1-6,7.1-12.8,10.7-19.1
					C133.4,278.5,133.2,278.4,133.1,278.5L133.1,278.5z"/>
			</g>
		</g>
		<g>
			<g>
				<path class="st1" d="M122,302.4c-2.4,4.3-5.2,8.6-7.1,13.1c-0.2,0.5,0.6,0.8,0.8,0.4c2.7-4.1,4.6-8.8,6.8-13.2
					C122.7,302.3,122.2,302,122,302.4L122,302.4z"/>
			</g>
		</g>
		<g>
			<g>
				<path class="st1" d="M109.1,321.2c-2.3,4.1-5.3,8.3-6.6,12.9c-0.2,0.7,0.7,1,1.1,0.5c2.8-3.7,4.4-8.6,6.4-12.9
					C110.2,321.2,109.4,320.6,109.1,321.2L109.1,321.2z"/>
			</g>
		</g>
		<g>
			<g>
				<path class="st1" d="M76.6,333.6c0.9,6.1,6.4,12.6,12.9,13c0.5,0,0.8-0.8,0.3-1c-2.8-1.3-5.6-2.3-7.9-4.5
					C79.7,339,77.9,336.2,76.6,333.6C76.6,333.5,76.6,333.5,76.6,333.6L76.6,333.6z"/>
			</g>
		</g>
		<g>
			<g>
				<path class="st1" d="M93,346.8c1.6,0.2,4,0.3,5.3-0.9c0.2-0.2,0-0.5-0.2-0.5c-0.8,0-1.5,0.4-2.3,0.6c-0.9,0.2-1.9,0.3-2.9,0.4
					C92.7,346.3,92.7,346.8,93,346.8L93,346.8z"/>
			</g>
		</g>
		<g>
			<g>
				<path class="st1" d="M83,337.5c0.5,1,1.1,1.8,2,2.5c0.7,0.5,1.9,1.2,2.8,1c0.3-0.1,0.3-0.5,0.1-0.7c-0.7-0.5-1.7-0.5-2.4-1
					c-0.8-0.5-1.5-1.3-2-2.2C83.3,336.9,82.8,337.2,83,337.5L83,337.5z"/>
			</g>
		</g>
	</g>
</g>
<g>
	<path class="st0" d="M67.3,195.7c-7.5,12.4-11.6,25.2-16.8,38.6c-2.7,6.9-5,13.9-7.5,20.8c-2.8,7.8-4.4,15-5.8,23
		c-0.5,2.9,2.6,4.9,4.9,2.9c4.7-4.1,5.2-12.9,7.1-18.6c2.3-7.1,5-14.2,7.3-21.4c4.6-14.8,7.9-29.8,12.4-44.6
		C69.2,195.4,67.9,194.9,67.3,195.7z"/>
	<path class="st0" d="M123.2,24.6c-3.8-2-7.5-0.9-11,1.9c-0.6-0.3-1.3-0.4-2.1-0.1c-6.5,1.8-9.1,6.5-11.9,12.4
		c-4.1,8.8-9.2,16.9-12.7,26.1c-4.7,12.7-5.9,32.5,7.8,39.6c4.3,2.2,9.6-2.4,6.9-6.9c-2.7-4.6-5.1-4.6-4.9-11.4
		c0.1-3.6,1.7-7.5,2.5-11c1.4-6.1,3.2-11.9,5.7-17.7c4-9.4,8.6-25.3,19-29.2C124.2,27.7,124.8,25.5,123.2,24.6z"/>
	<g>
		<g>
			<g>
				<path class="st1" d="M78,146.4c7.3-6.3,6.8-16.4,3.8-24.8c-1.9-5.4-4.7-10.5-6.6-15.9c-2.5-7-2.6-13.9-1.7-21.2
					c2.9-23.8,11.6-47.8,28.2-65.6C111.3,8.8,123.3,2.8,137.5,3c14.4,0.2,25.2,10.6,28.4,24.2c3.1,13.3-0.5,26.9-4.1,39.7
					c-3.6,12.7-7.9,25.5-15.2,36.6c-3.8,5.8-8.4,11.1-13.9,15.4c-5.2,4.1-10.9,6.6-16.9,9.2c-5.1,2.3-10,4.9-13.6,9.3
					c-3.9,4.7-5.7,10.6-7.3,16.4c-0.5,1.9,2.4,2.7,3,0.8c2-7.3,4.5-14.5,10.8-19.1c5-3.7,11-5.5,16.5-8.2
					c10.2-5.1,18.4-13.4,24.5-23c7.5-11.7,11.8-25.2,15.6-38.5c3.4-12.3,6.5-25.2,3.9-38c-2.3-11.3-9.2-21.3-20.1-25.7
					C138.8-1.8,126,0,116,4.3C104.8,9,96.1,19.8,89.5,29.7C83,39.6,78.2,50.6,75,62c-3.6,12.7-7.4,28.3-3.7,41.3
					c3.8,13.4,16.2,28.9,6.2,42.7C77.2,146.3,77.7,146.7,78,146.4L78,146.4z"/>
			</g>
		</g>
		<g>
			<g>
				<path class="st1" d="M83.3,132.7c-14.8,32.5-25.9,66.7-38.8,100c-13.2,33.9-26.8,67.6-40.8,101.1c-0.9,2.1,2.6,3.1,3.4,0.9
					c13.8-33.3,27.1-66.7,40-100.3c12.9-33.4,27-67,36.3-101.6C83.5,132.7,83.3,132.6,83.3,132.7L83.3,132.7z"/>
			</g>
		</g>
		<g>
			<g>
				<path class="st1" d="M101,140.7c-13,33.2-23.6,67.1-34.7,101C55.3,275.5,44.2,309.2,33.2,343c-0.7,2,2.5,2.9,3.1,0.9
					c11.1-33.8,22.1-67.6,33.2-101.4c11.1-33.8,22.6-67.4,31.7-101.8C101.2,140.6,101,140.6,101,140.7L101,140.7z"/>
			</g>
		</g>
		<g>
			<g>
				<path class="st1" d="M7.7,327.7c-3.2,6-7.9,13.1-7.7,20.2c0.2,6.3,4.9,9.7,10.2,11.9c5.6,2.3,13.9,5.1,19.1,0.5
					c4.9-4.4,5.7-13.1,6.9-19.2c0.1-0.7-0.7-1.3-1.3-0.7c-3.3,3.3-3.2,8.1-4.6,12.3c-1.5,4.4-4.5,6.9-9.3,6.7
					c-3.3-0.1-6.7-1.4-9.7-2.7c-2.5-1.1-5.5-2.5-7-5c-2.3-3.9-0.5-8.7,1.1-12.4c1.6-3.8,3.4-7.3,2.5-11.5
					C7.9,327.6,7.8,327.6,7.7,327.7L7.7,327.7z"/>
			</g>
		</g>
		<g>
			<g>
				<path class="st1" d="M102.8,20.9C87.2,39.5,76.5,63.6,75.8,88.1c-0.3,10.9,2.7,21.7,11.8,28.2c8.3,6,19.3,7.3,29,4.3
					c24.4-7.3,35.9-33.8,42-56.3c3.3-12.2,7.4-27.8,2.4-40.1c-3.6-8.9-12.3-14.8-21.5-16.6c-26.6-5.2-49.2,21.6-54.8,45
					c-0.2,0.7,0.8,1.1,1.1,0.5c5.5-10.1,9.2-20.6,17.2-29.2c7.3-7.9,17.3-14.3,28.3-14.8c10.2-0.5,21.1,4.5,26.2,13.6
					c6,10.8,2.5,25.1-0.2,36.4c-5,21-14.2,45.6-34.5,56.2c-9.4,4.9-20.7,6-30.3,1.1C81.6,110.9,77.8,99.8,78,88.1
					C78.6,64.3,89.1,40,103,21C103,20.9,102.9,20.8,102.8,20.9L102.8,20.9z"/>
			</g>
		</g>
		<g>
			<g>
				<path class="st1" d="M86.8,166.6c-2.4,6.3-5.1,12.7-6.3,19.4c-0.1,0.3,0.4,0.6,0.6,0.2c2.8-6.1,4.3-13,5.9-19.5
					C87.1,166.5,86.9,166.5,86.8,166.6L86.8,166.6z"/>
			</g>
		</g>
		<g>
			<g>
				<path class="st1" d="M75.6,198c-2.1,6.8-4.4,13.6-6.7,20.3c-2.2,6.6-5.6,13.3-7,20.2c-0.1,0.6,0.7,1,1,0.4
					c3.4-5.8,5.1-13,7.1-19.3c2.2-7.1,4-14.3,5.8-21.5C75.8,198,75.6,197.9,75.6,198L75.6,198z"/>
			</g>
		</g>
		<g>
			<g>
				<path class="st1" d="M6,346.7c0.7,3,2.3,5.7,4.6,7.7c1.8,1.5,5.3,3.3,7.6,2.5c0.4-0.1,0.5-0.6,0.1-0.8c-0.8-0.5-1.7-0.6-2.7-0.9
					c-1.3-0.4-2.6-1.1-3.8-1.9c-2.6-1.6-4.5-3.8-5.6-6.6C6.3,346.4,6,346.5,6,346.7L6,346.7z"/>
			</g>
		</g>
		<g>
			<g>
				<path class="st1" d="M21.8,356c0.7-0.1,1.5,0.2,2.3,0.1c0.6-0.1,1.3-0.2,1.8-0.5c0.3-0.2,0.1-0.7-0.2-0.6
					c-1.1,0.3-2.5,1.3-3.8,0.8C21.7,355.8,21.7,356,21.8,356L21.8,356z"/>
			</g>
		</g>
		<g>
			<g>
				<path class="st1" d="M13.4,350.1c2.5,2.4,6.2,3.8,9.6,2.4c0.3-0.1,0.1-0.6-0.2-0.6C19.4,352.2,16.3,352.1,13.4,350.1
					C13.4,350,13.4,350.1,13.4,350.1L13.4,350.1z"/>
			</g>
		</g>
		<g>
			<g>
				<path class="st1" d="M27.1,339.4c-1.1,3.4-2.2,6.8-3.4,10.3c-0.1,0.3,0.4,0.4,0.5,0.1c1.1-3.4,2.2-6.9,3.3-10.3
					C27.6,339.3,27.2,339.1,27.1,339.4L27.1,339.4z"/>
			</g>
		</g>
		<g>
			<g>
				<path class="st1" d="M30.7,338.8c-0.9,2.3-2.2,4.9-2.6,7.4c-0.1,0.5,0.7,1,0.9,0.4c1.1-2.3,1.4-5.2,2-7.7
					C31.1,338.6,30.8,338.5,30.7,338.8L30.7,338.8z"/>
			</g>
		</g>
		<g>
			<g>
				<path class="st1" d="M36.6,310c-2.5,7.7-5.9,15.6-7.3,23.5c-0.1,0.4,0.5,0.7,0.7,0.3c3.2-7.4,4.9-15.9,7.1-23.7
					C37.1,309.8,36.7,309.7,36.6,310L36.6,310z"/>
			</g>
		</g>
		<g>
			<g>
				<path class="st1" d="M37.4,317.7c-1.6,4.7-3.6,9.5-4.6,14.4c-0.1,0.5,0.6,0.9,0.8,0.4c2-4.6,3-9.7,4.4-14.5
					C38.2,317.5,37.6,317.3,37.4,317.7L37.4,317.7z"/>
			</g>
		</g>
		<g>
			<g>
				<path class="st1" d="M53.5,265.4c-3.6,12.4-8.6,24.4-11.8,36.9c-0.1,0.4,0.5,0.5,0.6,0.2c4.5-12.1,7.2-24.8,11.3-37
					C53.7,265.3,53.6,265.3,53.5,265.4L53.5,265.4z"/>
			</g>
		</g>
		<g>
			<g>
				<path class="st1" d="M55.2,253.4c-1.1,3.2-2.2,6.3-3.3,9.5c-0.1,0.2,0.2,0.3,0.3,0.1c1.1-3.2,2.2-6.3,3.2-9.5
					C55.4,253.4,55.2,253.3,55.2,253.4L55.2,253.4z"/>
			</g>
		</g>
		<g>
			<g>
				<path class="st1" d="M97.9,134c-3.2,7.5-6.3,15.2-8.7,23c-0.1,0.3,0.4,0.6,0.6,0.2c3.3-7.5,5.9-15.4,8.4-23.2
					C98.1,133.9,97.9,133.9,97.9,134L97.9,134z"/>
			</g>
		</g>
		<g>
			<g>
				<path class="st1" d="M85.6,124.4c-0.2,1.2-0.3,2.4-0.5,3.6c0,0.3,0.4,0.4,0.4,0.1c0.1-1.2,0.3-2.4,0.4-3.6
					C85.9,124.3,85.6,124.3,85.6,124.4L85.6,124.4z"/>
			</g>
		</g>
		<g>
			<g>
				<path class="st1" d="M87.7,125.2c0,1-0.3,2-0.5,2.9c-0.2,0.8-0.4,1.7-0.5,2.5c0,0.1,0.1,0.1,0.1,0c0.2-0.8,0.3-1.7,0.5-2.5
					c0.2-0.9,0.3-2,0.6-2.9C88,125.1,87.7,125.1,87.7,125.2L87.7,125.2z"/>
			</g>
		</g>
		<g>
			<g>
				<path class="st1" d="M90.9,123.6c-1.2,5.9-3,11.6-4.4,17.4c-0.1,0.4,0.5,0.7,0.7,0.3c2.5-5.6,3.5-11.5,4.1-17.6
					C91.2,123.5,90.9,123.5,90.9,123.6L90.9,123.6z"/>
			</g>
		</g>
		<g>
			<g>
				<path class="st1" d="M94.3,126.2c-2.9,8.4-5.9,16.8-8.1,25.4c-0.1,0.4,0.5,0.5,0.6,0.2c3.1-8.3,5.4-16.9,7.8-25.4
					C94.7,126,94.4,126,94.3,126.2L94.3,126.2z"/>
			</g>
		</g>
		<g>
			<g>
				<path class="st1" d="M96.5,126.9c-0.6,1.6-1.2,3.2-1.8,4.8c-0.5,1.4-1.4,2.9-1.3,4.4c0,0.4,0.5,0.7,0.8,0.3
					c0.9-1.1,1.1-2.7,1.4-4.1c0.5-1.8,0.9-3.5,1.4-5.3C97.1,126.7,96.6,126.6,96.5,126.9L96.5,126.9z"/>
			</g>
		</g>
		<g>
			<g>
				<path class="st1" d="M99.5,127.5c-0.6,2.3-1.3,4.7-1.8,7.1c-0.1,0.5,0.5,0.6,0.7,0.2c0.8-2.3,1.4-4.7,2.1-7
					C100.7,127.1,99.7,126.8,99.5,127.5L99.5,127.5z"/>
			</g>
		</g>
		<g>
			<g>
				<path class="st1" d="M155.5,26c0.7,8.3,0.1,16.9-1.9,25.1c-2,8-6.3,14.3-9.3,21.7c-0.2,0.5,0.5,0.8,0.9,0.5
					c5.6-5.5,8.6-15.1,10.2-22.6c1.8-8.2,1.8-16.4,0.2-24.7C155.6,25.9,155.5,26,155.5,26L155.5,26z"/>
			</g>
		</g>
		<g>
			<g>
				<path class="st1" d="M141.9,78.9c-1.9,3.6-4.4,6.9-6.5,10.4c-0.1,0.2,0.2,0.5,0.4,0.3c3-3,4.8-6.7,6.3-10.7
					C142.1,78.8,142,78.8,141.9,78.9L141.9,78.9z"/>
			</g>
		</g>
		<g>
			<g>
				<path class="st1" d="M96.6,111.4c9.1,9,22.9,0.7,28.9-7.9c0.3-0.5-0.4-1.2-0.8-0.8c-4,3-7,6.9-11.5,9.2
					C108,114.5,101.5,114.8,96.6,111.4C96.6,111.3,96.5,111.4,96.6,111.4L96.6,111.4z"/>
			</g>
		</g>
		<g>
			<g>
				<path class="st1" d="M125,109.8c5.1-3.3,10-7.9,12.1-13.8c0.2-0.5-0.5-0.9-0.9-0.5c-3.7,4.8-6.9,9.9-11.3,14.1
					C124.8,109.7,124.9,109.9,125,109.8L125,109.8z"/>
			</g>
		</g>
		<g>
			<g>
				<path class="st1" d="M149.9,71.8c-1.6,3.9-3.9,7.7-5.1,11.8c-0.2,0.6,0.6,0.9,0.9,0.4C148.1,80.5,149.1,76,149.9,71.8
					C150,71.8,149.9,71.8,149.9,71.8L149.9,71.8z"/>
			</g>
		</g>
		<g>
			<g>
				<path class="st1" d="M143.4,56.8c-1.7,7.5-4.5,14.8-8.4,21.5c-4,6.9-9.4,12-14.6,17.9c-0.4,0.4,0.1,1.1,0.6,0.8
					c12.9-8.5,20.5-25.4,22.6-40.2C143.7,56.8,143.5,56.7,143.4,56.8L143.4,56.8z"/>
			</g>
		</g>
		<g>
			<g>
				<path class="st1" d="M82.3,93.1c1.2,3.6,3.7,7.7,7.4,9.2c0.3,0.1,0.6-0.4,0.3-0.6c-1.4-1.3-2.9-2.3-4.2-3.7
					c-1.4-1.5-2.4-3.2-3.3-5C82.5,92.8,82.3,93,82.3,93.1L82.3,93.1z"/>
			</g>
		</g>
		<g>
			<g>
				<path class="st1" d="M116.8,17.6c4.9-3.4,10.9-5.2,16.9-4.3c6.4,0.9,10.5,4.5,14.9,8.8c0.5,0.5,1.4-0.1,1-0.8
					c-6.9-11.5-23.4-11.7-32.9-3.9C116.6,17.5,116.7,17.7,116.8,17.6L116.8,17.6z"/>
			</g>
		</g>
		<g>
			<g>
				<path class="st1" d="M143.6,23.4c1.9,1.4,3.1,3.4,4,5.5c0.2,0.4,0.8,0.3,0.7-0.2c-0.4-2.6-2.2-4.5-4.3-5.9
					C143.6,22.7,143.3,23.2,143.6,23.4L143.6,23.4z"/>
			</g>
		</g>
		<g>
			<g>
				<path class="st1" d="M148.9,37.8c0,5.1-1.1,9.9-2.4,14.7c-0.2,0.6,0.8,1.1,1.1,0.5c2-4.8,2.5-10,2.2-15.2
					C149.7,37.2,148.9,37.2,148.9,37.8L148.9,37.8z"/>
			</g>
		</g>
	</g>
</g>
</svg>
