<?xml version="1.0" encoding="utf-8"?>
<!-- Generator: Adobe Illustrator 23.0.2, SVG Export Plug-In . SVG Version: 6.00 Build 0)  -->
<svg version="1.1" id="Layer_1" xmlns="http://www.w3.org/2000/svg" xmlns:xlink="http://www.w3.org/1999/xlink" x="0px" y="0px"
	 viewBox="0 0 304.5 294.6" style="enable-background:new 0 0 304.5 294.6;" xml:space="preserve">
<style type="text/css">
	.st0{fill:#FFFFFF;}
	.st1{fill:#726D54;}
</style>
<g>
	<path class="st0" d="M275.6,100.5c-2.4-2.9-6.8-0.4-6.9,2.9c-0.2,3.8,1.1,6.3,2.7,9.7c4,9,6.7,16.1,6.7,26.6
		c0.1,17.2,0.1,34.4-4.4,51.2c-7.9,29.5-33.7,47.3-50.5,71.3c-0.6,0.9,0.4,2.1,1.4,1.8c11.6-3.8,23.6-13.3,32.3-21.8
		c13.9-13.3,24.4-29.2,29.5-47.9c5-18.1,5.1-36.1,5.1-54.7C291.4,122.4,286.1,113.1,275.6,100.5z"/>
	<path class="st0" d="M64.8,248.4c-13.5-10.9-24.4-21.3-33.8-35.9c-10.4-16.2-16.4-30-15.9-49.6c0.4-14.5-0.7-28.9,1.2-43.3
		c0.2-1.2-1.8-1.7-2.3-0.6c-7,14.6-6.2,31.2-7.8,47.1c-1.4,14.5,1.1,28.2,7.4,41.3c7.6,15.9,15.8,27.8,29.1,39.3
		c9,7.8,19,19.9,31.5,22c2,0.3,5-0.9,4.6-3.5C77.6,255.9,71.7,254,64.8,248.4z"/>
	<path class="st0" d="M222.4,31.7c-7.6-10.8-25.9-16.8-38.1-20.8c-19-6.2-43.9-6.6-63.4-3.1c-17.5,3.1-36,12.7-51.5,21.3
		C56.6,36.3,44.8,47.4,38,60.6c-0.1,0.1,0,0.3,0.1,0.3c3.5-0.2,3.8-0.9,6.9-2.5c7.4-4,14.5-10.7,21.7-15.4
		c14.5-9.5,32.5-18.3,49.2-23c17.4-4.9,43.2-4.5,60.3,0.2c14.7,4,26.6,14.5,41,18.5C220.9,39.6,224.8,35.2,222.4,31.7z"/>
	<g>
		<g>
			<g>
				<path class="st1" d="M44.8,44.5c-0.5-0.1-1-0.1-1.4-0.2c-0.3,0-0.8,0-1,0.2c-0.3,0.2-0.1,0.3,0.2,0.3c0.7-0.1,1.4-0.1,2.1-0.2
					C44.7,44.6,44.9,44.6,44.8,44.5L44.8,44.5z"/>
			</g>
		</g>
		<g>
			<g>
				<path class="st1" d="M47.2,40.2C18.7,61.6,8.1,96.6,2.3,130.4c-5.2,30.3-1.6,60.8,12,88.4C27.4,245.7,49.3,268,76.8,280
					c32.1,14.1,70.6,17.2,105.1,12.6c32.2-4.2,63.7-17.5,86.1-41.6c11.1-11.9,19-25.9,24.2-41.2c5.9-17.2,10-35.7,11.8-53.8
					c3.5-36.1-13.8-68.2-33.1-97.4c-9.5-14.5-19.9-27.3-35.2-35.9c-15.2-8.6-32.4-14.5-49.4-18.2c-33.2-7.3-68.6-6.2-100.2,7.1
					c-26.9,11.3-50.8,31-65.1,56.7c-3.4,6.1-6.1,12.6-8.4,19.3c-0.4,1.2,1.5,1.7,1.9,0.5c10.7-26.5,30.9-48.5,55.5-62.8
					c27.1-15.8,59-21.4,90-18.7c16.8,1.5,33.3,5.4,49.1,11.2c15.8,5.8,31.4,13.2,42.8,26c10.7,12,19.3,26.6,27.3,40.5
					c8.3,14.3,15.4,29.6,18.2,46.1c3.1,18.1-0.3,36.2-4.2,53.9c-3.6,16-8.1,32.1-16.6,46.3c-15.7,26.1-42.8,43.7-71.6,52
					c-32.8,9.5-69.7,8.9-102.7,0.9C72.7,276.1,46.8,260,29,234.8c-16.1-22.7-25.2-50.5-25.3-78.3c-0.1-17.6,3.5-35,7.9-52
					c4.2-16,9.9-31.4,19.5-45c4.8-6.8,10.5-12.9,16.7-18.4C48.4,40.7,47.7,39.8,47.2,40.2L47.2,40.2z"/>
			</g>
		</g>
		<g>
			<g>
				<path class="st1" d="M130.6,134.9c-9.6-16.2-20.6-31.4-31.4-46.8C94.5,81.4,86.4,73.4,85.5,65c-0.9-9.4,7.6-16.4,15.8-18.5
					c6.6-1.7,20.9-3.4,24.7,4.1c1.8,3.6,2,8,2.5,11.9c0.5,4.5,1,9.1,1.4,13.7c1.7,18.9,2.2,37.9,1.8,56.8c0.4-0.8,0.9-1.5,1.3-2.3
					c-0.4,0-0.9-0.1-1.3-0.1c-3.1-1.5-5.8,3.1-2.7,4.6c2.5,1.2,4.1,1.2,6.7,0.1c0.8-0.4,1.3-1.4,1.3-2.3c0.4-18.3-0.1-36.6-1.6-54.9
					c-0.7-8.1-1.1-16.4-2.8-24.4c-1.2-5.5-4-10.5-9.5-12.4c-12.3-4.2-29.9-1-38.1,9.4c-3.6,4.6-5.6,10.6-4.5,16.4
					c1.5,7.7,7.6,14.2,12,20.4c11.8,16.5,23.2,33.3,36.2,48.9C129.5,137.5,131.3,136.1,130.6,134.9L130.6,134.9z"/>
			</g>
		</g>
		<g>
			<g>
				<path class="st1" d="M139.4,132.8c1.7-3.7,2-7.9,2.5-11.8c0.6-4.6,1.1-9.2,1.4-13.8c0.6-9.8,0.7-19.6,0.5-29.5
					c-0.2-9.2-0.8-18.6,1.5-27.5c1.1-4.4,2.6-10.1,7.1-12c3.9-1.7,9.6-1.5,13.8-1c9.6,1.1,18.6,7.5,17.8,18.1
					c-0.7,9.3-6.6,18.1-11,26.1c-4.5,8.3-9.3,16.6-14.3,24.7c-2.3,3.8-4.7,7.5-7.1,11.3c-1,1.6-9.4,12.2-8.5,13.5
					c-1-1.5-3.2-0.9-3.4,0.9c-0.1,1.9,1,3.5,3,3.8c2.9,0.4,4.6-2.5,5.9-4.6c5.6-8.1,10.8-16.4,15.9-24.8c5.2-8.7,10.3-17.5,15-26.4
					c3.8-7.2,8.3-14.7,9.2-22.9c2-17-13.9-25.6-28.8-24.9c-7.5,0.3-13.5,1.9-16.7,9.2c-3.4,7.6-4.1,16-4.1,24.2
					c0.1,11.3,1,22.6,0.9,34c-0.1,5.6-0.4,11.2-0.6,16.8c-0.2,5.4-1.4,11.4-0.3,16.8C139.2,132.9,139.4,132.9,139.4,132.8
					L139.4,132.8z"/>
			</g>
		</g>
		<g>
			<g>
				<path class="st1" d="M151.7,137.4c7.8-14.2,19.9-26.7,30-39.3c5.4-6.7,10.7-13.3,16.1-20c2.2-2.7,4.2-5.6,6.7-8
					c1.3-1.3,2.7-2.5,4.4-3.3c3.7-1.8,6.7-0.1,9.5,2.4c10.9,9.5,22.3,22.4,20.5,37.9c-2,16.9-19.2,19.9-32.9,22.9
					c-9.3,2-18.7,4-28,6.2c-5.9,1.4-18.1,6.1-22.5-0.4c-2-2.9-6.7-0.2-4.7,2.8c3.8,5.7,10.2,6.5,16.6,5.7c9.9-1.2,19.8-4.2,29.6-6.4
					c14.9-3.4,37.4-5.2,44.5-21.3c6.9-15.7-2.6-31.6-13.3-42.7c-4.5-4.6-10.5-12.5-17.8-10.9c-8.1,1.7-13.6,11.7-18.3,17.6
					c-7.6,9.5-15.2,19-22.8,28.5c-7,8.7-14.4,17.1-19.1,27.3C149.4,137.6,151,138.6,151.7,137.4L151.7,137.4z"/>
			</g>
		</g>
		<g>
			<g>
				<path class="st1" d="M127.3,159c-10.1,3.3-19.5,9.6-28.5,15.1c-8.8,5.4-17.9,10.6-26,17c-6.7,5.2-14.3,12.1-15.5,21
					c-1.1,8,2.8,16.5,7.4,22.7c4.8,6.5,11.2,11.7,18.3,15.5c7.2,4,16,8,24.4,7.9c7.8-0.1,13.2-5,15.8-12.1c3.4-9.5,4-20.5,5.6-30.4
					c2.1-13.1,4.3-26.2,6.3-39.3c1.1-6.6,2.6-20.2-8.1-19.2c-3.2,0.3-3.1,4.6,0,4.9c6.3,0.8,0.7,21.2,0.1,25.4
					c-1.4,8.9-2.8,17.7-4.2,26.6c-1.3,8.3-2.3,16.8-4,25.1c-1.7,8.4-5.9,14.5-15.4,13c-12.9-2.2-27-10.4-34.9-20.8
					c-4.9-6.4-9.2-15.9-5.2-23.8c3.8-7.4,11.4-13,18.1-17.6c7.6-5.2,15.5-10.1,23.3-15c7.6-4.8,16-9.5,22.7-15.6
					C127.6,159.2,127.5,159,127.3,159L127.3,159z"/>
			</g>
		</g>
		<g>
			<g>
				<path class="st1" d="M108.6,171.7c3.5-2.3,7.1-4.5,10.5-6.9c1.5-1.1,2.9-2.4,4.5-3.3c1.3-0.7,2.6-0.9,3.9-1.5
					c0.5-0.3,0.8-1.1,0.7-1.6c-0.1-0.2-0.1-0.3-0.2-0.5c-0.3-0.8-1.1-1.6-2-1.5c-3.3,0.3-5.5,2.8-7.9,4.9c-3.5,3.1-6.7,6.5-10,9.8
					C107.8,171.4,108.2,172,108.6,171.7L108.6,171.7z"/>
			</g>
		</g>
		<g>
			<g>
				<path class="st1" d="M44.1,131.3c-7-1.4-11.8,4.6-12.9,10.9c-1.6,8.8-2,18.7-1.8,27.6c0.2,7.1,1.8,14.7,7.7,19.3
					c6.7,5.2,15.8,4.2,23.3,1.8c19.5-6,36.7-18.3,52.8-30.4c4.8-3.6,13-8.6,7-15.2c-2.5-2.7-6.4-3.8-9.9-4.7
					c-5.9-1.6-11.8-3.2-17.7-4.6c-12.4-3-25-5.6-37.6-7.7c-7.5-1.2-19.6-2.5-21.3,7.7c-0.5,3.1,3.4,4.1,4.6,1.3
					c2.6-6.3,10.1-4.7,15.3-3.8c5.1,0.8,10.1,1.8,15.1,2.8c9.4,1.9,18.8,4,28.1,6.3c4.9,1.2,10.1,2.3,14.8,4
					c2.3,0.8,6.4,1.9,4.3,5.3c-1.1,1.7-4.5,3.5-6.2,4.7c-7.1,5.3-14.2,10.5-21.7,15.2c-7.7,4.9-15.8,9.2-24.3,12.5
					c-8.2,3.1-20.3,6.9-26.4-1.9c-4.3-6.2-3.4-15-2.9-22c0.4-6.9-1.5-27.1,9.3-26.5C45.1,133.8,45.4,131.6,44.1,131.3L44.1,131.3z"
					/>
			</g>
		</g>
		<g>
			<g>
				<path class="st1" d="M120.6,133.3c-4.9,2.2-9.9,0.4-14.8-1c-4.4-1.3-8.9-2.5-13.3-3.7c-8.9-2.4-17.8-4.9-26.8-7.3
					c-4.5-1.2-9-2.3-13.4-3.4c-4.6-1.1-10-1.6-11.2-7c-1.8-7.5,0.6-16,4.5-22.4c3.8-6.2,13.3-16.3,21.3-12.1c3.7,1.9,7,5.9,10,8.7
					c3,2.8,6,5.7,8.8,8.7c12,12.4,22.6,26.1,32.1,40.4c1.3,1.9,4.4,0.1,3.1-1.8c-9.1-14-19.4-27.1-30.7-39.4
					c-5.8-6.3-11.6-12.6-18-18.2c-5.5-4.9-10.7-5.3-17.1-1.9c-11.4,6-18.8,18.6-19.5,31.4c-0.3,5.9,0.6,12.8,6.3,15.8
					c3,1.6,6.6,2.2,9.9,3c4.8,1.2,9.6,2.5,14.4,3.6c10.3,2.4,20.6,4.9,30.9,7.2c7.6,1.8,17.1,5.4,24.6,1.4
					C123.1,134.5,121.9,132.7,120.6,133.3L120.6,133.3z"/>
			</g>
		</g>
		<g>
			<g>
				<path class="st1" d="M149.3,163.7c-7.3-3.9-8.9,8.7-9.7,13c-2,10.7-3.1,21.5-3.7,32.3c-0.6,10.4-1.9,21.6-0.7,32
					c0.9,8.1,5.2,14.9,13,17.8c9.3,3.5,19.6,1,28.8-1.4c7.9-2.1,16.3-5.5,20.4-13.1c4.4-8.2,0.8-17.4-2.3-25.4
					c-3.4-8.8-7.6-17.3-12.7-25.3c-3.3-5.3-31.5-44.5-37.6-30.7c-1.6,3.5,3.1,6.4,5.2,3.1c-0.4,0.6,2.4,2.3,3.4,3.2
					c1.6,1.4,3.2,2.9,4.7,4.4c3.1,3,6,6.2,8.8,9.5c5.7,6.8,10.7,14.2,15,22.1c4,7.3,7.4,15,9.9,23c1.7,5.4,2.6,10.6-1.2,15.3
					c-3,3.7-7.5,5.7-11.9,7.2c-8.8,2.9-20.1,6.5-29.1,3c-10.2-4-10-15-9.9-24.2c0.1-10.4,0.3-20.7,1-31.1c0.4-5.6,0.9-11.3,1.7-16.9
					c0.3-2.2,1.4-17.8,6.1-15.8C149.6,166,150.3,164.2,149.3,163.7L149.3,163.7z"/>
			</g>
		</g>
		<g>
			<g>
				<path class="st1" d="M158.7,157.9c4.6-10.7,19.6-6.6,28.6-6.3c9.7,0.4,19.3-0.5,28.9-1c8.2-0.4,18-0.5,24.2,5.9
					c7,7.1,5.9,18.4,1.9,26.6c-3.9,7.9-10.1,16.2-16.8,22c-3.8,3.3-9.1,5.9-14.2,4.5c-4.7-1.3-7.8-6-10.7-9.6
					c-6.6-8.3-13.2-16.6-19.8-24.9c-2.8-3.5-5.6-7.2-9-10.3c-1.3-1.2-2.7-2.4-4.2-3.4c-0.7-0.5-1.5-1-2.2-1.4c-2.3-1.1-2.6-3-1-5.6
					c1.4-0.1,1.7-2,0.3-2.4c-5.4-1.7-7.4,5.1-4.8,8.9c2.4,3.5,6.7,5.5,9.5,8.6c3.6,3.9,6.7,8.4,10,12.6c7.1,9,13.7,18.7,21.5,27.1
					c5.7,6.1,13.4,8.1,21.3,4.8c8.4-3.6,14.7-11.9,19.8-19.2c5.1-7.3,9.1-16.1,8.5-25.2c-0.5-7.7-4-15-10.8-19
					c-7.1-4.1-15.7-4-23.6-3.3c-12.3,1.1-24.4,2.1-36.8,1.3c-8.4-0.5-18.8-0.7-22.2,8.8C157,158.1,158.3,158.7,158.7,157.9
					L158.7,157.9z"/>
			</g>
		</g>
		<g>
			<g>
				<path class="st1" d="M23,97.7C46.4,53.3,93.8,20.1,144.7,19c15.7-0.3,30.5,3.8,45,9.5c13.4,5.2,26.4,11.4,37.9,20
					c20.3,15.3,35.5,37.1,43.2,61.3c16.4,51.9-4.6,110.2-48.9,141.2c-21.7,15.2-48.5,24.5-75.2,24c-14.8-0.3-29.8-3.7-43.8-8.2
					c-14.1-4.6-26.1-12-37.3-21.7c-11.6-10.1-24.1-20.6-32.7-33.6c-8.9-13.3-12.5-29-13.7-44.7c-1.1-14.8-0.8-30.1,0.7-44.9
					c1.5-15.1,5.2-30.2,14.5-42.4c1-1.4-1.3-3.2-2.4-1.8c-17.4,21.6-17.8,51.7-17.3,78.2c0.3,14.3,1.8,29,6.9,42.4
					c5.1,13.3,13.8,24.1,23.9,33.9c10.6,10.2,21.6,20.8,34.2,28.6c13,8.1,28.1,12.4,42.9,15.5c28.5,6,57.2,2.1,83.4-10.8
					c50.2-24.8,80.7-79.8,73-135.6c-3.6-25.9-15.6-50.4-33.5-69.4c-19.8-21-47.7-34.5-75.6-41.2C118.3,6.6,60,37.3,32.2,80.5
					c-3.5,5.5-6.6,11.2-9.3,17C22.8,97.7,23,97.8,23,97.7L23,97.7z"/>
			</g>
		</g>
		<g>
			<g>
				<path class="st1" d="M209.3,110.3c-6.2-3.7-16.1,3.1-20,7.7c-1.4,1.7-4.4,4.8-3.1,7.1c1.5,2.8,7.2,2.1,9.6,1.8
					c4.7-0.6,10.2-2.1,14.3-4.4c2.6-1.5,4.1-3.9,3.9-7c-0.4-5.9-8.9-10.6-13.5-6.2c-0.5,0.5-0.3,1.4,0.4,1.6c1.7,0.3,3.3-0.1,5,0.2
					c1.8,0.3,3.2,1.1,4.2,2.6c1.8,2.8,0,4.8-2.5,6.4c-4,2.5-10.8,4-15.4,3.9c-1.9,0-2.7,0.3-2.5-1.4c0.1-0.9,1.7-2.4,2.2-3
					c1.6-1.8,3.5-3.3,5.5-4.5c2-1.2,4.3-2.2,6.6-2.9c1.8-0.6,3.6-0.6,5.2-1.6C209.5,110.5,209.5,110.3,209.3,110.3L209.3,110.3z"/>
			</g>
		</g>
		<g>
			<g>
				<path class="st1" d="M147.8,201.8c-1,5.3-1.6,10.6-1.4,16c0.1,3.2,0.2,7.8,2.7,10.2c2.1,2.1,5.1,1.9,7.4,0.1
					c2.9-2.3,3.3-6.5,3.4-10c0.2-4.3-0.4-8.7-2.1-12.6c-1.1-2.5-3.5-6.9-6.6-7.3c-8.2-1.2-5.2,17.7-3.8,21.3
					c0.5,1.4,2.5,1.2,2.6-0.4c0.1-2.6-0.3-5-0.4-7.6c-0.1-1.8-0.8-6.9,0.3-8.3c2.7-3.6,6.6,9.3,6.8,11.3c0.3,2.2,0.7,4.9,0.1,7.1
					c0.2,2.1-1.2,2.6-4,1.6c-2.5,1.5-3.8,1.4-4-0.3c-0.5-0.6-0.6-3.1-0.6-3.6c-0.7-5.8-0.6-11.7,0.2-17.5
					C148.4,201.6,147.9,201.5,147.8,201.8L147.8,201.8z"/>
			</g>
		</g>
		<g>
			<g>
				<path class="st1" d="M99.1,220.5c-4.1,3.4-8,14.4-2.9,18.4c6.1,4.8,11.5-3.6,12.8-8.5c1-3.9,5.1-19.7-2.3-20.2
					c-3.2-0.2-5.8,3.6-7.3,5.9c-2.2,3.3-4.2,7-3.3,11c0.1,0.6,0.9,0.6,1.2,0.2c2.2-2.9,2.9-6.5,4.8-9.5c1.7-2.6,4.3-5.5,5.6-0.4
					c0.5,1.8-0.1,4.7-0.3,6.5c-0.4,3.5-1.7,15.9-7.7,14.2c-1.3-1.7-2.7-3.5-4-5.2c0-1,0.1-2,0.1-3.1c0.3-3.4,0.9-6.4,3.4-8.9
					C99.6,220.5,99.3,220.3,99.1,220.5L99.1,220.5z"/>
			</g>
		</g>
		<g>
			<g>
				<path class="st1" d="M91.3,61.1c0.9,6.4,3.7,12.3,7.9,17.1c0.7,0.8,2-0.4,1.2-1.2c-4-4.6-6.6-10.3-7.5-16.3
					C92.8,59.6,91.2,60,91.3,61.1L91.3,61.1z"/>
			</g>
		</g>
		<g>
			<g>
				<path class="st1" d="M104.1,84.2c2.5,5,5,9.9,7.5,14.9c0.5,1,2,0.1,1.5-0.9c-2.5-5-5-9.9-7.5-14.9
					C105.1,82.3,103.6,83.2,104.1,84.2L104.1,84.2z"/>
			</g>
		</g>
		<g>
			<g>
				<path class="st1" d="M103.7,66c1.9,4.2,3.7,8.4,5.6,12.6c0.5,1,1.9,0.1,1.5-0.9c-1.9-4.2-3.7-8.4-5.6-12.6
					C104.7,64.1,103.2,65,103.7,66L103.7,66z"/>
			</g>
		</g>
		<g>
			<g>
				<path class="st1" d="M117.4,94.3c2.9,6.7,5.1,13.7,6.6,20.9c0.2,1.1,1.9,0.6,1.7-0.5c-1.5-7.3-3.8-14.4-6.8-21.3
					C118.5,92.4,117,93.3,117.4,94.3L117.4,94.3z"/>
			</g>
		</g>
		<g>
			<g>
				<path class="st1" d="M49.2,106.1c5,1.9,9.9,3.8,14.9,5.6c1,0.4,1.5-1.3,0.5-1.7c-5-1.9-9.9-3.8-14.9-5.6
					C48.6,104,48.1,105.7,49.2,106.1L49.2,106.1z"/>
			</g>
		</g>
		<g>
			<g>
				<path class="st1" d="M73,114c2.3,0.6,4.7,1.2,7,1.9c1.1,0.3,1.5-1.4,0.5-1.7c-2.3-0.6-4.7-1.2-7-1.9C72.4,112,71.9,113.7,73,114
					L73,114z"/>
			</g>
		</g>
		<g>
			<g>
				<path class="st1" d="M63.4,93.9c6.5,3.4,12.4,7.7,17.6,12.8c0.8,0.8,2-0.4,1.2-1.2c-5.3-5.3-11.4-9.7-18-13.1
					C63.3,91.9,62.4,93.4,63.4,93.9L63.4,93.9z"/>
			</g>
		</g>
		<g>
			<g>
				<path class="st1" d="M91.3,116.1c2.8,2.5,5.6,5,8.4,7.5c0.8,0.7,2.1-0.5,1.2-1.2c-2.8-2.5-5.6-5-8.4-7.5
					C91.7,114.1,90.4,115.3,91.3,116.1L91.3,116.1z"/>
			</g>
		</g>
		<g>
			<g>
				<path class="st1" d="M50.9,148.6c5.4-0.2,10.9-0.3,16.3-0.5c1.1,0,1.1-1.8,0-1.7c-5.4,0.2-10.9,0.3-16.3,0.5
					C49.7,146.9,49.7,148.6,50.9,148.6L50.9,148.6z"/>
			</g>
		</g>
		<g>
			<g>
				<path class="st1" d="M56.5,158.8c3.9-0.3,7.8-0.6,11.7-0.9c1.1-0.1,1.1-1.8,0-1.7c-3.9,0.3-7.8,0.6-11.7,0.9
					C55.3,157.1,55.3,158.9,56.5,158.8L56.5,158.8z"/>
			</g>
		</g>
		<g>
			<g>
				<path class="st1" d="M46.2,173.1c13.5-1.5,26.7-5.6,38.6-12.2c1-0.5,0.1-2-0.9-1.5c-11.6,6.4-24.5,10.5-37.7,12
					C45.1,171.5,45.1,173.2,46.2,173.1L46.2,173.1z"/>
			</g>
		</g>
		<g>
			<g>
				<path class="st1" d="M83.3,155.5c4.8-0.8,9.3-2.3,13.7-4.3c1-0.5,0.1-2-0.9-1.5c-4.2,2-8.7,3.3-13.3,4.1
					C81.7,154,82.2,155.7,83.3,155.5L83.3,155.5z"/>
			</g>
		</g>
		<g>
			<g>
				<path class="st1" d="M115,171.7c-5.6,4-10.4,8.8-14.4,14.3c-0.7,0.9,0.8,1.8,1.5,0.9c3.8-5.3,8.5-9.9,13.8-13.7
					C116.8,172.6,115.9,171.1,115,171.7L115,171.7z"/>
			</g>
		</g>
		<g>
			<g>
				<path class="st1" d="M114.6,177.3c-1.7,2-3.4,4-5.1,6.1c-0.7,0.8,0.5,2.1,1.2,1.2c1.7-2,3.4-4,5.1-6.1
					C116.6,177.7,115.3,176.5,114.6,177.3L114.6,177.3z"/>
			</g>
		</g>
		<g>
			<g>
				<path class="st1" d="M89.8,191.7c-6.6,7-12.1,15-16.3,23.6c-0.5,1,1,1.9,1.5,0.9c4.1-8.6,9.5-16.4,16-23.3
					C91.8,192.1,90.6,190.9,89.8,191.7L89.8,191.7z"/>
			</g>
		</g>
		<g>
			<g>
				<path class="st1" d="M83.7,211.6c-1.8,3.8-3,7.9-3.4,12.1c-0.1,1.1,1.6,1.1,1.7,0c0.4-3.9,1.4-7.7,3.1-11.2
					C85.7,211.4,84.2,210.6,83.7,211.6L83.7,211.6z"/>
			</g>
		</g>
		<g>
			<g>
				<path class="st1" d="M143.7,181c0.5,3,0.9,5.9,1.4,8.9c0.2,1.1,1.8,0.6,1.7-0.5c-0.5-3-0.9-5.9-1.4-8.9
					C145.2,179.4,143.5,179.9,143.7,181L143.7,181z"/>
			</g>
		</g>
		<g>
			<g>
				<path class="st1" d="M147.5,180.9c0.3,0.9,0.6,1.9,0.9,2.8c0.4,1.1,2,0.6,1.7-0.5c-0.3-0.9-0.6-1.9-0.9-2.8
					C148.8,179.4,147.2,179.9,147.5,180.9L147.5,180.9z"/>
			</g>
		</g>
		<g>
			<g>
				<path class="st1" d="M152.4,178.6c7.5,8.7,13.2,18.9,16.6,29.9c0.3,1.1,2,0.6,1.7-0.5c-3.5-11.3-9.3-21.7-17.1-30.7
					C152.8,176.5,151.6,177.7,152.4,178.6L152.4,178.6z"/>
			</g>
		</g>
		<g>
			<g>
				<path class="st1" d="M176,216.4c1.7,4.7,3.4,9.3,5.2,14c0.4,1,2.1,0.6,1.7-0.5c-1.7-4.7-3.4-9.3-5.2-14
					C177.3,214.9,175.6,215.3,176,216.4L176,216.4z"/>
			</g>
		</g>
		<g>
			<g>
				<path class="st1" d="M171.8,158.8c4.2,6.9,9.2,13.3,14.7,19.3c0.8,0.8,2-0.4,1.2-1.2c-5.4-5.8-10.2-12.2-14.4-18.9
					C172.7,156.9,171.2,157.8,171.8,158.8L171.8,158.8z"/>
			</g>
		</g>
		<g>
			<g>
				<path class="st1" d="M197.1,185.1c4.4,4.3,8.8,8.7,13.1,13c0.8,0.8,2-0.4,1.2-1.2c-4.4-4.3-8.8-8.7-13.1-13
					C197.6,183.1,196.3,184.3,197.1,185.1L197.1,185.1z"/>
			</g>
		</g>
		<g>
			<g>
				<path class="st1" d="M149.9,235.5c1.2,3.1,2.5,6.2,3.7,9.3c0.4,1,2.1,0.6,1.7-0.5c-1.2-3.1-2.5-6.2-3.7-9.3
					C151.2,234,149.5,234.5,149.9,235.5L149.9,235.5z"/>
			</g>
		</g>
		<g>
			<g>
				<path class="st1" d="M183.6,164.5c2.5,2.6,5,5.3,7.5,7.9c0.8,0.8,2-0.4,1.2-1.2c-2.5-2.6-5-5.3-7.5-7.9
					C184.1,162.5,182.9,163.7,183.6,164.5L183.6,164.5z"/>
			</g>
		</g>
		<g>
			<g>
				<path class="st1" d="M190.8,156.7c7.3,0.7,14.6,1.5,21.9,2.2c1.1,0.1,1.1-1.6,0-1.7c-7.3-0.7-14.6-1.5-21.9-2.2
					C189.7,154.9,189.7,156.6,190.8,156.7L190.8,156.7z"/>
			</g>
		</g>
		<g>
			<g>
				<path class="st1" d="M212,164.2c3.6,1.2,7.2,2.5,10.7,3.7c1.1,0.4,1.5-1.3,0.5-1.7c-3.6-1.2-7.2-2.5-10.7-3.7
					C211.4,162.2,211,163.9,212,164.2L212,164.2z"/>
			</g>
		</g>
		<g>
			<g>
				<path class="st1" d="M208.8,174.7c3.1,2.9,6.6,5.3,10.4,7.1c1,0.5,1.9-1,0.9-1.5c-3.7-1.8-7.1-4.1-10.1-6.9
					C209.2,172.8,208,174,208.8,174.7L208.8,174.7z"/>
			</g>
		</g>
		<g>
			<g>
				<path class="st1" d="M161.9,130.9c6.8-7,13.7-14,20.5-21c0.8-0.8-0.4-2-1.2-1.2c-6.8,7-13.7,14-20.5,21
					C159.9,130.4,161.1,131.7,161.9,130.9L161.9,130.9z"/>
			</g>
		</g>
		<g>
			<g>
				<path class="st1" d="M193.1,101c5.3-5.3,10.5-10.6,15.8-15.9c0.8-0.8-0.4-2-1.2-1.2c-5.3,5.3-10.5,10.6-15.8,15.9
					C191.1,100.5,192.4,101.8,193.1,101L193.1,101z"/>
			</g>
		</g>
		<g>
			<g>
				<path class="st1" d="M200.7,101.1c2.6-2.3,5.3-4.7,7.9-7c0.8-0.7-0.4-2-1.2-1.2c-2.6,2.3-5.3,4.7-7.9,7
					C198.6,100.6,199.9,101.8,200.7,101.1L200.7,101.1z"/>
			</g>
		</g>
		<g>
			<g>
				<path class="st1" d="M216.8,93.3c0.5-0.3,0.9-0.6,1.4-0.9c0.9-0.6,0.1-2.1-0.9-1.5c-0.5,0.3-0.9,0.6-1.4,0.9
					C215,92.4,215.9,93.9,216.8,93.3L216.8,93.3z"/>
			</g>
		</g>
		<g>
			<g>
				<path class="st1" d="M218.7,105.4c3.4-2.5,6.8-5,10.3-7.5c0.9-0.7,0-2.2-0.9-1.5c-3.4,2.5-6.8,5-10.3,7.5
					C216.9,104.5,217.8,106,218.7,105.4L218.7,105.4z"/>
			</g>
		</g>
		<g>
			<g>
				<path class="st1" d="M151.3,53.1c-1.3,8.3-2.6,16.5-3.9,24.8c-0.2,1.1,1.5,1.6,1.7,0.5c1.3-8.3,2.6-16.5,3.9-24.8
					C153.1,52.5,151.5,52,151.3,53.1L151.3,53.1z"/>
			</g>
		</g>
		<g>
			<g>
				<path class="st1" d="M159.6,50.3c-0.9,5.1-1.9,10.3-2.8,15.4c-0.2,1.1,1.5,1.6,1.7,0.5c0.9-5.1,1.9-10.3,2.8-15.4
					C161.4,49.7,159.8,49.2,159.6,50.3L159.6,50.3z"/>
			</g>
		</g>
		<g>
			<g>
				<path class="st1" d="M166.2,58.5c-1.4,3-2.8,5.9-4.2,8.9c-0.5,1,1,1.9,1.5,0.9c1.4-3,2.8-5.9,4.2-8.9
					C168.1,58.4,166.7,57.5,166.2,58.5L166.2,58.5z"/>
			</g>
		</g>
		<g>
			<g>
				<path class="st1" d="M149.8,91.4c-1.7,7-3.4,14-5.1,21c-0.3,1.1,1.4,1.5,1.7,0.5c1.7-7,3.4-14,5.1-21
					C151.7,90.8,150,90.3,149.8,91.4L149.8,91.4z"/>
			</g>
		</g>
	</g>
</g>
</svg>
