<?xml version="1.0" standalone="no"?>
<!DOCTYPE svg PUBLIC "-//W3C//DTD SVG 20010904//EN"
 "http://www.w3.org/TR/2001/REC-SVG-20010904/DTD/svg10.dtd">
<svg version="1.0" xmlns="http://www.w3.org/2000/svg"
 width="1000.000000pt" height="1000.000000pt" viewBox="0 0 1000.000000 1000.000000"
 preserveAspectRatio="xMidYMid meet">
<metadata>
Created by potrace 1.11, written by Peter Selinger 2001-2013
</metadata>
<g transform="translate(0.000000,1000.000000) scale(0.100000,-0.100000)"
fill="#000000" stroke="none">
<path d="M465 9528 c-3 -7 -4 -1867 -3 -4133 l3 -4120 4130 0 4130 0 0 4130 0
4130 -4128 3 c-3297 2 -4129 0 -4132 -10z m8175 -2491 l0 -2413 -100 17 c-382
69 -814 38 -1160 -83 -119 -41 -329 -146 -430 -214 -405 -271 -710 -715 -840
-1220 -67 -259 -92 -484 -92 -814 0 -334 36 -654 100 -882 l19 -68 -2793 0
-2794 0 0 2015 0 2015 1195 0 1195 0 0 220 c0 121 -3 220 -6 220 -16 0 -744
70 -781 75 l-43 6 0 1770 0 1769 3265 0 3265 0 0 -2413z m-7620 393 c0 -1330
-2 -1530 -14 -1530 -21 0 -363 -29 -413 -35 l-43 -5 0 1493 0 1492 153 34 c83
18 186 44 227 56 41 13 78 23 83 24 4 1 7 -687 7 -1529z m7205 -3225 c144 -39
279 -133 372 -259 l43 -58 0 -1264 0 -1264 -718 0 -718 0 -17 103 c-86 532
-89 1273 -7 1759 102 598 339 930 712 998 73 13 260 4 333 -15z"/>
<path d="M4077 8415 c-301 -37 -596 -129 -922 -290 -196 -97 -425 -247 -441
-290 -5 -12 198 -383 241 -442 13 -17 14 -17 37 3 39 36 188 129 283 177 333
166 726 226 1020 157 337 -79 508 -274 531 -605 30 -429 -264 -843 -785 -1104
-181 -91 -402 -170 -591 -212 -52 -11 -96 -22 -99 -24 -2 -2 31 -105 74 -228
l77 -224 216 54 c212 54 219 55 322 50 466 -25 798 -227 929 -565 52 -135 66
-227 65 -417 -1 -150 -4 -182 -27 -270 -32 -118 -115 -292 -186 -385 -194
-257 -531 -455 -908 -534 -184 -38 -302 -50 -523 -50 -227 0 -368 16 -552 64
l-108 27 0 -273 c0 -150 4 -275 8 -278 18 -11 264 -57 422 -78 141 -19 211
-22 475 -23 193 0 355 5 430 13 1155 128 1939 682 2116 1495 26 119 37 390 20
508 -36 256 -135 456 -310 629 -276 273 -659 408 -1170 411 -75 0 -129 3 -121
6 71 27 283 126 364 171 389 214 705 513 852 804 75 149 113 305 121 494 21
500 -184 848 -624 1060 -180 87 -422 150 -657 173 -145 14 -444 12 -579 -4z"/>
</g>
</svg>
