<?xml version="1.0" encoding="utf-8"?>
<!-- Generator: Adobe Illustrator 23.0.1, SVG Export Plug-In . SVG Version: 6.00 Build 0)  -->
<svg version="1.1" id="Layer_1" xmlns="http://www.w3.org/2000/svg" xmlns:xlink="http://www.w3.org/1999/xlink" x="0px" y="0px"
	 viewBox="0 0 637.3 398" style="enable-background:new 0 0 637.3 398;" xml:space="preserve">
<style type="text/css">
	.st0{fill:none;stroke:#FF6B6B;stroke-width:25;stroke-miterlimit:10;}
</style>
<path class="st0" d="M12.1,394.8c2.6-9.6,5.2-19,8.6-26.8c3.5-7.8,8.2-13.8,14.2-17.2c6-3.4,13.6-4.5,22-3.7s18,3.4,27.5,5.9
	c9.6,2.6,19.1,5,27.5,5.9s16-0.2,22-3.7c6.1-3.5,10.7-9.5,14.2-17.2c3.5-7.7,6.2-17.3,8.7-26.7s5.2-19,8.6-26.8s8.2-13.8,14.2-17.2
	c6-3.5,13.6-4.5,22-3.7s18.1,3.3,27.5,5.9c9.6,2.6,19.1,5,27.5,5.8s16-0.2,22-3.7c6-3.4,10.7-9.5,14.2-17.2
	c3.6-7.7,6.2-17.3,8.7-26.7c2.5-9.4,5.2-19,8.6-26.8c3.5-7.8,8.2-13.8,14.2-17.2c6-3.4,13.6-4.5,22-3.7c8.5,0.7,18.1,3.3,27.5,5.9
	c9.5,2.6,19.1,5,27.5,5.8c8.4,0.8,16-0.2,22-3.7c6-3.4,10.7-9.5,14.2-17.2c3.6-7.7,6.2-17.3,8.7-26.7c2.5-9.4,5.2-19,8.6-26.8
	c3.5-7.8,8.2-13.8,14.2-17.2c6-3.5,13.6-4.5,22-3.7c8.5,0.7,18.1,3.3,27.5,5.9c9.5,2.6,19.1,5,27.5,5.8s16-0.2,22-3.7
	s10.7-9.5,14.2-17.2c3.6-7.7,6.2-17.3,8.7-26.7c2.5-9.4,5.2-19,8.6-26.8c3.5-7.8,8.2-13.8,14.2-17.2c6-3.5,13.6-4.5,22-3.7"/>
</svg>
