<?xml version="1.0" encoding="utf-8"?>
<!-- Generator: Adobe Illustrator 23.0.1, SVG Export Plug-In . SVG Version: 6.00 Build 0)  -->
<svg version="1.1" id="Layer_1" xmlns="http://www.w3.org/2000/svg" xmlns:xlink="http://www.w3.org/1999/xlink" x="0px" y="0px"
	 viewBox="0 0 709.4 278.6" style="enable-background:new 0 0 709.4 278.6;" xml:space="preserve">
<style type="text/css">
	.st0{fill:none;stroke:#FF6B6B;stroke-width:25;stroke-miterlimit:10;}
</style>
<path class="st0" d="M5.3,25c9-4.2,17.9-8.3,26.1-10.6s15.8-2.5,22.3-0.2s12.2,7.5,17,14.5s9,15.9,13.2,24.9S92.2,71.4,97,78.5
	c4.8,7.1,10.5,12.1,17,14.5c6.6,2.4,14.1,2.1,22.3-0.2c8.2-2.2,17.2-6.4,26.1-10.5c8.8-4.1,17.9-8.3,26.1-10.6
	c8.2-2.3,15.8-2.5,22.3-0.2s12.2,7.5,17,14.5c4.8,7,9.1,16,13.2,24.9c4.2,9,8.4,17.9,13.2,24.8c4.8,7,10.5,12.1,17,14.5
	c6.5,2.4,14.1,2.1,22.3-0.2c8.3-2.2,17.2-6.4,26.1-10.5s17.9-8.3,26.1-10.6c8.2-2.3,15.8-2.5,22.3-0.2c6.5,2.4,12.2,7.5,17,14.5
	c4.9,7,9.1,16,13.2,24.9c4.1,8.9,8.4,17.9,13.2,24.8c4.8,7,10.5,12.1,17,14.5c6.5,2.4,14.1,2.1,22.3-0.2c8.3-2.2,17.2-6.4,26.1-10.5
	c8.8-4.1,17.9-8.3,26.1-10.6s15.8-2.5,22.3-0.2c6.5,2.4,12.2,7.5,17,14.5c4.9,7,9.1,16,13.2,24.9c4.1,8.9,8.4,17.9,13.2,24.8
	c4.8,7,10.5,12.1,17,14.5c6.5,2.4,14.1,2.1,22.3-0.2c8.3-2.2,17.2-6.4,26.1-10.5c8.8-4.1,17.9-8.3,26.1-10.6
	c8.2-2.3,15.8-2.5,22.3-0.2c6.5,2.4,12.2,7.5,17,14.5"/>
</svg>
