<?xml version="1.0" encoding="utf-8"?>
<!-- Generator: Adobe Illustrator 23.0.1, SVG Export Plug-In . SVG Version: 6.00 Build 0)  -->
<svg version="1.1" id="Layer_1" xmlns="http://www.w3.org/2000/svg" xmlns:xlink="http://www.w3.org/1999/xlink" x="0px" y="0px"
	 viewBox="0 0 748.9 78.3" style="enable-background:new 0 0 748.9 78.3;" xml:space="preserve">
<style type="text/css">
	.st0{fill:none;stroke:#FF6B6B;stroke-width:25;stroke-miterlimit:10;}
</style>
<path class="st0" d="M8.8,39.2c7-7,14-13.9,20.9-18.9s14-7.8,20.9-7.8s14,2.9,20.9,7.8s13.9,11.9,20.9,18.9s14,13.9,20.9,18.9
	s14,7.8,20.9,7.8c7,0,14-2.9,20.9-7.8s14-11.9,20.9-18.8s14-13.9,20.9-18.9s14-7.8,20.9-7.8s14,2.9,20.9,7.8s14,11.9,20.9,18.9
	c7,7,14,13.9,20.9,18.8s14,7.8,20.9,7.8s14-2.9,20.9-7.8c7-4.9,14-11.9,20.9-18.8s14-13.9,20.9-18.9s14-7.8,20.9-7.8
	s14,2.9,20.9,7.8c7,4.9,14,11.9,20.9,18.9s14,13.9,20.9,18.8s14,7.8,20.9,7.8s14-2.9,20.9-7.8c7-4.9,14-11.9,20.9-18.8
	s14-13.9,20.9-18.9s14-7.8,20.9-7.8s14,2.9,20.9,7.8c7,4.9,14,11.9,20.9,18.9s14,13.9,20.9,18.8s14,7.8,20.9,7.8s14-2.9,20.9-7.8
	c7-4.9,14-11.9,20.9-18.8s14-13.9,20.9-18.9s14-7.8,20.9-7.8s14,2.9,20.9,7.8"/>
</svg>
