<?xml version="1.0" encoding="utf-8"?>
<!-- Generator: Adobe Illustrator 23.0.3, SVG Export Plug-In . SVG Version: 6.00 Build 0)  -->
<svg version="1.1" id="Layer_1" xmlns="http://www.w3.org/2000/svg" xmlns:xlink="http://www.w3.org/1999/xlink" x="0px" y="0px"
	 viewBox="0 0 52 58.1" style="enable-background:new 0 0 52 58.1;" xml:space="preserve">
<style type="text/css">
	.st0{fill:#FFFFFF;}
</style>
<g>
	<path class="st0" d="M26,0.6c0.9,0,1.9,0.3,2.7,0.7l20,11.5c1.7,1,2.7,2.8,2.7,4.7v23.1c0,1.9-1,3.7-2.7,4.7l-20,11.5
		c-0.8,0.5-1.8,0.7-2.7,0.7s-1.9-0.3-2.7-0.7l-20-11.5c-1.7-1-2.7-2.8-2.7-4.7V17.5c0-1.9,1-3.7,2.7-4.7l20-11.5
		C24.1,0.9,25,0.6,26,0.6 M26,0c-1,0-2.1,0.3-3,0.8L3,12.3c-1.9,1.1-3,3.1-3,5.2v23.1c0,2.1,1.1,4.1,3,5.2l20,11.5
		c0.9,0.5,2,0.8,3,0.8c1,0,2.1-0.3,3-0.8l20-11.5c1.9-1.1,3-3.1,3-5.2V17.5c0-2.1-1.1-4.1-3-5.2L29,0.8C28.1,0.3,27,0,26,0L26,0z"/>
</g>
</svg>
