<svg width="313" height="311" viewBox="0 0 313 311" fill="none" xmlns="http://www.w3.org/2000/svg">
<path d="M203.966 276.039L203.256 278.953L203.966 276.039L203.579 275.944C194.885 273.818 185.716 276.391 179.407 282.729L179.152 282.986C172.345 289.824 161.559 290.667 153.758 284.97L153.466 284.756C146.236 279.476 136.774 278.358 128.522 281.808L128.155 281.962C119.253 285.684 108.875 282.261 103.833 273.983C99.1575 266.306 90.6482 261.588 81.6755 261.641C71.9498 261.698 63.5198 254.607 62.0537 245.05C60.6853 236.131 54.6541 228.578 46.3027 225.201C37.3004 221.562 32.2802 211.823 34.6096 202.438C36.78 193.693 34.1555 184.444 27.7185 178.13C20.7776 171.321 19.9142 160.431 25.6967 152.628C31.0593 145.391 32.1941 135.849 28.6723 127.548C24.8927 118.641 28.3164 108.243 36.6344 103.25C44.3509 98.618 49.1175 90.2212 49.0635 81.199C49.0056 71.5323 56.2143 63.2195 65.8293 61.7659C74.6999 60.4248 82.3609 54.4433 85.7694 46.1351C89.445 37.176 99.1555 32.1831 108.534 34.477L108.921 34.5715C117.615 36.698 126.784 34.1245 133.093 27.7866L133.348 27.5304L131.22 25.413L133.348 27.5303C140.155 20.6918 150.941 19.8491 158.742 25.5463L160.51 23.1247L158.742 25.5464L159.035 25.7599C166.265 31.04 175.726 32.158 183.978 28.7075L182.824 25.9527L183.978 28.7075L184.345 28.5541C193.247 24.832 203.625 28.2554 208.667 36.5335C213.343 44.2101 221.852 48.9282 230.825 48.8753C240.551 48.8178 248.981 55.9088 250.447 65.4655C251.815 74.3851 257.846 81.9382 266.198 85.3146C275.2 88.9542 280.22 98.6925 277.891 108.078C275.72 116.823 278.345 126.072 284.782 132.386C291.723 139.195 292.586 150.085 286.804 157.888C281.441 165.125 280.306 174.667 283.828 182.968C287.608 191.875 284.184 202.273 275.866 207.266C268.149 211.898 263.383 220.295 263.437 229.317C263.495 238.984 256.286 247.296 246.671 248.75C237.8 250.091 230.139 256.073 226.731 264.381C223.055 273.34 213.345 278.333 203.966 276.039Z" stroke="#E54B4B" stroke-width="6"/>
<path d="M89.7739 120.662C88.3063 120.777 87.5578 121.862 87.6539 123.075C87.7601 124.414 88.4741 125.322 90.0945 125.516L95.0733 125.961C96.7626 126.215 97.6628 127.043 97.8146 128.957C98.2496 134.444 94.1614 141.183 86.8237 141.756C79.1033 142.359 73.5156 133.423 72.6962 123.088C71.897 113.007 75.8354 105.189 83.2368 104.611C88.7241 104.182 91.7389 106.578 95.2498 111.183C98.3172 115.052 99.4929 116.115 100.897 116.006C102.811 115.856 103.413 112.92 103.14 109.475C102.715 104.116 100.295 97.8855 97.2958 98.1198C95.5731 98.2544 94.709 100.312 93.4306 103.622C91.4366 101.145 87.5336 98.8825 81.9187 99.3212C69.349 100.303 63.491 112.252 64.4824 124.757C65.5446 138.155 73.5709 148.697 85.3749 147.775C92.2021 147.242 96.7195 143.487 99.2164 138.541L99.8471 141.637C100.689 144.974 102.347 146.449 104.261 146.3C105.729 146.185 106.503 145.418 106.47 144.201C106.32 140.682 105.64 127.254 105.312 123.107C105.109 120.555 103.811 119.565 101.45 119.75L89.7739 120.662ZM139.253 131.24C138.934 131.265 138.704 131.604 138.068 132.488C137.143 133.78 133.657 137.584 128.744 137.967C125.362 138.232 120.239 136.77 119.19 129.213L139.843 127.343C140.056 125.978 140.287 124.034 140.095 121.61C139.402 112.869 133.653 108.375 125.804 108.988C115.915 109.761 110.334 118.735 111.098 128.369C112.054 140.427 120.062 145.065 127.974 144.447C135.566 143.854 141.044 139.253 140.644 134.213C140.493 132.299 139.891 131.191 139.253 131.24ZM125.816 113.995C129.006 113.745 132.021 116.142 132.476 121.884C132.532 122.586 132.509 123.101 132.475 123.489L118.882 125.321C118.626 118.857 121.605 114.324 125.816 113.995ZM159.125 142.013C165.378 141.525 168.632 134.787 168.217 129.555C168.06 127.577 167.227 125.973 166.589 126.023C166.142 126.058 165.922 126.525 165.528 128.032C164.868 131.037 163.304 133.983 160.815 134.178C158.199 134.382 156.716 131.866 155.937 122.041C155.719 119.298 155.645 116.736 155.605 114.62C157.333 114.549 161.868 114.259 163.782 114.11C164.421 114.06 164.842 113.706 164.786 113.004C164.64 111.154 162.212 108.07 155.385 108.603C155.386 106.998 155.284 103.283 155.082 100.731C155.011 99.8376 154.725 99.4747 154.087 99.5246C151.152 99.7539 141.714 111.083 141.962 114.21C142.033 115.103 142.51 115.451 143.855 115.41L148.012 115.213C148.059 118.227 148.305 122.958 148.619 126.914C149.438 137.249 152.872 142.502 159.125 142.013ZM192.932 101.176C196.633 100.887 198.434 98.4993 198.237 96.0111C198.045 93.5867 195.953 91.5033 192.444 91.7775C188.743 92.0666 186.942 94.4541 187.135 96.8785C187.332 99.3667 189.423 101.45 192.932 101.176ZM196.771 139.072C202.323 138.638 204.582 137.178 204.39 134.754C204.284 133.414 203.61 133.017 201.975 132.631C200.594 132.225 199.985 131.824 199.889 130.612L198.761 116.384C198.462 112.62 198.768 109.194 198.652 107.726C198.419 104.792 196.708 103.449 193.454 103.703C188.349 104.102 185.9 106.412 186.082 108.708C186.194 110.112 186.985 110.371 188.85 110.418C190.078 110.515 190.751 110.911 190.877 112.506L192.349 131.072C192.461 132.476 191.858 132.972 190.303 133.607C189.313 134.07 188.327 134.596 188.439 136C188.636 138.488 191.476 139.486 196.771 139.072ZM215.654 137.597C221.206 137.163 223.544 135.889 223.342 133.337C223.256 132.252 222.493 131.542 221.113 131.136C219.334 130.569 218.926 130.28 218.84 129.195L217.859 116.818C217.515 112.48 221.055 108.544 225.139 108.225C228.648 107.951 230.405 109.868 230.714 113.759C231.093 118.544 230.923 127.738 231.226 131.566C231.489 134.883 233.329 136.216 237.157 135.917C241.432 135.583 244.343 133.43 244.13 130.75C244.034 129.538 243.292 129.082 241.495 129.094C239.954 129.086 239.349 128.748 239.278 127.855C238.995 124.282 238.736 116.15 238.285 110.472C237.815 104.538 234.86 100.468 228.224 100.987C222.354 101.445 218.806 106.088 217.258 111.665L216.684 111.71C216.593 110.562 216.584 108.829 216.447 107.106C216.149 103.342 214.953 102.023 212.464 102.218C207.807 102.582 204.737 105.967 205.005 109.348C205.086 110.369 205.641 110.904 206.535 110.834C207.3 110.774 207.668 110.553 208.434 110.493C209.327 110.423 209.829 111.09 209.925 112.302L211.296 129.592C211.382 130.677 210.858 131.359 209.309 132.058C207.946 132.678 207.309 133.563 207.406 134.775C207.583 137.008 210.486 138.001 215.654 137.597ZM91.0449 223.564C97.2979 223.075 100.552 216.337 100.137 211.106C99.98 209.128 99.1466 207.524 98.5085 207.574C98.0619 207.609 97.8421 208.075 97.448 209.583C96.7874 212.587 95.2234 215.534 92.7349 215.728C90.1189 215.933 88.6354 213.417 87.8565 203.591C87.639 200.848 87.5643 198.286 87.525 196.171C89.2528 196.1 93.788 195.81 95.7022 195.66C96.3402 195.61 96.7616 195.256 96.706 194.555C96.5593 192.704 94.1319 189.62 87.3047 190.154C87.3059 188.549 87.2039 184.833 87.0016 182.281C86.9308 181.388 86.6452 181.025 86.0072 181.075C83.0721 181.304 73.634 192.634 73.8818 195.76C73.9527 196.653 74.4296 197.001 75.7746 196.96L79.9321 196.764C79.9784 199.777 80.2251 204.509 80.5387 208.464C81.3581 218.8 84.792 224.052 91.0449 223.564ZM118.582 221.412C128.217 220.66 134.163 213.069 133.273 201.841C132.459 191.569 125.792 185.221 116.732 185.929C107.161 186.676 101.15 194.272 102.041 205.5C102.855 215.772 109.522 222.12 118.582 221.412ZM119.262 216.224C114.54 216.592 110.593 212.15 109.9 203.41C109.278 195.562 112.032 191.431 116.052 191.117C120.773 190.748 124.721 195.191 125.414 203.931C126.036 211.778 123.282 215.91 119.262 216.224ZM150.563 218.914C155.029 218.565 159.745 215.693 161.383 208.824L162.095 208.897C162.087 209.604 162.137 210.242 162.188 210.88C162.552 215.473 165.238 217.767 167.981 217.553C171.937 217.244 174.398 213.457 174.201 210.968C174.12 209.948 173.701 209.531 173.127 209.576C172.744 209.606 172.121 209.847 171.547 209.892C169.761 210.031 168.702 208.83 168.303 203.79L167.225 190.201C167.058 188.095 167.429 187.103 167.272 185.126C167.121 183.212 166.004 182.079 162.112 182.383C157.007 182.782 154.155 184.867 154.342 187.227C154.453 188.631 155.249 188.954 156.923 189.015C158.858 189.121 159.59 189.449 159.722 191.108L160.693 203.357C161.062 208.015 157.732 211.356 153.84 211.66C151.032 211.88 148.741 210.518 148.392 206.116C148.018 201.395 148.213 192.521 147.859 188.055C147.621 185.056 146.096 183.634 141.949 183.959C137.291 184.322 134.725 186.77 134.902 189.003C135.008 190.343 135.686 190.803 137.611 190.781C139.152 190.789 139.698 191.196 139.769 192.089C139.951 194.386 140.413 205.07 140.757 209.409C141.252 215.661 144.501 219.387 150.563 218.914ZM192.298 215.653C199.955 215.055 204.688 209.164 204.187 202.848C204.091 201.636 203.647 200.9 203.201 200.935C202.818 200.965 202.476 201.505 202.148 202.237C200.628 204.924 197.701 208.491 193.234 208.839C187.938 209.253 184.06 204.87 183.443 197.086C182.861 189.749 185.333 184.485 189.353 184.171C192.288 183.942 194.604 185.622 197.399 190.925C199.056 194.005 200.089 194.887 201.11 194.807C202.322 194.713 203.015 192.925 202.732 189.353C202.272 183.547 200.013 179.358 197.78 179.532C196.696 179.617 195.559 180.669 194.567 182.736C193.15 181.05 190.575 180.159 187.768 180.379C179.984 180.987 174.774 188.969 175.594 199.305C176.438 209.959 183.174 216.366 192.298 215.653ZM241.437 205.33C239.895 205.322 239.296 205.048 239.22 204.091C238.937 200.518 238.677 192.386 238.227 186.708C237.756 180.774 234.802 176.704 228.166 177.223C223.189 177.611 219.736 181.027 217.959 185.338L217.322 177.299C217.029 173.599 217.362 171.326 217.215 169.476C217.013 166.924 215.536 165.306 211.9 165.59C207.561 165.929 204.448 167.97 204.661 170.649C204.752 171.798 205.298 172.205 206.977 172.33C208.784 172.446 209.403 172.975 209.525 174.506L212.003 205.768C212.125 207.299 211.07 207.767 210.016 208.235C208.53 208.928 208.001 209.547 208.092 210.696C208.285 213.12 211.129 214.182 216.425 213.768C221.849 213.344 224.241 211.938 224.034 209.322C223.953 208.301 223.338 207.836 221.825 207.376C220.184 206.927 219.644 206.584 219.537 205.244L218.288 189.485C219.357 186.77 222.081 184.695 225.08 184.461C228.589 184.187 230.346 186.104 230.655 189.996C231.034 194.781 230.864 203.974 231.168 207.802C231.426 211.055 233.206 212.457 237.098 212.153C241.629 211.799 244.269 209.474 244.072 206.986C243.966 205.646 243.106 205.328 241.437 205.33Z" fill="#444140"/>
</svg>
