<svg width="331" height="328" viewBox="0 0 331 328" fill="none" xmlns="http://www.w3.org/2000/svg">
<path d="M173.221 11.7683C174.473 10.6355 176.411 10.7565 177.51 12.0362L193.81 31.0187C194.676 32.0267 196.102 32.3444 197.315 31.7994L220.213 21.5101C221.754 20.8176 223.562 21.5327 224.21 23.0916L233.796 46.1255C234.307 47.3549 235.568 48.099 236.893 47.9526L261.862 45.1921C263.546 45.006 265.048 46.2489 265.18 47.9369L267.124 72.7563C267.228 74.0886 268.202 75.1905 269.511 75.4584L294.095 80.488C295.759 80.8285 296.808 82.4814 296.407 84.1324L290.535 108.311C290.218 109.614 290.805 110.969 291.972 111.628L313.764 123.94C315.246 124.777 315.733 126.679 314.837 128.128L301.731 149.313C301.024 150.457 301.163 151.93 302.072 152.92L318.949 171.297C320.102 172.552 319.977 174.515 318.676 175.617L299.611 191.749C298.584 192.618 298.26 194.063 298.818 195.285L309.145 217.934C309.852 219.483 309.128 221.309 307.552 221.956L284.378 231.459C283.137 231.968 282.383 233.239 282.533 234.571L285.306 259.29C285.495 260.977 284.246 262.487 282.552 262.618L257.527 264.549C256.194 264.652 255.089 265.624 254.818 266.933L249.756 291.314C249.412 292.973 247.764 294.019 246.117 293.625L221.693 287.779C220.398 287.469 219.052 288.051 218.39 289.207L205.972 310.866C205.132 312.332 203.248 312.817 201.806 311.938L180.388 298.881C179.254 298.189 177.799 298.327 176.813 299.219L158.244 316.024C156.993 317.157 155.054 317.036 153.955 315.756L137.655 296.774C136.789 295.766 135.363 295.448 134.15 295.993L111.253 306.282C109.712 306.975 107.904 306.26 107.255 304.701L97.6699 281.667C97.1583 280.438 95.8969 279.694 94.5727 279.84L69.6031 282.6C67.9197 282.787 66.4172 281.544 66.285 279.856L64.3414 255.036C64.237 253.704 63.2636 252.602 61.9543 252.334L37.3701 247.305C35.7061 246.964 34.6577 245.311 35.0586 243.66L40.9307 219.482C41.2472 218.178 40.6602 216.824 39.493 216.164L17.7017 203.853C16.2196 203.016 15.7321 201.113 16.6283 199.665L29.7342 178.479C30.4416 177.336 30.3025 175.862 29.3938 174.873L12.5162 156.495C11.3637 155.24 11.4881 153.278 12.7899 152.176L31.8547 136.043C32.8811 135.175 33.2052 133.73 32.6478 132.508L22.32 109.859C21.6137 108.31 22.3375 106.483 23.9137 105.837L47.0875 96.3338C48.3288 95.8247 49.0822 94.554 48.9327 93.2214L46.1596 68.5031C45.9703 66.8152 47.2191 65.3058 48.9129 65.175L73.9384 63.2438C75.2712 63.1409 76.376 62.1689 76.6477 60.86L81.7096 36.4781C82.0539 34.8199 83.7014 33.7737 85.348 34.1678L109.772 40.0133C111.068 40.3233 112.413 39.742 113.076 38.5859L125.493 16.9262C126.334 15.4603 128.218 14.9757 129.659 15.8546L151.077 28.9115C152.212 29.6032 153.667 29.4655 154.653 28.5731L173.221 11.7683Z" fill="#E54B4B"/>
<path d="M66.7456 144.698C68.9173 144.834 70.436 143.133 72.48 143.261C74.6517 143.396 77.0934 145.344 80.5427 145.56C88.2078 146.038 95.364 139.368 95.8457 131.767C96.2748 124.996 92.4216 121.037 81.1304 117.061C72.1622 113.872 69.3575 111.58 69.6166 107.493C69.8878 103.213 73.0721 100.527 78.1822 100.846C84.6975 101.253 87.1963 106.346 89.1171 110.442C90.5399 113.288 91.2974 114.49 92.5111 114.566C94.0441 114.661 95.1956 112.681 95.4304 108.977C95.8069 103.037 94.0269 97.7313 91.0247 97.5438C89.0446 97.4201 87.5381 98.9291 85.9313 101.009C84.6871 99.3923 81.8266 96.9693 76.2695 96.6222C67.1353 96.0518 61.8881 101.944 61.4833 108.331C61.038 115.357 64.9389 119.577 76.1621 123.612C84.815 126.717 87.492 129.001 87.2612 132.641C86.9252 137.943 83.0698 141.101 77.4487 140.75C71.8277 140.398 67.8863 136.818 64.3681 128.583C63.2525 125.948 62.3601 123.84 60.8909 123.748C59.2302 123.645 58.3899 125.772 58.1996 128.774C57.811 134.906 60.869 144.331 66.7456 144.698ZM127.846 136.202C127.527 136.182 127.251 136.486 126.496 137.272C125.397 138.422 121.406 141.699 116.487 141.392C113.102 141.181 108.237 139.017 108.272 131.389L128.983 132.426C129.388 131.104 129.892 129.212 130.046 126.785C130.601 118.035 125.547 112.781 117.69 112.291C107.79 111.672 100.991 119.776 100.38 129.421C99.6151 141.493 106.884 147.205 114.805 147.7C122.406 148.174 128.482 144.386 128.802 139.34C128.923 137.424 128.485 136.242 127.846 136.202ZM116.991 117.249C120.185 117.448 122.83 120.242 122.465 125.991C122.421 126.694 122.325 127.2 122.236 127.58L108.518 127.492C109.183 121.057 112.776 116.985 116.991 117.249ZM162.466 138.364C162.147 138.344 161.871 138.648 161.116 139.434C160.017 140.584 156.026 143.862 151.107 143.554C147.722 143.343 142.857 141.18 142.892 133.551L163.603 134.588C164.008 133.267 164.513 131.374 164.666 128.947C165.221 120.197 160.167 114.944 152.31 114.453C142.41 113.834 135.611 121.938 135 131.583C134.235 143.655 141.504 149.367 149.425 149.862C157.026 150.337 163.102 146.548 163.422 141.502C163.543 139.586 163.105 138.404 162.466 138.364ZM151.611 119.411C154.805 119.61 157.45 122.405 157.085 128.153C157.041 128.856 156.945 129.363 156.856 129.742L143.139 129.655C143.803 123.22 147.396 119.148 151.611 119.411ZM192.35 152.543C198.035 152.898 200.216 151.88 200.374 149.389C200.455 148.111 199.605 147.353 198.607 146.906C196.987 146.163 196.688 145.824 196.757 144.738L197.542 132.347C197.838 127.684 202.14 124.555 205.334 124.754C208.656 124.961 210.391 126.929 210.127 131.081L209.229 145.261C209.156 146.41 208.545 146.949 207.039 147.432C205.929 147.748 204.986 148.458 204.901 149.8C204.755 152.099 207.106 153.464 212.343 153.791C217.964 154.142 220.401 153.14 220.559 150.649C220.627 149.564 220.037 148.757 218.728 148.162C216.984 147.348 216.685 147.009 216.75 145.987L217.551 133.34C217.847 128.678 222.453 125.823 225.455 126.011C228.585 126.206 230.252 128.234 229.997 132.258C229.693 137.048 228.22 146.126 227.969 150.086C227.771 153.216 229.334 154.853 233.231 155.096C237.766 155.379 240.71 153.447 240.868 150.956C240.953 149.615 240.211 149.184 238.494 148.948C237.033 148.729 236.415 148.369 236.475 147.411C236.702 143.834 237.599 135.747 237.96 130.062C238.364 123.675 235.541 119.651 229.473 119.272C225.577 119.029 220.628 121.221 218.132 127.221L217.876 127.205C217.868 122.267 215.357 118.39 209.608 118.031C205.52 117.776 200.615 120.291 197.619 127.094L197.108 127.062C197.24 125.98 197.45 123.685 197.527 122.471C197.737 119.15 197.024 117.245 194.278 117.074C189.359 116.767 186.079 119.96 185.88 123.09C185.816 124.112 186.226 124.715 187.184 124.775C187.695 124.807 188.538 124.667 189.113 124.703C190.007 124.759 190.406 125.553 190.333 126.703L189.236 144.012C189.147 145.417 188.164 145.741 186.918 146.176C185.612 146.543 184.733 147.258 184.648 148.599C184.507 150.834 187.176 152.22 192.35 152.543ZM250.128 168.976C254.471 169.247 258.547 164.629 263.583 153.978C267.287 146.129 272.248 134.64 273.964 130.836C274.632 129.403 275.71 128.572 276.761 128.189C277.883 127.682 278.758 127.031 278.839 125.754C278.981 123.518 277.073 122.245 271.899 121.922C266.981 121.615 264.796 122.697 264.675 124.613C264.602 125.762 265.196 126.505 266.637 127.044C267.762 127.499 268.241 128.042 268.188 128.872C268.124 129.894 267.879 130.712 267.643 131.403C266.094 135.603 262.653 144.365 259.85 150.154C256.923 140.673 255.225 133.064 254.661 129.823C254.419 128.589 254.268 127.938 254.296 127.491C254.336 126.853 255.007 126.382 255.93 125.99C257.048 125.547 257.656 125.072 257.728 123.922C257.842 122.134 255.994 120.928 249.926 120.549C244.433 120.206 242.372 121.36 242.25 123.276C242.157 124.745 242.943 125.5 243.997 126.079C244.986 126.653 245.96 127.484 246.369 129.112C249.452 142.194 251.669 149.707 252.287 151.092C252.893 152.669 253.371 153.212 254.329 153.272C255.671 153.355 256.677 152.649 257.38 152.693C257.891 152.725 258.19 153.064 258.154 153.639C258.016 155.81 253.994 162.613 251.567 162.461C250.608 162.401 249.631 161.635 248.279 159.691C247.035 158.074 245.994 157.304 244.908 157.236C243.375 157.14 242.591 158.374 242.486 160.034C242.267 163.484 245.081 168.661 250.128 168.976ZM103.97 223.171C106.716 223.342 108.534 221.981 109.771 218.66L115.041 204.304C116.697 210.564 117.922 215.514 118.996 219.813C119.768 222.811 121.28 224.252 124.282 224.44C127.156 224.619 128.711 223.37 130.211 219.936C132.971 213.825 138.131 202.22 139.843 198.479C140.523 196.854 141.586 196.279 142.648 195.705C144.038 195.022 144.466 194.343 144.555 192.938C144.668 191.15 142.37 189.98 137.771 189.693C133.491 189.426 131.055 190.428 130.938 192.28C130.865 193.43 131.65 194.184 133.219 194.731C133.969 195.034 134.308 195.761 134.247 196.719C134.211 197.294 134.027 198.18 133.79 198.871C131.109 205.757 128.525 212.136 125.773 218.12C123.246 208.408 122.2 203.661 120.971 198.775C120.561 197.147 120.474 196.5 120.522 195.733C120.583 194.775 121.13 194.232 122.389 193.606C123.383 193.091 123.731 192.663 123.787 191.769C123.905 189.917 121.802 188.695 116.5 188.364C111.518 188.053 109.29 188.812 109.156 190.92C109.067 192.325 109.993 192.896 111.05 193.41C112.295 194.001 112.937 195.003 112.864 196.153C112.804 197.111 112.543 198.185 112.155 199.251C109.51 206.588 107.801 211.291 105.524 216.856C102.821 207.902 101.301 202.548 100.123 197.858C99.8724 196.752 99.2872 194.856 99.3439 193.962C99.3884 193.259 99.8639 192.84 100.922 192.329C102.109 191.826 102.66 191.219 102.717 190.325C102.842 188.345 100.659 187.375 94.9742 187.02C90.1197 186.717 87.436 187.575 87.3065 189.619C87.2134 191.088 87.62 191.755 88.9807 192.545C89.8467 193.048 90.888 193.818 91.3496 195.643C92.3405 199.232 97.206 214.541 98.6756 218.672C99.7588 221.818 101.159 222.995 103.97 223.171ZM157.772 226.531C167.418 227.134 174.382 220.451 175.095 209.209C175.746 198.926 170.047 191.709 160.977 191.142C151.396 190.544 144.367 197.223 143.655 208.464C143.003 218.747 148.702 225.965 157.772 226.531ZM159.182 221.489C154.455 221.194 151.178 216.244 151.732 207.494C152.23 199.637 155.543 195.933 159.567 196.184C164.294 196.479 167.572 201.429 167.017 210.18C166.519 218.036 163.206 221.741 159.182 221.489ZM198.382 193.478C195.955 193.327 193.207 195.207 191.315 202.784L190.749 202.62C190.885 201.475 191.046 199.946 191.156 198.221C191.395 194.453 190.398 192.98 188.034 192.832C183.499 192.549 179.784 195.523 179.569 198.908C179.5 199.994 179.919 200.469 180.813 200.525C181.58 200.573 181.975 200.405 182.742 200.453C183.636 200.509 184.039 201.239 183.962 202.453L182.865 219.762C182.776 221.167 181.789 221.555 180.611 221.93C179.369 222.301 178.49 223.016 178.405 224.357C178.263 226.593 180.805 227.97 186.171 228.305C191.664 228.648 194.101 227.646 194.258 225.155C194.327 224.069 193.673 223.259 192.364 222.664C190.684 221.854 190.321 221.51 190.386 220.488L191.195 207.714C191.394 204.584 193.213 201.171 194.491 201.251C195.385 201.307 195.74 201.778 196.56 204.009C197.385 206.177 197.979 206.919 199.321 207.003C201.365 207.131 202.528 204.959 202.735 201.702C202.982 197.805 201.448 193.67 198.382 193.478ZM233.207 222.842C230.798 220.383 226.447 215.174 222.522 210.312L230.049 204.882C231.399 203.812 232.75 202.743 234.008 202.116C235.733 201.198 236.676 200.487 236.773 198.954C236.891 197.102 234.924 195.761 229.941 195.449C225.151 195.15 222.463 196.072 222.333 198.116C222.273 199.074 222.791 200.004 224.551 200.563C225.557 200.883 226.231 201.374 226.178 202.204C226.142 202.779 225.591 203.386 224.652 204.032L214.936 210.608L216.001 193.809C216.236 190.105 216.889 187.901 217.006 186.049C217.168 183.494 215.936 181.686 212.295 181.458C207.951 181.187 204.58 182.772 204.41 185.454C204.337 186.604 204.82 187.083 206.465 187.442C208.237 187.81 208.775 188.42 208.678 189.953L206.695 221.25C206.618 222.464 205.939 223.063 204.377 223.414C202.94 223.837 202.201 224.368 202.124 225.582C201.974 227.945 204.508 229.45 209.937 229.789C215.494 230.136 217.555 228.982 217.713 226.491C217.778 225.47 217.299 224.927 215.999 224.204C214.562 223.601 214.147 223.063 214.228 221.785L214.876 211.566C217.799 215.019 220.292 218.188 223.155 221.573C224.348 222.994 224.802 223.92 224.75 224.751C224.66 226.156 223.542 226.599 223.453 228.004C223.344 229.729 225.203 230.743 229.994 231.042C234.465 231.321 236.582 230.299 236.732 227.936C236.809 226.722 236.107 225.652 233.207 222.842Z" fill="#F0F8EA"/>
</svg>
