<svg width="331" height="328" viewBox="0 0 331 328" fill="none" xmlns="http://www.w3.org/2000/svg">
<path d="M172.59 11.7683C173.841 10.6355 175.78 10.7565 176.879 12.0362L193.179 31.0187C194.045 32.0267 195.471 32.3444 196.684 31.7994L219.581 21.5101C221.122 20.8176 222.93 21.5327 223.579 23.0916L233.164 46.1255C233.676 47.3549 234.937 48.099 236.261 47.9526L261.231 45.1921C262.914 45.006 264.417 46.2489 264.549 47.9369L266.493 72.7563C266.597 74.0886 267.57 75.1905 268.88 75.4584L293.464 80.488C295.128 80.8285 296.176 82.4814 295.775 84.1324L289.903 108.311C289.587 109.614 290.174 110.969 291.341 111.628L313.132 123.94C314.615 124.777 315.102 126.679 314.206 128.128L301.1 149.313C300.392 150.457 300.532 151.93 301.44 152.92L318.318 171.297C319.47 172.552 319.346 174.515 318.044 175.617L298.979 191.749C297.953 192.618 297.629 194.063 298.186 195.285L308.514 217.934C309.22 219.483 308.497 221.309 306.92 221.956L283.747 231.459C282.505 231.968 281.752 233.239 281.901 234.571L284.674 259.29C284.864 260.977 283.615 262.487 281.921 262.618L256.896 264.549C255.563 264.652 254.458 265.624 254.186 266.933L249.124 291.314C248.78 292.973 247.133 294.019 245.486 293.625L221.062 287.779C219.766 287.469 218.421 288.051 217.758 289.207L205.341 310.866C204.5 312.332 202.616 312.817 201.175 311.938L179.757 298.881C178.622 298.189 177.167 298.327 176.181 299.219L157.613 316.024C156.361 317.157 154.423 317.036 153.324 315.756L137.024 296.774C136.158 295.766 134.732 295.448 133.519 295.993L110.622 306.282C109.08 306.975 107.272 306.26 106.624 304.701L97.0385 281.667C96.527 280.438 95.2656 279.694 93.9414 279.84L68.9717 282.6C67.2883 282.787 65.7858 281.544 65.6537 279.856L63.71 255.036C63.6057 253.704 62.6323 252.602 61.323 252.334L36.7387 247.305C35.0747 246.964 34.0263 245.311 34.4273 243.66L40.2993 219.482C40.6159 218.178 40.0289 216.824 38.8616 216.164L17.0704 203.853C15.5882 203.016 15.1007 201.113 15.997 199.665L29.1029 178.479C29.8102 177.336 29.6711 175.862 28.7624 174.873L11.8848 156.495C10.7323 155.24 10.8567 153.278 12.1585 152.176L31.2234 136.043C32.2498 135.175 32.5739 133.73 32.0164 132.508L21.6886 109.859C20.9823 108.31 21.7062 106.483 23.2824 105.837L46.4561 96.3338C47.6975 95.8247 48.4509 94.554 48.3014 93.2214L45.5283 68.5031C45.3389 66.8152 46.5877 65.3058 48.2816 65.175L73.307 63.2438C74.6398 63.1409 75.7446 62.1689 76.0164 60.86L81.0783 36.4781C81.4225 34.8199 83.0701 33.7737 84.7167 34.1678L109.141 40.0133C110.436 40.3233 111.782 39.742 112.444 38.5859L124.862 16.9262C125.702 15.4603 127.586 14.9757 129.028 15.8546L150.446 28.9115C151.58 29.6032 153.035 29.4655 154.021 28.5731L172.59 11.7683Z" fill="#E54B4B"/>
<path d="M86.3748 119.223C84.9057 119.132 84.0105 120.102 83.9336 121.315C83.8486 122.657 84.4266 123.655 86.0033 124.074L90.8691 125.211C92.5056 125.698 93.2793 126.644 93.1578 128.56C92.8097 134.053 87.8059 140.153 80.4602 139.695C72.7312 139.212 68.4677 129.583 69.1235 119.236C69.7631 109.144 74.7719 101.955 82.1814 102.417C87.6747 102.76 90.3193 105.555 93.1415 110.604C95.6291 114.864 96.6421 116.081 98.0474 116.169C99.9636 116.289 100.976 113.466 101.195 110.017C101.535 104.652 100.023 98.1452 97.0212 97.9577C95.2966 97.85 94.1491 99.7662 92.4136 102.864C90.7911 100.134 87.2482 97.3474 81.6272 96.9963C69.0437 96.2104 61.5483 107.221 60.7549 119.739C59.9048 133.153 66.3545 144.713 78.1715 145.451C85.0062 145.878 90.0114 142.792 93.1853 138.245L93.3702 141.399C93.7306 144.82 95.1624 146.512 97.0786 146.632C98.5478 146.724 99.4227 146.073 99.5635 144.863C99.9139 141.358 101.147 127.969 101.41 123.818C101.572 121.263 100.427 120.101 98.064 119.953L86.3748 119.223ZM133.858 136.617C133.539 136.597 133.263 136.901 132.508 137.687C131.409 138.837 127.418 142.114 122.499 141.807C119.114 141.596 114.249 139.432 114.283 131.804L134.995 132.841C135.4 131.519 135.904 129.627 136.058 127.2C136.613 118.449 131.559 113.196 123.702 112.706C113.802 112.087 107.003 120.191 106.392 129.836C105.627 141.908 112.896 147.62 120.817 148.115C128.418 148.589 134.494 144.801 134.814 139.755C134.935 137.839 134.497 136.657 133.858 136.617ZM123.003 117.664C126.197 117.863 128.842 120.657 128.477 126.406C128.433 127.108 128.337 127.615 128.248 127.995L114.53 127.907C115.195 121.472 118.788 117.4 123.003 117.664ZM152.003 150.062C158.262 150.453 162.44 144.238 162.772 139C162.897 137.02 162.3 135.315 161.661 135.276C161.214 135.248 160.93 135.679 160.326 137.116C159.246 139.998 157.279 142.697 154.788 142.541C152.169 142.378 151.057 139.679 151.681 129.843C151.855 127.096 152.145 124.549 152.406 122.45C154.127 122.621 158.658 122.968 160.574 123.088C161.213 123.128 161.68 122.837 161.725 122.134C161.842 120.282 159.877 116.889 153.042 116.462C153.271 114.873 153.697 111.18 153.859 108.625C153.916 107.731 153.685 107.332 153.046 107.292C150.108 107.109 139.156 117.005 138.957 120.135C138.901 121.029 139.324 121.44 140.661 121.588L144.805 121.975C144.423 124.965 143.996 129.684 143.745 133.644C143.089 143.991 145.743 149.671 152.003 150.062ZM189.754 152.42C195.439 152.775 197.62 151.757 197.778 149.266C197.859 147.989 197.009 147.23 196.011 146.783C194.391 146.041 194.092 145.701 194.161 144.616L194.946 132.224C195.241 127.562 199.544 124.432 202.738 124.631C206.059 124.839 207.794 126.807 207.531 130.958L206.632 145.138C206.56 146.288 205.948 146.827 204.443 147.31C203.333 147.625 202.39 148.336 202.305 149.677C202.159 151.976 204.509 153.342 209.747 153.669C215.368 154.02 217.804 153.018 217.962 150.527C218.031 149.441 217.441 148.634 216.132 148.04C214.388 147.225 214.089 146.886 214.154 145.864L214.955 133.218C215.251 128.555 219.856 125.7 222.859 125.888C225.988 126.083 227.655 128.111 227.4 132.135C227.097 136.926 225.624 146.003 225.373 149.964C225.174 153.093 226.738 154.73 230.634 154.973C235.17 155.256 238.114 153.324 238.272 150.833C238.357 149.492 237.614 149.061 235.898 148.825C234.437 148.606 233.818 148.247 233.879 147.289C234.106 143.712 235.003 135.624 235.363 129.939C235.768 123.552 232.945 119.528 226.877 119.149C222.98 118.906 218.032 121.098 215.535 127.098L215.28 127.082C215.272 122.144 212.76 118.268 207.011 117.909C202.923 117.653 198.019 120.168 195.022 126.971L194.511 126.939C194.644 125.857 194.854 123.562 194.93 122.348C195.141 119.027 194.428 117.123 191.681 116.951C186.763 116.644 183.482 119.838 183.284 122.967C183.219 123.989 183.63 124.592 184.588 124.652C185.099 124.684 185.942 124.544 186.516 124.58C187.411 124.636 187.809 125.43 187.736 126.58L186.639 143.889C186.55 145.294 185.568 145.618 184.322 146.053C183.016 146.42 182.137 147.135 182.052 148.476C181.91 150.712 184.58 152.097 189.754 152.42ZM247.531 168.853C251.875 169.125 255.951 164.506 260.987 153.855C264.691 146.007 269.651 134.518 271.367 130.713C272.035 129.28 273.114 128.45 274.164 128.066C275.287 127.559 276.162 126.909 276.243 125.631C276.384 123.396 274.477 122.122 269.303 121.799C264.385 121.492 262.2 122.574 262.078 124.49C262.006 125.64 262.6 126.382 264.041 126.921C265.166 127.376 265.645 127.919 265.592 128.749C265.527 129.771 265.283 130.59 265.047 131.28C263.498 135.48 260.057 144.242 257.253 150.031C254.327 140.55 252.629 132.941 252.065 129.7C251.822 128.466 251.671 127.816 251.7 127.369C251.74 126.73 252.411 126.259 253.334 125.868C254.452 125.424 255.059 124.949 255.132 123.8C255.246 122.011 253.398 120.806 247.33 120.427C241.837 120.084 239.776 121.237 239.654 123.154C239.561 124.623 240.347 125.377 241.4 125.956C242.39 126.531 243.363 127.361 243.773 128.99C246.856 142.071 249.073 149.584 249.691 150.969C250.296 152.546 250.775 153.089 251.733 153.149C253.074 153.233 254.081 152.526 254.784 152.57C255.295 152.602 255.594 152.941 255.557 153.516C255.42 155.688 251.398 162.49 248.97 162.338C248.012 162.279 247.035 161.512 245.683 159.568C244.439 157.951 243.397 157.181 242.311 157.113C240.778 157.018 239.995 158.251 239.89 159.912C239.671 163.361 242.485 168.538 247.531 168.853ZM139.842 225.451C150.126 226.093 157.383 218.851 157.755 212.975C157.864 211.251 157.063 209.726 155.977 209.658C155.53 209.63 155.191 209.929 154.535 211.171C151.364 216.68 147.01 219.614 141.708 219.283C134.554 218.836 129.534 211.02 130.401 197.352C131.024 187.515 136.004 181.799 141.497 182.142C145.329 182.381 148.07 184.668 150.928 190.169C153.327 194.808 154.336 196.089 155.678 196.173C157.53 196.289 158.754 194.185 159.025 189.905C159.422 183.646 157.478 177.882 154.795 177.714C153.454 177.63 152.155 178.896 150.26 182.497C148.107 179.028 144.895 177.096 140.743 176.836C130.651 176.206 122.737 185.715 121.863 199.512C120.883 214.969 128.792 224.761 139.842 225.451ZM180.476 227.989C183.287 228.164 184.765 227.102 185.813 224.731C190.749 213.625 195.662 201.876 200.183 191.258C201.231 188.886 202.757 188.084 204.075 187.525C205.792 186.734 206.28 186.124 206.365 184.782C206.506 182.547 204.487 181.01 198.739 180.651C192.99 180.292 190.422 181.35 190.288 183.458C190.219 184.543 190.75 185.282 192.043 186.132C193.1 186.647 193.89 187.338 193.813 188.551C193.765 189.318 193.596 189.948 193.28 190.891C190.45 199.114 185.714 210.104 181.741 219.154C178.907 209.23 176.265 199.318 173.853 190.832C173.431 189.394 173.228 188.548 173.281 187.718C173.354 186.568 174.165 185.913 175.155 185.462C176.21 185.015 177.204 184.5 177.301 182.967C177.439 180.796 175.807 179.219 168.781 178.78C163.096 178.425 160.444 179.798 160.298 182.098C160.209 183.503 161.051 184.389 162.331 185.431C163.373 186.201 164.514 187.427 164.94 188.8C168.547 199.67 172.133 212.911 175.361 223.693C176.154 226.372 177.538 227.805 180.476 227.989Z" fill="#F0F8EA"/>
</svg>
